<?xml version="1.0" encoding="utf-8" standalone="no"?>
<!DOCTYPE svg PUBLIC "-//W3C//DTD SVG 1.1//EN"
  "http://www.w3.org/Graphics/SVG/1.1/DTD/svg11.dtd">
<svg xmlns:xlink="http://www.w3.org/1999/xlink" width="864pt" height="144pt" viewBox="0 0 864 144" xmlns="http://www.w3.org/2000/svg" version="1.1">
 <metadata>
  <rdf:RDF xmlns:dc="http://purl.org/dc/elements/1.1/" xmlns:cc="http://creativecommons.org/ns#" xmlns:rdf="http://www.w3.org/1999/02/22-rdf-syntax-ns#">
   <cc:Work>
    <dc:type rdf:resource="http://purl.org/dc/dcmitype/StillImage"/>
    <dc:date>2025-10-13T09:18:06.864240</dc:date>
    <dc:format>image/svg+xml</dc:format>
    <dc:creator>
     <cc:Agent>
      <dc:title>Matplotlib v3.10.7, https://matplotlib.org/</dc:title>
     </cc:Agent>
    </dc:creator>
   </cc:Work>
  </rdf:RDF>
 </metadata>
 <defs>
  <style type="text/css">*{stroke-linejoin: round; stroke-linecap: butt}</style>
 </defs>
 <g id="figure_1">
  <g id="patch_1">
   <path d="M 0 144 
L 864 144 
L 864 0 
L 0 0 
z
" style="fill: #ffffff"/>
  </g>
  <g id="axes_1">
   <g id="patch_2">
    <path d="M 38.625947 102.851262 
L 39.317275 102.851262 
L 39.317275 102.159934 
L 38.625947 102.159934 
L 38.625947 102.851262 
M 39.317275 100.777279 
L 40.008603 100.777279 
L 40.008603 100.085951 
L 39.317275 100.085951 
L 39.317275 100.777279 
M 33.786652 97.320639 
L 34.47798 97.320639 
L 34.47798 96.629311 
L 33.786652 96.629311 
L 33.786652 97.320639 
M 27.564701 95.246656 
L 28.256029 95.246656 
L 28.256029 94.555328 
L 27.564701 94.555328 
L 27.564701 95.246656 
M 27.564701 93.172672 
L 28.256029 93.172672 
L 28.256029 92.481344 
L 27.564701 92.481344 
L 27.564701 93.172672 
M 33.786652 91.098689 
L 34.47798 91.098689 
L 34.47798 90.407361 
L 33.786652 90.407361 
L 33.786652 91.098689 
M 39.317275 87.642049 
L 40.008603 87.642049 
L 40.008603 86.950721 
L 39.317275 86.950721 
L 39.317275 87.642049 
M 38.625947 85.568066 
L 39.317275 85.568066 
L 39.317275 84.876738 
L 38.625947 84.876738 
L 38.625947 85.568066 
M 44.847898 111.147197 
L 60.057111 111.147197 
L 60.057111 110.455869 
L 60.748439 110.455869 
L 60.748439 109.764541 
L 61.439767 109.764541 
L 61.439767 109.073213 
L 62.131094 109.073213 
L 62.131094 108.381885 
L 62.822422 108.381885 
L 62.822422 106.99923 
L 64.205078 106.99923 
L 64.205078 106.307902 
L 64.896406 106.307902 
L 64.896406 105.616574 
L 65.587734 105.616574 
L 65.587734 104.925246 
L 66.279062 104.925246 
L 66.279062 104.233918 
L 66.970389 104.233918 
L 66.970389 103.54259 
L 67.661717 103.54259 
L 67.661717 102.851262 
L 69.044373 102.851262 
L 69.044373 102.159934 
L 69.735701 102.159934 
L 69.735701 101.468607 
L 70.427029 101.468607 
L 70.427029 100.777279 
L 71.809685 100.777279 
L 71.809685 100.085951 
L 72.501012 100.085951 
L 72.501012 99.394623 
L 73.883668 99.394623 
L 73.883668 98.703295 
L 75.266324 98.703295 
L 75.266324 99.394623 
L 75.957652 99.394623 
L 75.957652 100.085951 
L 77.340308 100.085951 
L 77.340308 100.777279 
L 78.031635 100.777279 
L 78.031635 101.468607 
L 79.414291 101.468607 
L 79.414291 102.159934 
L 80.105619 102.159934 
L 80.105619 102.851262 
L 80.796947 102.851262 
L 80.796947 103.54259 
L 81.488275 103.54259 
L 81.488275 104.233918 
L 82.179603 104.233918 
L 82.179603 104.925246 
L 82.870931 104.925246 
L 82.870931 105.616574 
L 83.562258 105.616574 
L 83.562258 106.307902 
L 84.253586 106.307902 
L 84.253586 106.99923 
L 84.944914 106.99923 
L 84.944914 107.690557 
L 85.636242 107.690557 
L 85.636242 108.381885 
L 86.32757 108.381885 
L 86.32757 109.073213 
L 87.018898 109.073213 
L 87.018898 109.764541 
L 87.710226 109.764541 
L 87.710226 110.455869 
L 88.401553 110.455869 
L 88.401553 111.147197 
L 94.623504 111.147197 
L 94.623504 94.555328 
L 90.475537 94.555328 
L 90.475537 93.172672 
L 94.623504 93.172672 
L 94.623504 76.580803 
L 88.401553 76.580803 
L 88.401553 77.272131 
L 87.710226 77.272131 
L 87.710226 77.963459 
L 87.018898 77.963459 
L 87.018898 78.654787 
L 86.32757 78.654787 
L 86.32757 79.346115 
L 85.636242 79.346115 
L 85.636242 80.037443 
L 84.944914 80.037443 
L 84.944914 80.72877 
L 84.253586 80.72877 
L 84.253586 81.420098 
L 83.562258 81.420098 
L 83.562258 82.111426 
L 82.870931 82.111426 
L 82.870931 82.802754 
L 82.179603 82.802754 
L 82.179603 83.494082 
L 81.488275 83.494082 
L 81.488275 84.18541 
L 80.796947 84.18541 
L 80.796947 84.876738 
L 80.105619 84.876738 
L 80.105619 85.568066 
L 79.414291 85.568066 
L 79.414291 86.259393 
L 78.031635 86.259393 
L 78.031635 86.950721 
L 77.340308 86.950721 
L 77.340308 87.642049 
L 75.957652 87.642049 
L 75.957652 88.333377 
L 75.266324 88.333377 
L 75.266324 89.024705 
L 73.883668 89.024705 
L 73.883668 88.333377 
L 72.501012 88.333377 
L 72.501012 87.642049 
L 71.809685 87.642049 
L 71.809685 86.950721 
L 70.427029 86.950721 
L 70.427029 86.259393 
L 69.735701 86.259393 
L 69.735701 85.568066 
L 69.044373 85.568066 
L 69.044373 84.876738 
L 67.661717 84.876738 
L 67.661717 84.18541 
L 66.970389 84.18541 
L 66.970389 83.494082 
L 66.279062 83.494082 
L 66.279062 82.802754 
L 65.587734 82.802754 
L 65.587734 82.111426 
L 64.896406 82.111426 
L 64.896406 81.420098 
L 64.205078 81.420098 
L 64.205078 80.72877 
L 62.822422 80.72877 
L 62.822422 79.346115 
L 62.131094 79.346115 
L 62.131094 78.654787 
L 61.439767 78.654787 
L 61.439767 77.963459 
L 60.748439 77.963459 
L 60.748439 77.272131 
L 60.057111 77.272131 
L 60.057111 76.580803 
L 44.847898 76.580803 
L 44.847898 77.963459 
L 44.15657 77.963459 
L 44.15657 79.346115 
L 43.465242 79.346115 
L 43.465242 80.72877 
L 42.773914 80.72877 
L 42.773914 82.111426 
L 42.082586 82.111426 
L 42.082586 84.18541 
L 41.391258 84.18541 
L 41.391258 86.259393 
L 40.69993 86.259393 
L 40.69993 88.333377 
L 37.934619 88.333377 
L 37.934619 89.024705 
L 40.69993 89.024705 
L 40.69993 93.172672 
L 41.391258 93.172672 
L 41.391258 91.790016 
L 55.217816 91.790016 
L 55.217816 92.481344 
L 59.365783 92.481344 
L 59.365783 93.172672 
L 62.822422 93.172672 
L 62.822422 94.555328 
L 59.365783 94.555328 
L 59.365783 95.246656 
L 55.217816 95.246656 
L 55.217816 95.937984 
L 41.391258 95.937984 
L 41.391258 94.555328 
L 40.69993 94.555328 
L 40.69993 98.703295 
L 37.934619 98.703295 
L 37.934619 99.394623 
L 40.69993 99.394623 
L 40.69993 101.468607 
L 41.391258 101.468607 
L 41.391258 103.54259 
L 42.082586 103.54259 
L 42.082586 105.616574 
L 42.773914 105.616574 
L 42.773914 106.99923 
L 43.465242 106.99923 
L 43.465242 108.381885 
L 44.15657 108.381885 
L 44.15657 109.764541 
L 44.847898 109.764541 
L 44.847898 111.147197 
" clip-path="url(#pd17002f0a0)" style="fill: #ff7f0e; fill-opacity: 0.3; stroke: #ff7f0e; stroke-width: 2; stroke-linejoin: miter"/>
   </g>
   <g id="patch_3">
    <path d="M 15.120799 125.3328 
L 25.490717 125.3328 
L 25.490717 62.3952 
L 15.120799 62.3952 
z
" clip-path="url(#pd17002f0a0)" style="opacity: 0.1; stroke: #000000; stroke-linejoin: miter"/>
   </g>
   <g id="line2d_1">
    <path d="M 94.623504 111.147197 
L 94.623504 76.580803 
L 25.490717 76.580803 
L 25.490717 111.147197 
L 94.623504 111.147197 
" clip-path="url(#pd17002f0a0)" style="fill: none; stroke: #000000; stroke-width: 1.5; stroke-linecap: square"/>
   </g>
   <g id="line2d_2">
    <defs>
     <path id="mc0760de979" d="M 0 1.5 
C 0.397805 1.5 0.77937 1.341951 1.06066 1.06066 
C 1.341951 0.77937 1.5 0.397805 1.5 0 
C 1.5 -0.397805 1.341951 -0.77937 1.06066 -1.06066 
C 0.77937 -1.341951 0.397805 -1.5 0 -1.5 
C -0.397805 -1.5 -0.77937 -1.341951 -1.06066 -1.06066 
C -1.341951 -0.77937 -1.5 -0.397805 -1.5 0 
C -1.5 0.397805 -1.341951 0.77937 -1.06066 1.06066 
C -0.77937 1.341951 -0.397805 1.5 0 1.5 
z
" style="stroke: #000000; stroke-opacity: 0"/>
    </defs>
    <g clip-path="url(#pd17002f0a0)">
     <use xlink:href="#mc0760de979" x="101.536783" y="93.864" style="fill-opacity: 0; stroke: #000000; stroke-opacity: 0"/>
    </g>
   </g>
   <g id="line2d_3">
    <defs>
     <path id="m696e5ae15a" d="M 0 2.5 
C 0.663008 2.5 1.29895 2.236584 1.767767 1.767767 
C 2.236584 1.29895 2.5 0.663008 2.5 0 
C 2.5 -0.663008 2.236584 -1.29895 1.767767 -1.767767 
C 1.29895 -2.236584 0.663008 -2.5 0 -2.5 
C -0.663008 -2.5 -1.29895 -2.236584 -1.767767 -1.767767 
C -2.236584 -1.29895 -2.5 -0.663008 -2.5 0 
C -2.5 0.663008 -2.236584 1.29895 -1.767767 1.767767 
C -1.29895 2.236584 -0.663008 2.5 0 2.5 
z
" style="stroke: #000000"/>
    </defs>
    <g clip-path="url(#pd17002f0a0)">
     <use xlink:href="#m696e5ae15a" x="94.623504" y="93.864" style="stroke: #000000"/>
    </g>
   </g>
   <g id="patch_4">
    <path d="M 104.993422 85.491608 
Q 104.993422 93.862959 104.993422 101.116277 
" style="fill: none; stroke: #000000; stroke-linecap: round"/>
    <path d="M 106.993422 97.116277 
L 104.993422 101.116277 
L 102.993422 97.116277 
z
" style="stroke: #000000; stroke-linecap: round"/>
   </g>
   <g id="text_1">
    <!-- $f_\text{obj} = $836.4 -->
    <g transform="translate(27.858791 22.770469) scale(0.11 -0.11)">
     <defs>
      <path id="DejaVuSans-Oblique-66" d="M 3059 4863 
L 2969 4384 
L 2419 4384 
Q 2106 4384 1964 4261 
Q 1822 4138 1753 3809 
L 1691 3500 
L 2638 3500 
L 2553 3053 
L 1606 3053 
L 1013 0 
L 434 0 
L 1031 3053 
L 481 3053 
L 563 3500 
L 1113 3500 
L 1159 3744 
Q 1278 4363 1576 4613 
Q 1875 4863 2516 4863 
L 3059 4863 
z
" transform="scale(0.015625)"/>
      <path id="DejaVuSans-6f" d="M 1959 3097 
Q 1497 3097 1228 2736 
Q 959 2375 959 1747 
Q 959 1119 1226 758 
Q 1494 397 1959 397 
Q 2419 397 2687 759 
Q 2956 1122 2956 1747 
Q 2956 2369 2687 2733 
Q 2419 3097 1959 3097 
z
M 1959 3584 
Q 2709 3584 3137 3096 
Q 3566 2609 3566 1747 
Q 3566 888 3137 398 
Q 2709 -91 1959 -91 
Q 1206 -91 779 398 
Q 353 888 353 1747 
Q 353 2609 779 3096 
Q 1206 3584 1959 3584 
z
" transform="scale(0.015625)"/>
      <path id="DejaVuSans-62" d="M 3116 1747 
Q 3116 2381 2855 2742 
Q 2594 3103 2138 3103 
Q 1681 3103 1420 2742 
Q 1159 2381 1159 1747 
Q 1159 1113 1420 752 
Q 1681 391 2138 391 
Q 2594 391 2855 752 
Q 3116 1113 3116 1747 
z
M 1159 2969 
Q 1341 3281 1617 3432 
Q 1894 3584 2278 3584 
Q 2916 3584 3314 3078 
Q 3713 2572 3713 1747 
Q 3713 922 3314 415 
Q 2916 -91 2278 -91 
Q 1894 -91 1617 61 
Q 1341 213 1159 525 
L 1159 0 
L 581 0 
L 581 4863 
L 1159 4863 
L 1159 2969 
z
" transform="scale(0.015625)"/>
      <path id="DejaVuSans-6a" d="M 603 3500 
L 1178 3500 
L 1178 -63 
Q 1178 -731 923 -1031 
Q 669 -1331 103 -1331 
L -116 -1331 
L -116 -844 
L 38 -844 
Q 366 -844 484 -692 
Q 603 -541 603 -63 
L 603 3500 
z
M 603 4863 
L 1178 4863 
L 1178 4134 
L 603 4134 
L 603 4863 
z
" transform="scale(0.015625)"/>
      <path id="DejaVuSans-3d" d="M 678 2906 
L 4684 2906 
L 4684 2381 
L 678 2381 
L 678 2906 
z
M 678 1631 
L 4684 1631 
L 4684 1100 
L 678 1100 
L 678 1631 
z
" transform="scale(0.015625)"/>
      <path id="DejaVuSans-38" d="M 2034 2216 
Q 1584 2216 1326 1975 
Q 1069 1734 1069 1313 
Q 1069 891 1326 650 
Q 1584 409 2034 409 
Q 2484 409 2743 651 
Q 3003 894 3003 1313 
Q 3003 1734 2745 1975 
Q 2488 2216 2034 2216 
z
M 1403 2484 
Q 997 2584 770 2862 
Q 544 3141 544 3541 
Q 544 4100 942 4425 
Q 1341 4750 2034 4750 
Q 2731 4750 3128 4425 
Q 3525 4100 3525 3541 
Q 3525 3141 3298 2862 
Q 3072 2584 2669 2484 
Q 3125 2378 3379 2068 
Q 3634 1759 3634 1313 
Q 3634 634 3220 271 
Q 2806 -91 2034 -91 
Q 1263 -91 848 271 
Q 434 634 434 1313 
Q 434 1759 690 2068 
Q 947 2378 1403 2484 
z
M 1172 3481 
Q 1172 3119 1398 2916 
Q 1625 2713 2034 2713 
Q 2441 2713 2670 2916 
Q 2900 3119 2900 3481 
Q 2900 3844 2670 4047 
Q 2441 4250 2034 4250 
Q 1625 4250 1398 4047 
Q 1172 3844 1172 3481 
z
" transform="scale(0.015625)"/>
      <path id="DejaVuSans-33" d="M 2597 2516 
Q 3050 2419 3304 2112 
Q 3559 1806 3559 1356 
Q 3559 666 3084 287 
Q 2609 -91 1734 -91 
Q 1441 -91 1130 -33 
Q 819 25 488 141 
L 488 750 
Q 750 597 1062 519 
Q 1375 441 1716 441 
Q 2309 441 2620 675 
Q 2931 909 2931 1356 
Q 2931 1769 2642 2001 
Q 2353 2234 1838 2234 
L 1294 2234 
L 1294 2753 
L 1863 2753 
Q 2328 2753 2575 2939 
Q 2822 3125 2822 3475 
Q 2822 3834 2567 4026 
Q 2313 4219 1838 4219 
Q 1578 4219 1281 4162 
Q 984 4106 628 3988 
L 628 4550 
Q 988 4650 1302 4700 
Q 1616 4750 1894 4750 
Q 2613 4750 3031 4423 
Q 3450 4097 3450 3541 
Q 3450 3153 3228 2886 
Q 3006 2619 2597 2516 
z
" transform="scale(0.015625)"/>
      <path id="DejaVuSans-36" d="M 2113 2584 
Q 1688 2584 1439 2293 
Q 1191 2003 1191 1497 
Q 1191 994 1439 701 
Q 1688 409 2113 409 
Q 2538 409 2786 701 
Q 3034 994 3034 1497 
Q 3034 2003 2786 2293 
Q 2538 2584 2113 2584 
z
M 3366 4563 
L 3366 3988 
Q 3128 4100 2886 4159 
Q 2644 4219 2406 4219 
Q 1781 4219 1451 3797 
Q 1122 3375 1075 2522 
Q 1259 2794 1537 2939 
Q 1816 3084 2150 3084 
Q 2853 3084 3261 2657 
Q 3669 2231 3669 1497 
Q 3669 778 3244 343 
Q 2819 -91 2113 -91 
Q 1303 -91 875 529 
Q 447 1150 447 2328 
Q 447 3434 972 4092 
Q 1497 4750 2381 4750 
Q 2619 4750 2861 4703 
Q 3103 4656 3366 4563 
z
" transform="scale(0.015625)"/>
      <path id="DejaVuSans-2e" d="M 684 794 
L 1344 794 
L 1344 0 
L 684 0 
L 684 794 
z
" transform="scale(0.015625)"/>
      <path id="DejaVuSans-34" d="M 2419 4116 
L 825 1625 
L 2419 1625 
L 2419 4116 
z
M 2253 4666 
L 3047 4666 
L 3047 1625 
L 3713 1625 
L 3713 1100 
L 3047 1100 
L 3047 0 
L 2419 0 
L 2419 1100 
L 313 1100 
L 313 1709 
L 2253 4666 
z
" transform="scale(0.015625)"/>
     </defs>
     <use xlink:href="#DejaVuSans-Oblique-66" transform="translate(0 0.015625)"/>
     <use xlink:href="#DejaVuSans-6f" transform="translate(35.205078 -16.390625) scale(0.7)"/>
     <use xlink:href="#DejaVuSans-62" transform="translate(78.032227 -16.390625) scale(0.7)"/>
     <use xlink:href="#DejaVuSans-6a" transform="translate(122.46582 -16.390625) scale(0.7)"/>
     <use xlink:href="#DejaVuSans-3d" transform="translate(164.130859 0.015625)"/>
     <use xlink:href="#DejaVuSans-38" transform="translate(267.402344 0.015625)"/>
     <use xlink:href="#DejaVuSans-33" transform="translate(331.025391 0.015625)"/>
     <use xlink:href="#DejaVuSans-36" transform="translate(394.648438 0.015625)"/>
     <use xlink:href="#DejaVuSans-2e" transform="translate(458.271484 0.015625)"/>
     <use xlink:href="#DejaVuSans-34" transform="translate(490.058594 0.015625)"/>
    </g>
    <!-- 1 evals -->
    <g transform="translate(38.678322 36.210406) scale(0.11 -0.11)">
     <defs>
      <path id="DejaVuSans-31" d="M 794 531 
L 1825 531 
L 1825 4091 
L 703 3866 
L 703 4441 
L 1819 4666 
L 2450 4666 
L 2450 531 
L 3481 531 
L 3481 0 
L 794 0 
L 794 531 
z
" transform="scale(0.015625)"/>
      <path id="DejaVuSans-20" transform="scale(0.015625)"/>
      <path id="DejaVuSans-65" d="M 3597 1894 
L 3597 1613 
L 953 1613 
Q 991 1019 1311 708 
Q 1631 397 2203 397 
Q 2534 397 2845 478 
Q 3156 559 3463 722 
L 3463 178 
Q 3153 47 2828 -22 
Q 2503 -91 2169 -91 
Q 1331 -91 842 396 
Q 353 884 353 1716 
Q 353 2575 817 3079 
Q 1281 3584 2069 3584 
Q 2775 3584 3186 3129 
Q 3597 2675 3597 1894 
z
M 3022 2063 
Q 3016 2534 2758 2815 
Q 2500 3097 2075 3097 
Q 1594 3097 1305 2825 
Q 1016 2553 972 2059 
L 3022 2063 
z
" transform="scale(0.015625)"/>
      <path id="DejaVuSans-76" d="M 191 3500 
L 800 3500 
L 1894 563 
L 2988 3500 
L 3597 3500 
L 2284 0 
L 1503 0 
L 191 3500 
z
" transform="scale(0.015625)"/>
      <path id="DejaVuSans-61" d="M 2194 1759 
Q 1497 1759 1228 1600 
Q 959 1441 959 1056 
Q 959 750 1161 570 
Q 1363 391 1709 391 
Q 2188 391 2477 730 
Q 2766 1069 2766 1631 
L 2766 1759 
L 2194 1759 
z
M 3341 1997 
L 3341 0 
L 2766 0 
L 2766 531 
Q 2569 213 2275 61 
Q 1981 -91 1556 -91 
Q 1019 -91 701 211 
Q 384 513 384 1019 
Q 384 1609 779 1909 
Q 1175 2209 1959 2209 
L 2766 2209 
L 2766 2266 
Q 2766 2663 2505 2880 
Q 2244 3097 1772 3097 
Q 1472 3097 1187 3025 
Q 903 2953 641 2809 
L 641 3341 
Q 956 3463 1253 3523 
Q 1550 3584 1831 3584 
Q 2591 3584 2966 3190 
Q 3341 2797 3341 1997 
z
" transform="scale(0.015625)"/>
      <path id="DejaVuSans-6c" d="M 603 4863 
L 1178 4863 
L 1178 0 
L 603 0 
L 603 4863 
z
" transform="scale(0.015625)"/>
      <path id="DejaVuSans-73" d="M 2834 3397 
L 2834 2853 
Q 2591 2978 2328 3040 
Q 2066 3103 1784 3103 
Q 1356 3103 1142 2972 
Q 928 2841 928 2578 
Q 928 2378 1081 2264 
Q 1234 2150 1697 2047 
L 1894 2003 
Q 2506 1872 2764 1633 
Q 3022 1394 3022 966 
Q 3022 478 2636 193 
Q 2250 -91 1575 -91 
Q 1294 -91 989 -36 
Q 684 19 347 128 
L 347 722 
Q 666 556 975 473 
Q 1284 391 1588 391 
Q 1994 391 2212 530 
Q 2431 669 2431 922 
Q 2431 1156 2273 1281 
Q 2116 1406 1581 1522 
L 1381 1569 
Q 847 1681 609 1914 
Q 372 2147 372 2553 
Q 372 3047 722 3315 
Q 1072 3584 1716 3584 
Q 2034 3584 2315 3537 
Q 2597 3491 2834 3397 
z
" transform="scale(0.015625)"/>
     </defs>
     <use xlink:href="#DejaVuSans-31"/>
     <use xlink:href="#DejaVuSans-20" transform="translate(63.623047 0)"/>
     <use xlink:href="#DejaVuSans-65" transform="translate(95.410156 0)"/>
     <use xlink:href="#DejaVuSans-76" transform="translate(156.933594 0)"/>
     <use xlink:href="#DejaVuSans-61" transform="translate(216.113281 0)"/>
     <use xlink:href="#DejaVuSans-6c" transform="translate(277.392578 0)"/>
     <use xlink:href="#DejaVuSans-73" transform="translate(305.175781 0)"/>
    </g>
    <!-- 0 sims -->
    <g transform="translate(40.465822 48.528) scale(0.11 -0.11)">
     <defs>
      <path id="DejaVuSans-30" d="M 2034 4250 
Q 1547 4250 1301 3770 
Q 1056 3291 1056 2328 
Q 1056 1369 1301 889 
Q 1547 409 2034 409 
Q 2525 409 2770 889 
Q 3016 1369 3016 2328 
Q 3016 3291 2770 3770 
Q 2525 4250 2034 4250 
z
M 2034 4750 
Q 2819 4750 3233 4129 
Q 3647 3509 3647 2328 
Q 3647 1150 3233 529 
Q 2819 -91 2034 -91 
Q 1250 -91 836 529 
Q 422 1150 422 2328 
Q 422 3509 836 4129 
Q 1250 4750 2034 4750 
z
" transform="scale(0.015625)"/>
      <path id="DejaVuSans-69" d="M 603 3500 
L 1178 3500 
L 1178 0 
L 603 0 
L 603 3500 
z
M 603 4863 
L 1178 4863 
L 1178 4134 
L 603 4134 
L 603 4863 
z
" transform="scale(0.015625)"/>
      <path id="DejaVuSans-6d" d="M 3328 2828 
Q 3544 3216 3844 3400 
Q 4144 3584 4550 3584 
Q 5097 3584 5394 3201 
Q 5691 2819 5691 2113 
L 5691 0 
L 5113 0 
L 5113 2094 
Q 5113 2597 4934 2840 
Q 4756 3084 4391 3084 
Q 3944 3084 3684 2787 
Q 3425 2491 3425 1978 
L 3425 0 
L 2847 0 
L 2847 2094 
Q 2847 2600 2669 2842 
Q 2491 3084 2119 3084 
Q 1678 3084 1418 2786 
Q 1159 2488 1159 1978 
L 1159 0 
L 581 0 
L 581 3500 
L 1159 3500 
L 1159 2956 
Q 1356 3278 1631 3431 
Q 1906 3584 2284 3584 
Q 2666 3584 2933 3390 
Q 3200 3197 3328 2828 
z
" transform="scale(0.015625)"/>
     </defs>
     <use xlink:href="#DejaVuSans-30"/>
     <use xlink:href="#DejaVuSans-20" transform="translate(63.623047 0)"/>
     <use xlink:href="#DejaVuSans-73" transform="translate(95.410156 0)"/>
     <use xlink:href="#DejaVuSans-69" transform="translate(147.509766 0)"/>
     <use xlink:href="#DejaVuSans-6d" transform="translate(175.292969 0)"/>
     <use xlink:href="#DejaVuSans-73" transform="translate(272.705078 0)"/>
    </g>
   </g>
  </g>
  <g id="axes_2">
   <g id="patch_5">
    <path d="M 190.903586 109.764541 
L 192.97757 109.764541 
L 192.97757 109.073213 
L 193.668898 109.073213 
L 193.668898 108.381885 
L 194.360226 108.381885 
L 194.360226 106.99923 
L 195.051553 106.99923 
L 195.051553 105.616574 
L 195.742881 105.616574 
L 195.742881 103.54259 
L 196.434209 103.54259 
L 196.434209 97.320639 
L 195.742881 97.320639 
L 195.742881 95.937984 
L 195.051553 95.937984 
L 195.051553 95.246656 
L 192.286242 95.246656 
L 192.286242 95.937984 
L 189.520931 95.937984 
L 189.520931 96.629311 
L 186.064291 96.629311 
L 186.064291 97.320639 
L 180.533668 97.320639 
L 180.533668 98.011967 
L 168.781094 98.011967 
L 168.781094 97.320639 
L 163.250471 97.320639 
L 163.250471 96.629311 
L 159.793832 96.629311 
L 159.793832 95.937984 
L 157.028521 95.937984 
L 157.028521 95.246656 
L 154.954537 95.246656 
L 154.954537 94.555328 
L 152.880553 94.555328 
L 152.880553 93.172672 
L 154.954537 93.172672 
L 154.954537 92.481344 
L 157.028521 92.481344 
L 157.028521 91.790016 
L 159.793832 91.790016 
L 159.793832 91.098689 
L 163.250471 91.098689 
L 163.250471 90.407361 
L 168.781094 90.407361 
L 168.781094 89.716033 
L 180.533668 89.716033 
L 180.533668 90.407361 
L 186.064291 90.407361 
L 186.064291 91.098689 
L 189.520931 91.098689 
L 189.520931 91.790016 
L 192.286242 91.790016 
L 192.286242 92.481344 
L 195.051553 92.481344 
L 195.051553 91.790016 
L 195.742881 91.790016 
L 195.742881 90.407361 
L 196.434209 90.407361 
L 196.434209 84.18541 
L 195.742881 84.18541 
L 195.742881 82.111426 
L 195.051553 82.111426 
L 195.051553 80.72877 
L 194.360226 80.72877 
L 194.360226 79.346115 
L 193.668898 79.346115 
L 193.668898 78.654787 
L 192.97757 78.654787 
L 192.97757 77.963459 
L 190.903586 77.963459 
L 190.903586 78.654787 
L 188.138275 78.654787 
L 188.138275 79.346115 
L 186.064291 79.346115 
L 186.064291 80.037443 
L 182.607652 80.037443 
L 182.607652 80.72877 
L 179.151012 80.72877 
L 179.151012 81.420098 
L 175.003045 81.420098 
L 175.003045 82.111426 
L 168.781094 82.111426 
L 168.781094 82.802754 
L 150.115242 82.802754 
L 150.115242 82.111426 
L 143.201963 82.111426 
L 143.201963 81.420098 
L 138.362668 81.420098 
L 138.362668 80.72877 
L 134.906029 80.72877 
L 134.906029 80.037443 
L 132.140717 80.037443 
L 132.140717 107.690557 
L 134.906029 107.690557 
L 134.906029 106.99923 
L 138.362668 106.99923 
L 138.362668 106.307902 
L 143.201963 106.307902 
L 143.201963 105.616574 
L 150.115242 105.616574 
L 150.115242 104.925246 
L 168.781094 104.925246 
L 168.781094 105.616574 
L 175.003045 105.616574 
L 175.003045 106.307902 
L 179.151012 106.307902 
L 179.151012 106.99923 
L 182.607652 106.99923 
L 182.607652 107.690557 
L 186.064291 107.690557 
L 186.064291 108.381885 
L 188.138275 108.381885 
L 188.138275 109.073213 
L 190.903586 109.073213 
L 190.903586 109.764541 
" clip-path="url(#p3f50bb5455)" style="fill: #ff7f0e; fill-opacity: 0.3; stroke: #ff7f0e; stroke-width: 2; stroke-linejoin: miter"/>
   </g>
   <g id="patch_6">
    <path d="M 121.770799 125.3328 
L 132.140717 125.3328 
L 132.140717 62.3952 
L 121.770799 62.3952 
z
" clip-path="url(#p3f50bb5455)" style="opacity: 0.1; stroke: #000000; stroke-linejoin: miter"/>
   </g>
   <g id="line2d_4">
    <path d="M 201.273504 111.147197 
L 201.273504 76.580803 
L 132.140717 76.580803 
L 132.140717 111.147197 
L 201.273504 111.147197 
" clip-path="url(#p3f50bb5455)" style="fill: none; stroke: #000000; stroke-width: 1.5; stroke-linecap: square"/>
   </g>
   <g id="line2d_5">
    <g clip-path="url(#p3f50bb5455)">
     <use xlink:href="#mc0760de979" x="208.186783" y="93.864" style="fill-opacity: 0; stroke: #000000; stroke-opacity: 0"/>
    </g>
   </g>
   <g id="line2d_6">
    <g clip-path="url(#p3f50bb5455)">
     <use xlink:href="#m696e5ae15a" x="201.273504" y="93.864" style="stroke: #000000"/>
    </g>
   </g>
   <g id="patch_7">
    <path d="M 211.643422 85.491608 
Q 211.643422 93.862959 211.643422 101.116277 
" style="fill: none; stroke: #000000; stroke-linecap: round"/>
    <path d="M 213.643422 97.116277 
L 211.643422 101.116277 
L 209.643422 97.116277 
z
" style="stroke: #000000; stroke-linecap: round"/>
   </g>
   <g id="text_2">
    <!-- $f_\text{obj} = $630.0 -->
    <g transform="translate(134.508791 22.770469) scale(0.11 -0.11)">
     <use xlink:href="#DejaVuSans-Oblique-66" transform="translate(0 0.015625)"/>
     <use xlink:href="#DejaVuSans-6f" transform="translate(35.205078 -16.390625) scale(0.7)"/>
     <use xlink:href="#DejaVuSans-62" transform="translate(78.032227 -16.390625) scale(0.7)"/>
     <use xlink:href="#DejaVuSans-6a" transform="translate(122.46582 -16.390625) scale(0.7)"/>
     <use xlink:href="#DejaVuSans-3d" transform="translate(164.130859 0.015625)"/>
     <use xlink:href="#DejaVuSans-36" transform="translate(267.402344 0.015625)"/>
     <use xlink:href="#DejaVuSans-33" transform="translate(331.025391 0.015625)"/>
     <use xlink:href="#DejaVuSans-30" transform="translate(394.648438 0.015625)"/>
     <use xlink:href="#DejaVuSans-2e" transform="translate(458.271484 0.015625)"/>
     <use xlink:href="#DejaVuSans-30" transform="translate(490.058594 0.015625)"/>
    </g>
    <!-- 19 evals -->
    <g transform="translate(141.828947 36.210406) scale(0.11 -0.11)">
     <defs>
      <path id="DejaVuSans-39" d="M 703 97 
L 703 672 
Q 941 559 1184 500 
Q 1428 441 1663 441 
Q 2288 441 2617 861 
Q 2947 1281 2994 2138 
Q 2813 1869 2534 1725 
Q 2256 1581 1919 1581 
Q 1219 1581 811 2004 
Q 403 2428 403 3163 
Q 403 3881 828 4315 
Q 1253 4750 1959 4750 
Q 2769 4750 3195 4129 
Q 3622 3509 3622 2328 
Q 3622 1225 3098 567 
Q 2575 -91 1691 -91 
Q 1453 -91 1209 -44 
Q 966 3 703 97 
z
M 1959 2075 
Q 2384 2075 2632 2365 
Q 2881 2656 2881 3163 
Q 2881 3666 2632 3958 
Q 2384 4250 1959 4250 
Q 1534 4250 1286 3958 
Q 1038 3666 1038 3163 
Q 1038 2656 1286 2365 
Q 1534 2075 1959 2075 
z
" transform="scale(0.015625)"/>
     </defs>
     <use xlink:href="#DejaVuSans-31"/>
     <use xlink:href="#DejaVuSans-39" transform="translate(63.623047 0)"/>
     <use xlink:href="#DejaVuSans-20" transform="translate(127.246094 0)"/>
     <use xlink:href="#DejaVuSans-65" transform="translate(159.033203 0)"/>
     <use xlink:href="#DejaVuSans-76" transform="translate(220.556641 0)"/>
     <use xlink:href="#DejaVuSans-61" transform="translate(279.736328 0)"/>
     <use xlink:href="#DejaVuSans-6c" transform="translate(341.015625 0)"/>
     <use xlink:href="#DejaVuSans-73" transform="translate(368.798828 0)"/>
    </g>
    <!-- 0 sims -->
    <g transform="translate(147.115822 48.528) scale(0.11 -0.11)">
     <use xlink:href="#DejaVuSans-30"/>
     <use xlink:href="#DejaVuSans-20" transform="translate(63.623047 0)"/>
     <use xlink:href="#DejaVuSans-73" transform="translate(95.410156 0)"/>
     <use xlink:href="#DejaVuSans-69" transform="translate(147.509766 0)"/>
     <use xlink:href="#DejaVuSans-6d" transform="translate(175.292969 0)"/>
     <use xlink:href="#DejaVuSans-73" transform="translate(272.705078 0)"/>
    </g>
   </g>
  </g>
  <g id="axes_3">
   <g id="patch_8">
    <path d="M 247.086652 77.272131 
L 247.086652 76.580803 
L 238.790717 76.580803 
L 238.790717 111.147197 
L 247.086652 111.147197 
L 247.086652 110.455869 
L 248.469307 110.455869 
L 248.469307 109.764541 
L 249.851963 109.764541 
L 249.851963 109.073213 
L 251.234619 109.073213 
L 251.234619 108.381885 
L 253.308603 108.381885 
L 253.308603 107.690557 
L 254.691258 107.690557 
L 254.691258 106.99923 
L 256.765242 106.99923 
L 256.765242 106.307902 
L 258.147898 106.307902 
L 258.147898 105.616574 
L 259.530553 105.616574 
L 259.530553 106.99923 
L 265.752504 106.99923 
L 265.752504 105.616574 
L 262.295865 105.616574 
L 262.295865 104.233918 
L 264.369848 104.233918 
L 264.369848 103.54259 
L 267.13516 103.54259 
L 267.13516 102.851262 
L 269.900471 102.851262 
L 269.900471 102.159934 
L 272.665783 102.159934 
L 272.665783 101.468607 
L 275.431094 101.468607 
L 275.431094 100.777279 
L 279.579062 100.777279 
L 279.579062 100.085951 
L 284.418357 100.085951 
L 284.418357 99.394623 
L 292.022963 99.394623 
L 292.022963 98.703295 
L 305.158193 98.703295 
L 305.158193 99.394623 
L 307.923504 99.394623 
L 307.923504 88.333377 
L 305.158193 88.333377 
L 305.158193 89.024705 
L 292.022963 89.024705 
L 292.022963 88.333377 
L 284.418357 88.333377 
L 284.418357 87.642049 
L 279.579062 87.642049 
L 279.579062 86.950721 
L 275.431094 86.950721 
L 275.431094 86.259393 
L 272.665783 86.259393 
L 272.665783 85.568066 
L 269.900471 85.568066 
L 269.900471 84.876738 
L 267.13516 84.876738 
L 267.13516 84.18541 
L 264.369848 84.18541 
L 264.369848 83.494082 
L 262.295865 83.494082 
L 262.295865 82.111426 
L 265.752504 82.111426 
L 265.752504 80.72877 
L 259.530553 80.72877 
L 259.530553 82.111426 
L 258.147898 82.111426 
L 258.147898 81.420098 
L 256.765242 81.420098 
L 256.765242 80.72877 
L 254.691258 80.72877 
L 254.691258 80.037443 
L 253.308603 80.037443 
L 253.308603 79.346115 
L 251.234619 79.346115 
L 251.234619 78.654787 
L 249.851963 78.654787 
L 249.851963 77.963459 
L 248.469307 77.963459 
L 248.469307 77.272131 
L 247.086652 77.272131 
M 260.221881 104.925246 
L 260.913209 104.925246 
L 260.913209 105.616574 
L 260.221881 105.616574 
L 260.221881 104.925246 
M 273.357111 95.246656 
L 273.357111 95.937984 
L 256.765242 95.937984 
L 256.765242 95.246656 
L 249.851963 95.246656 
L 249.851963 94.555328 
L 245.012668 94.555328 
L 245.012668 93.172672 
L 249.851963 93.172672 
L 249.851963 92.481344 
L 256.765242 92.481344 
L 256.765242 91.790016 
L 273.357111 91.790016 
L 273.357111 92.481344 
L 280.270389 92.481344 
L 280.270389 93.172672 
L 284.418357 93.172672 
L 284.418357 94.555328 
L 280.270389 94.555328 
L 280.270389 95.246656 
L 273.357111 95.246656 
M 260.913209 82.802754 
L 260.221881 82.802754 
L 260.221881 82.111426 
L 260.913209 82.111426 
L 260.913209 82.802754 
" clip-path="url(#p9fc07adf57)" style="fill: #1f77b4; fill-opacity: 0.3; stroke: #1f77b4; stroke-width: 2; stroke-linejoin: miter"/>
   </g>
   <g id="patch_9">
    <path d="M 228.420799 125.3328 
L 238.790717 125.3328 
L 238.790717 62.3952 
L 228.420799 62.3952 
z
" clip-path="url(#p9fc07adf57)" style="opacity: 0.1; stroke: #000000; stroke-linejoin: miter"/>
   </g>
   <g id="line2d_7">
    <path d="M 307.923504 111.147197 
L 307.923504 76.580803 
L 238.790717 76.580803 
L 238.790717 111.147197 
L 307.923504 111.147197 
" clip-path="url(#p9fc07adf57)" style="fill: none; stroke: #000000; stroke-width: 1.5; stroke-linecap: square"/>
   </g>
   <g id="line2d_8">
    <g clip-path="url(#p9fc07adf57)">
     <use xlink:href="#mc0760de979" x="314.836783" y="93.864" style="fill-opacity: 0; stroke: #000000; stroke-opacity: 0"/>
    </g>
   </g>
   <g id="line2d_9">
    <g clip-path="url(#p9fc07adf57)">
     <use xlink:href="#m696e5ae15a" x="307.923504" y="93.864" style="stroke: #000000"/>
    </g>
   </g>
   <g id="patch_10">
    <path d="M 318.293422 85.491608 
Q 318.293422 93.862959 318.293422 101.116277 
" style="fill: none; stroke: #000000; stroke-linecap: round"/>
    <path d="M 320.293422 97.116277 
L 318.293422 101.116277 
L 316.293422 97.116277 
z
" style="stroke: #000000; stroke-linecap: round"/>
   </g>
   <g id="text_3">
    <!-- $f_\text{obj} = $0.2048 -->
    <g transform="translate(237.968791 22.770469) scale(0.11 -0.11)">
     <defs>
      <path id="DejaVuSans-32" d="M 1228 531 
L 3431 531 
L 3431 0 
L 469 0 
L 469 531 
Q 828 903 1448 1529 
Q 2069 2156 2228 2338 
Q 2531 2678 2651 2914 
Q 2772 3150 2772 3378 
Q 2772 3750 2511 3984 
Q 2250 4219 1831 4219 
Q 1534 4219 1204 4116 
Q 875 4013 500 3803 
L 500 4441 
Q 881 4594 1212 4672 
Q 1544 4750 1819 4750 
Q 2544 4750 2975 4387 
Q 3406 4025 3406 3419 
Q 3406 3131 3298 2873 
Q 3191 2616 2906 2266 
Q 2828 2175 2409 1742 
Q 1991 1309 1228 531 
z
" transform="scale(0.015625)"/>
     </defs>
     <use xlink:href="#DejaVuSans-Oblique-66" transform="translate(0 0.015625)"/>
     <use xlink:href="#DejaVuSans-6f" transform="translate(35.205078 -16.390625) scale(0.7)"/>
     <use xlink:href="#DejaVuSans-62" transform="translate(78.032227 -16.390625) scale(0.7)"/>
     <use xlink:href="#DejaVuSans-6a" transform="translate(122.46582 -16.390625) scale(0.7)"/>
     <use xlink:href="#DejaVuSans-3d" transform="translate(164.130859 0.015625)"/>
     <use xlink:href="#DejaVuSans-30" transform="translate(267.402344 0.015625)"/>
     <use xlink:href="#DejaVuSans-2e" transform="translate(331.025391 0.015625)"/>
     <use xlink:href="#DejaVuSans-32" transform="translate(357.3125 0.015625)"/>
     <use xlink:href="#DejaVuSans-30" transform="translate(420.935547 0.015625)"/>
     <use xlink:href="#DejaVuSans-34" transform="translate(484.558594 0.015625)"/>
     <use xlink:href="#DejaVuSans-38" transform="translate(548.181641 0.015625)"/>
    </g>
    <!-- 56 evals -->
    <g transform="translate(248.478947 36.210406) scale(0.11 -0.11)">
     <defs>
      <path id="DejaVuSans-35" d="M 691 4666 
L 3169 4666 
L 3169 4134 
L 1269 4134 
L 1269 2991 
Q 1406 3038 1543 3061 
Q 1681 3084 1819 3084 
Q 2600 3084 3056 2656 
Q 3513 2228 3513 1497 
Q 3513 744 3044 326 
Q 2575 -91 1722 -91 
Q 1428 -91 1123 -41 
Q 819 9 494 109 
L 494 744 
Q 775 591 1075 516 
Q 1375 441 1709 441 
Q 2250 441 2565 725 
Q 2881 1009 2881 1497 
Q 2881 1984 2565 2268 
Q 2250 2553 1709 2553 
Q 1456 2553 1204 2497 
Q 953 2441 691 2322 
L 691 4666 
z
" transform="scale(0.015625)"/>
     </defs>
     <use xlink:href="#DejaVuSans-35"/>
     <use xlink:href="#DejaVuSans-36" transform="translate(63.623047 0)"/>
     <use xlink:href="#DejaVuSans-20" transform="translate(127.246094 0)"/>
     <use xlink:href="#DejaVuSans-65" transform="translate(159.033203 0)"/>
     <use xlink:href="#DejaVuSans-76" transform="translate(220.556641 0)"/>
     <use xlink:href="#DejaVuSans-61" transform="translate(279.736328 0)"/>
     <use xlink:href="#DejaVuSans-6c" transform="translate(341.015625 0)"/>
     <use xlink:href="#DejaVuSans-73" transform="translate(368.798828 0)"/>
    </g>
    <!-- 1 sims -->
    <g transform="translate(253.765822 48.528) scale(0.11 -0.11)">
     <use xlink:href="#DejaVuSans-31"/>
     <use xlink:href="#DejaVuSans-20" transform="translate(63.623047 0)"/>
     <use xlink:href="#DejaVuSans-73" transform="translate(95.410156 0)"/>
     <use xlink:href="#DejaVuSans-69" transform="translate(147.509766 0)"/>
     <use xlink:href="#DejaVuSans-6d" transform="translate(175.292969 0)"/>
     <use xlink:href="#DejaVuSans-73" transform="translate(272.705078 0)"/>
    </g>
   </g>
  </g>
  <g id="axes_4">
   <g id="patch_11">
    <path d="M 362.723914 101.468607 
L 362.723914 102.159934 
L 355.810635 102.159934 
L 355.810635 102.851262 
L 345.440717 102.851262 
L 345.440717 111.147197 
L 362.723914 111.147197 
L 362.723914 110.455869 
L 364.10657 110.455869 
L 364.10657 109.764541 
L 365.489225 109.764541 
L 365.489225 109.073213 
L 367.563209 109.073213 
L 367.563209 108.381885 
L 369.637193 108.381885 
L 369.637193 107.690557 
L 371.019848 107.690557 
L 371.019848 106.99923 
L 373.093832 106.99923 
L 373.093832 106.307902 
L 375.167816 106.307902 
L 375.167816 105.616574 
L 377.933127 105.616574 
L 377.933127 104.925246 
L 380.007111 104.925246 
L 380.007111 104.233918 
L 382.772422 104.233918 
L 382.772422 105.616574 
L 383.46375 105.616574 
L 383.46375 106.307902 
L 384.155078 106.307902 
L 384.155078 106.99923 
L 384.846406 106.99923 
L 384.846406 106.307902 
L 385.537734 106.307902 
L 385.537734 105.616574 
L 386.229062 105.616574 
L 386.229062 104.233918 
L 386.920389 104.233918 
L 386.920389 102.851262 
L 388.994373 102.851262 
L 388.994373 102.159934 
L 392.451012 102.159934 
L 392.451012 101.468607 
L 397.290308 101.468607 
L 397.290308 100.777279 
L 404.203586 100.777279 
L 404.203586 100.085951 
L 406.968898 100.085951 
L 406.968898 100.777279 
L 408.351553 100.777279 
L 408.351553 101.468607 
L 409.734209 101.468607 
L 409.734209 102.159934 
L 411.116865 102.159934 
L 411.116865 102.851262 
L 411.808193 102.851262 
L 411.808193 103.54259 
L 413.190849 103.54259 
L 413.190849 104.233918 
L 413.882176 104.233918 
L 413.882176 103.54259 
L 414.573504 103.54259 
L 414.573504 84.18541 
L 413.882176 84.18541 
L 413.882176 83.494082 
L 413.190849 83.494082 
L 413.190849 84.18541 
L 411.808193 84.18541 
L 411.808193 84.876738 
L 411.116865 84.876738 
L 411.116865 85.568066 
L 409.734209 85.568066 
L 409.734209 86.259393 
L 408.351553 86.259393 
L 408.351553 86.950721 
L 406.968898 86.950721 
L 406.968898 87.642049 
L 404.203586 87.642049 
L 404.203586 86.950721 
L 397.290308 86.950721 
L 397.290308 86.259393 
L 392.451012 86.259393 
L 392.451012 85.568066 
L 388.994373 85.568066 
L 388.994373 84.876738 
L 386.920389 84.876738 
L 386.920389 83.494082 
L 386.229062 83.494082 
L 386.229062 82.111426 
L 385.537734 82.111426 
L 385.537734 81.420098 
L 384.846406 81.420098 
L 384.846406 80.72877 
L 384.155078 80.72877 
L 384.155078 81.420098 
L 383.46375 81.420098 
L 383.46375 82.111426 
L 382.772422 82.111426 
L 382.772422 83.494082 
L 380.007111 83.494082 
L 380.007111 82.802754 
L 377.933127 82.802754 
L 377.933127 82.111426 
L 375.167816 82.111426 
L 375.167816 81.420098 
L 373.093832 81.420098 
L 373.093832 80.72877 
L 371.019848 80.72877 
L 371.019848 80.037443 
L 369.637193 80.037443 
L 369.637193 79.346115 
L 367.563209 79.346115 
L 367.563209 78.654787 
L 365.489225 78.654787 
L 365.489225 77.963459 
L 364.10657 77.963459 
L 364.10657 77.272131 
L 362.723914 77.272131 
L 362.723914 76.580803 
L 345.440717 76.580803 
L 345.440717 84.876738 
L 355.810635 84.876738 
L 355.810635 85.568066 
L 362.723914 85.568066 
L 362.723914 86.259393 
L 364.797898 86.259393 
L 364.797898 86.950721 
L 366.871881 86.950721 
L 366.871881 87.642049 
L 368.254537 87.642049 
L 368.254537 88.333377 
L 369.637193 88.333377 
L 369.637193 89.024705 
L 370.328521 89.024705 
L 370.328521 89.716033 
L 371.711176 89.716033 
L 371.711176 90.407361 
L 372.402504 90.407361 
L 372.402504 91.098689 
L 373.093832 91.098689 
L 373.093832 91.790016 
L 373.78516 91.790016 
L 373.78516 92.481344 
L 374.476488 92.481344 
L 374.476488 93.172672 
L 375.167816 93.172672 
L 375.167816 94.555328 
L 374.476488 94.555328 
L 374.476488 95.246656 
L 373.78516 95.246656 
L 373.78516 95.937984 
L 373.093832 95.937984 
L 373.093832 96.629311 
L 372.402504 96.629311 
L 372.402504 97.320639 
L 371.711176 97.320639 
L 371.711176 98.011967 
L 370.328521 98.011967 
L 370.328521 98.703295 
L 369.637193 98.703295 
L 369.637193 99.394623 
L 368.254537 99.394623 
L 368.254537 100.085951 
L 366.871881 100.085951 
L 366.871881 100.777279 
L 364.797898 100.777279 
L 364.797898 101.468607 
L 362.723914 101.468607 
M 375.167816 100.085951 
L 374.476488 100.085951 
L 374.476488 99.394623 
L 375.167816 99.394623 
L 375.167816 100.085951 
M 377.933127 99.394623 
L 375.167816 99.394623 
L 375.167816 98.703295 
L 376.550471 98.703295 
L 376.550471 98.011967 
L 377.241799 98.011967 
L 377.241799 97.320639 
L 378.624455 97.320639 
L 378.624455 98.011967 
L 379.315783 98.011967 
L 379.315783 98.703295 
L 377.933127 98.703295 
L 377.933127 99.394623 
M 387.611717 96.629311 
L 385.537734 96.629311 
L 385.537734 97.320639 
L 384.155078 97.320639 
L 384.155078 96.629311 
L 383.46375 96.629311 
L 383.46375 95.937984 
L 382.772422 95.937984 
L 382.772422 95.246656 
L 382.081094 95.246656 
L 382.081094 94.555328 
L 381.389767 94.555328 
L 381.389767 93.172672 
L 382.081094 93.172672 
L 382.081094 92.481344 
L 382.772422 92.481344 
L 382.772422 91.790016 
L 383.46375 91.790016 
L 383.46375 91.098689 
L 384.155078 91.098689 
L 384.155078 90.407361 
L 385.537734 90.407361 
L 385.537734 91.098689 
L 387.611717 91.098689 
L 387.611717 91.790016 
L 388.994373 91.790016 
L 388.994373 92.481344 
L 391.068357 92.481344 
L 391.068357 93.172672 
L 392.451012 93.172672 
L 392.451012 94.555328 
L 391.068357 94.555328 
L 391.068357 95.246656 
L 388.994373 95.246656 
L 388.994373 95.937984 
L 387.611717 95.937984 
L 387.611717 96.629311 
M 378.624455 89.716033 
L 378.624455 90.407361 
L 377.241799 90.407361 
L 377.241799 89.716033 
L 376.550471 89.716033 
L 376.550471 89.024705 
L 375.167816 89.024705 
L 375.167816 88.333377 
L 377.933127 88.333377 
L 377.933127 89.024705 
L 379.315783 89.024705 
L 379.315783 89.716033 
L 378.624455 89.716033 
M 375.167816 87.642049 
L 375.167816 88.333377 
L 374.476488 88.333377 
L 374.476488 87.642049 
L 375.167816 87.642049 
" clip-path="url(#peb0513afd5)" style="fill: #1f77b4; fill-opacity: 0.3; stroke: #1f77b4; stroke-width: 2; stroke-linejoin: miter"/>
   </g>
   <g id="patch_12">
    <path d="M 335.070799 125.3328 
L 345.440717 125.3328 
L 345.440717 62.3952 
L 335.070799 62.3952 
z
" clip-path="url(#peb0513afd5)" style="opacity: 0.1; stroke: #000000; stroke-linejoin: miter"/>
   </g>
   <g id="line2d_10">
    <path d="M 414.573504 111.147197 
L 414.573504 76.580803 
L 345.440717 76.580803 
L 345.440717 111.147197 
L 414.573504 111.147197 
" clip-path="url(#peb0513afd5)" style="fill: none; stroke: #000000; stroke-width: 1.5; stroke-linecap: square"/>
   </g>
   <g id="line2d_11">
    <g clip-path="url(#peb0513afd5)">
     <use xlink:href="#mc0760de979" x="421.486783" y="93.864" style="fill-opacity: 0; stroke: #000000; stroke-opacity: 0"/>
    </g>
   </g>
   <g id="line2d_12">
    <g clip-path="url(#peb0513afd5)">
     <use xlink:href="#m696e5ae15a" x="414.573504" y="93.864" style="stroke: #000000"/>
    </g>
   </g>
   <g id="patch_13">
    <path d="M 424.943422 85.491608 
Q 424.943422 93.862959 424.943422 101.116277 
" style="fill: none; stroke: #000000; stroke-linecap: round"/>
    <path d="M 426.943422 97.116277 
L 424.943422 101.116277 
L 422.943422 97.116277 
z
" style="stroke: #000000; stroke-linecap: round"/>
   </g>
   <g id="text_4">
    <!-- $f_\text{obj} = $0.1038 -->
    <g transform="translate(344.288791 22.770469) scale(0.11 -0.11)">
     <use xlink:href="#DejaVuSans-Oblique-66" transform="translate(0 0.015625)"/>
     <use xlink:href="#DejaVuSans-6f" transform="translate(35.205078 -16.390625) scale(0.7)"/>
     <use xlink:href="#DejaVuSans-62" transform="translate(78.032227 -16.390625) scale(0.7)"/>
     <use xlink:href="#DejaVuSans-6a" transform="translate(122.46582 -16.390625) scale(0.7)"/>
     <use xlink:href="#DejaVuSans-3d" transform="translate(164.130859 0.015625)"/>
     <use xlink:href="#DejaVuSans-30" transform="translate(267.402344 0.015625)"/>
     <use xlink:href="#DejaVuSans-2e" transform="translate(331.025391 0.015625)"/>
     <use xlink:href="#DejaVuSans-31" transform="translate(362.8125 0.015625)"/>
     <use xlink:href="#DejaVuSans-30" transform="translate(426.435547 0.015625)"/>
     <use xlink:href="#DejaVuSans-33" transform="translate(490.058594 0.015625)"/>
     <use xlink:href="#DejaVuSans-38" transform="translate(553.681641 0.015625)"/>
    </g>
    <!-- 396 evals -->
    <g transform="translate(351.629572 36.210406) scale(0.11 -0.11)">
     <use xlink:href="#DejaVuSans-33"/>
     <use xlink:href="#DejaVuSans-39" transform="translate(63.623047 0)"/>
     <use xlink:href="#DejaVuSans-36" transform="translate(127.246094 0)"/>
     <use xlink:href="#DejaVuSans-20" transform="translate(190.869141 0)"/>
     <use xlink:href="#DejaVuSans-65" transform="translate(222.65625 0)"/>
     <use xlink:href="#DejaVuSans-76" transform="translate(284.179688 0)"/>
     <use xlink:href="#DejaVuSans-61" transform="translate(343.359375 0)"/>
     <use xlink:href="#DejaVuSans-6c" transform="translate(404.638672 0)"/>
     <use xlink:href="#DejaVuSans-73" transform="translate(432.421875 0)"/>
    </g>
    <!-- 100 sims -->
    <g transform="translate(353.417072 48.528) scale(0.11 -0.11)">
     <use xlink:href="#DejaVuSans-31"/>
     <use xlink:href="#DejaVuSans-30" transform="translate(63.623047 0)"/>
     <use xlink:href="#DejaVuSans-30" transform="translate(127.246094 0)"/>
     <use xlink:href="#DejaVuSans-20" transform="translate(190.869141 0)"/>
     <use xlink:href="#DejaVuSans-73" transform="translate(222.65625 0)"/>
     <use xlink:href="#DejaVuSans-69" transform="translate(274.755859 0)"/>
     <use xlink:href="#DejaVuSans-6d" transform="translate(302.539062 0)"/>
     <use xlink:href="#DejaVuSans-73" transform="translate(399.951172 0)"/>
    </g>
   </g>
  </g>
  <g id="axes_5">
   <g id="patch_14">
    <path d="M 452.782045 99.394623 
L 452.782045 98.703295 
L 452.090717 98.703295 
L 452.090717 111.147197 
L 475.595865 111.147197 
L 475.595865 110.455869 
L 479.052504 110.455869 
L 479.052504 109.764541 
L 482.509144 109.764541 
L 482.509144 109.073213 
L 485.965783 109.073213 
L 485.965783 108.381885 
L 487.348439 108.381885 
L 487.348439 109.073213 
L 488.731094 109.073213 
L 488.731094 108.381885 
L 489.422422 108.381885 
L 489.422422 107.690557 
L 492.187734 107.690557 
L 492.187734 106.99923 
L 495.644373 106.99923 
L 495.644373 106.307902 
L 499.101012 106.307902 
L 499.101012 105.616574 
L 502.557652 105.616574 
L 502.557652 104.925246 
L 506.014291 104.925246 
L 506.014291 104.233918 
L 509.470931 104.233918 
L 509.470931 103.54259 
L 514.310226 103.54259 
L 514.310226 102.851262 
L 520.532176 102.851262 
L 520.532176 102.159934 
L 521.223504 102.159934 
L 521.223504 85.568066 
L 520.532176 85.568066 
L 520.532176 84.876738 
L 514.310226 84.876738 
L 514.310226 84.18541 
L 509.470931 84.18541 
L 509.470931 83.494082 
L 506.014291 83.494082 
L 506.014291 82.802754 
L 502.557652 82.802754 
L 502.557652 82.111426 
L 499.101012 82.111426 
L 499.101012 81.420098 
L 495.644373 81.420098 
L 495.644373 80.72877 
L 492.187734 80.72877 
L 492.187734 80.037443 
L 489.422422 80.037443 
L 489.422422 79.346115 
L 488.731094 79.346115 
L 488.731094 78.654787 
L 487.348439 78.654787 
L 487.348439 79.346115 
L 485.965783 79.346115 
L 485.965783 78.654787 
L 482.509144 78.654787 
L 482.509144 77.963459 
L 479.052504 77.963459 
L 479.052504 77.272131 
L 475.595865 77.272131 
L 475.595865 76.580803 
L 452.090717 76.580803 
L 452.090717 89.024705 
L 452.782045 89.024705 
L 452.782045 88.333377 
L 454.164701 88.333377 
L 454.164701 87.642049 
L 456.238684 87.642049 
L 456.238684 86.950721 
L 457.62134 86.950721 
L 457.62134 86.259393 
L 459.695324 86.259393 
L 459.695324 85.568066 
L 461.769307 85.568066 
L 461.769307 84.876738 
L 463.843291 84.876738 
L 463.843291 84.18541 
L 465.225947 84.18541 
L 465.225947 84.876738 
L 465.917275 84.876738 
L 465.917275 85.568066 
L 466.608603 85.568066 
L 466.608603 86.259393 
L 467.29993 86.259393 
L 467.29993 86.950721 
L 467.991258 86.950721 
L 467.991258 87.642049 
L 468.682586 87.642049 
L 468.682586 88.333377 
L 469.373914 88.333377 
L 469.373914 89.024705 
L 470.065242 89.024705 
L 470.065242 89.716033 
L 470.75657 89.716033 
L 470.75657 90.407361 
L 471.447898 90.407361 
L 471.447898 91.098689 
L 472.139225 91.098689 
L 472.139225 91.790016 
L 472.830553 91.790016 
L 472.830553 92.481344 
L 473.521881 92.481344 
L 473.521881 95.246656 
L 472.830553 95.246656 
L 472.830553 95.937984 
L 472.139225 95.937984 
L 472.139225 96.629311 
L 471.447898 96.629311 
L 471.447898 97.320639 
L 470.75657 97.320639 
L 470.75657 98.011967 
L 470.065242 98.011967 
L 470.065242 98.703295 
L 469.373914 98.703295 
L 469.373914 99.394623 
L 468.682586 99.394623 
L 468.682586 100.085951 
L 467.991258 100.085951 
L 467.991258 100.777279 
L 467.29993 100.777279 
L 467.29993 101.468607 
L 466.608603 101.468607 
L 466.608603 102.159934 
L 465.917275 102.159934 
L 465.917275 102.851262 
L 465.225947 102.851262 
L 465.225947 103.54259 
L 463.843291 103.54259 
L 463.843291 102.851262 
L 461.769307 102.851262 
L 461.769307 102.159934 
L 459.695324 102.159934 
L 459.695324 101.468607 
L 457.62134 101.468607 
L 457.62134 100.777279 
L 456.238684 100.777279 
L 456.238684 100.085951 
L 454.164701 100.085951 
L 454.164701 99.394623 
L 452.782045 99.394623 
M 483.200471 104.233918 
L 483.891799 104.233918 
L 483.891799 104.925246 
L 470.75657 104.925246 
L 470.75657 104.233918 
L 468.682586 104.233918 
L 468.682586 103.54259 
L 469.373914 103.54259 
L 469.373914 102.851262 
L 470.065242 102.851262 
L 470.065242 101.468607 
L 470.75657 101.468607 
L 470.75657 100.777279 
L 471.447898 100.777279 
L 471.447898 100.085951 
L 472.139225 100.085951 
L 472.139225 99.394623 
L 472.830553 99.394623 
L 472.830553 98.703295 
L 473.521881 98.703295 
L 473.521881 98.011967 
L 474.213209 98.011967 
L 474.213209 97.320639 
L 474.904537 97.320639 
L 474.904537 96.629311 
L 475.595865 96.629311 
L 475.595865 95.937984 
L 476.287193 95.937984 
L 476.287193 96.629311 
L 476.978521 96.629311 
L 476.978521 97.320639 
L 477.669848 97.320639 
L 477.669848 98.011967 
L 478.361176 98.011967 
L 478.361176 98.703295 
L 479.052504 98.703295 
L 479.052504 100.085951 
L 479.743832 100.085951 
L 479.743832 100.777279 
L 480.43516 100.777279 
L 480.43516 101.468607 
L 481.126488 101.468607 
L 481.126488 102.159934 
L 481.817816 102.159934 
L 481.817816 102.851262 
L 482.509144 102.851262 
L 482.509144 103.54259 
L 483.200471 103.54259 
L 483.200471 104.233918 
M 487.348439 103.54259 
L 487.348439 104.233918 
L 486.657111 104.233918 
L 486.657111 103.54259 
L 485.965783 103.54259 
L 485.965783 102.851262 
L 485.274455 102.851262 
L 485.274455 101.468607 
L 484.583127 101.468607 
L 484.583127 100.777279 
L 483.891799 100.777279 
L 483.891799 100.085951 
L 483.200471 100.085951 
L 483.200471 99.394623 
L 482.509144 99.394623 
L 482.509144 98.703295 
L 481.817816 98.703295 
L 481.817816 98.011967 
L 481.126488 98.011967 
L 481.126488 97.320639 
L 480.43516 97.320639 
L 480.43516 96.629311 
L 479.743832 96.629311 
L 479.743832 95.937984 
L 479.052504 95.937984 
L 479.052504 95.246656 
L 478.361176 95.246656 
L 478.361176 94.555328 
L 477.669848 94.555328 
L 477.669848 93.172672 
L 478.361176 93.172672 
L 478.361176 92.481344 
L 479.052504 92.481344 
L 479.052504 91.790016 
L 479.743832 91.790016 
L 479.743832 91.098689 
L 480.43516 91.098689 
L 480.43516 90.407361 
L 481.126488 90.407361 
L 481.126488 89.716033 
L 481.817816 89.716033 
L 481.817816 89.024705 
L 482.509144 89.024705 
L 482.509144 88.333377 
L 483.200471 88.333377 
L 483.200471 87.642049 
L 483.891799 87.642049 
L 483.891799 86.950721 
L 484.583127 86.950721 
L 484.583127 86.259393 
L 485.274455 86.259393 
L 485.274455 84.876738 
L 485.965783 84.876738 
L 485.965783 84.18541 
L 486.657111 84.18541 
L 486.657111 83.494082 
L 487.348439 83.494082 
L 487.348439 84.18541 
L 490.11375 84.18541 
L 490.11375 84.876738 
L 492.879062 84.876738 
L 492.879062 85.568066 
L 494.261717 85.568066 
L 494.261717 86.259393 
L 496.335701 86.259393 
L 496.335701 86.950721 
L 497.718357 86.950721 
L 497.718357 87.642049 
L 499.79234 87.642049 
L 499.79234 88.333377 
L 501.174996 88.333377 
L 501.174996 89.024705 
L 502.557652 89.024705 
L 502.557652 89.716033 
L 503.940308 89.716033 
L 503.940308 90.407361 
L 504.631635 90.407361 
L 504.631635 91.098689 
L 506.014291 91.098689 
L 506.014291 91.790016 
L 507.396947 91.790016 
L 507.396947 92.481344 
L 508.779603 92.481344 
L 508.779603 93.172672 
L 509.470931 93.172672 
L 509.470931 94.555328 
L 508.779603 94.555328 
L 508.779603 95.246656 
L 507.396947 95.246656 
L 507.396947 95.937984 
L 506.014291 95.937984 
L 506.014291 96.629311 
L 504.631635 96.629311 
L 504.631635 97.320639 
L 503.940308 97.320639 
L 503.940308 98.011967 
L 502.557652 98.011967 
L 502.557652 98.703295 
L 501.174996 98.703295 
L 501.174996 99.394623 
L 499.79234 99.394623 
L 499.79234 100.085951 
L 497.718357 100.085951 
L 497.718357 100.777279 
L 496.335701 100.777279 
L 496.335701 101.468607 
L 494.261717 101.468607 
L 494.261717 102.159934 
L 492.879062 102.159934 
L 492.879062 102.851262 
L 490.11375 102.851262 
L 490.11375 103.54259 
L 487.348439 103.54259 
M 476.287193 91.790016 
L 475.595865 91.790016 
L 475.595865 91.098689 
L 474.904537 91.098689 
L 474.904537 90.407361 
L 474.213209 90.407361 
L 474.213209 89.716033 
L 473.521881 89.716033 
L 473.521881 89.024705 
L 472.830553 89.024705 
L 472.830553 88.333377 
L 472.139225 88.333377 
L 472.139225 87.642049 
L 471.447898 87.642049 
L 471.447898 86.950721 
L 470.75657 86.950721 
L 470.75657 86.259393 
L 470.065242 86.259393 
L 470.065242 84.876738 
L 469.373914 84.876738 
L 469.373914 84.18541 
L 468.682586 84.18541 
L 468.682586 83.494082 
L 470.75657 83.494082 
L 470.75657 82.802754 
L 483.891799 82.802754 
L 483.891799 83.494082 
L 483.200471 83.494082 
L 483.200471 84.18541 
L 482.509144 84.18541 
L 482.509144 84.876738 
L 481.817816 84.876738 
L 481.817816 85.568066 
L 481.126488 85.568066 
L 481.126488 86.259393 
L 480.43516 86.259393 
L 480.43516 86.950721 
L 479.743832 86.950721 
L 479.743832 87.642049 
L 479.052504 87.642049 
L 479.052504 89.024705 
L 478.361176 89.024705 
L 478.361176 89.716033 
L 477.669848 89.716033 
L 477.669848 90.407361 
L 476.978521 90.407361 
L 476.978521 91.098689 
L 476.287193 91.098689 
L 476.287193 91.790016 
" clip-path="url(#p88c968d454)" style="fill: #1f77b4; fill-opacity: 0.3; stroke: #1f77b4; stroke-width: 2; stroke-linejoin: miter"/>
   </g>
   <g id="patch_15">
    <path d="M 441.720799 125.3328 
L 452.090717 125.3328 
L 452.090717 62.3952 
L 441.720799 62.3952 
z
" clip-path="url(#p88c968d454)" style="opacity: 0.1; stroke: #000000; stroke-linejoin: miter"/>
   </g>
   <g id="line2d_13">
    <path d="M 521.223504 111.147197 
L 521.223504 76.580803 
L 452.090717 76.580803 
L 452.090717 111.147197 
L 521.223504 111.147197 
" clip-path="url(#p88c968d454)" style="fill: none; stroke: #000000; stroke-width: 1.5; stroke-linecap: square"/>
   </g>
   <g id="line2d_14">
    <g clip-path="url(#p88c968d454)">
     <use xlink:href="#mc0760de979" x="528.136783" y="93.864" style="fill-opacity: 0; stroke: #000000; stroke-opacity: 0"/>
    </g>
   </g>
   <g id="line2d_15">
    <g clip-path="url(#p88c968d454)">
     <use xlink:href="#m696e5ae15a" x="521.223504" y="93.864" style="stroke: #000000"/>
    </g>
   </g>
   <g id="patch_16">
    <path d="M 531.593422 85.491608 
Q 531.593422 93.862959 531.593422 101.116277 
" style="fill: none; stroke: #000000; stroke-linecap: round"/>
    <path d="M 533.593422 97.116277 
L 531.593422 101.116277 
L 529.593422 97.116277 
z
" style="stroke: #000000; stroke-linecap: round"/>
   </g>
   <g id="text_5">
    <!-- $f_\text{obj} = $0.0884 -->
    <g transform="translate(450.938791 22.770469) scale(0.11 -0.11)">
     <use xlink:href="#DejaVuSans-Oblique-66" transform="translate(0 0.015625)"/>
     <use xlink:href="#DejaVuSans-6f" transform="translate(35.205078 -16.390625) scale(0.7)"/>
     <use xlink:href="#DejaVuSans-62" transform="translate(78.032227 -16.390625) scale(0.7)"/>
     <use xlink:href="#DejaVuSans-6a" transform="translate(122.46582 -16.390625) scale(0.7)"/>
     <use xlink:href="#DejaVuSans-3d" transform="translate(164.130859 0.015625)"/>
     <use xlink:href="#DejaVuSans-30" transform="translate(267.402344 0.015625)"/>
     <use xlink:href="#DejaVuSans-2e" transform="translate(331.025391 0.015625)"/>
     <use xlink:href="#DejaVuSans-30" transform="translate(362.8125 0.015625)"/>
     <use xlink:href="#DejaVuSans-38" transform="translate(426.435547 0.015625)"/>
     <use xlink:href="#DejaVuSans-38" transform="translate(490.058594 0.015625)"/>
     <use xlink:href="#DejaVuSans-34" transform="translate(553.681641 0.015625)"/>
    </g>
    <!-- 580 evals -->
    <g transform="translate(458.279572 36.210406) scale(0.11 -0.11)">
     <use xlink:href="#DejaVuSans-35"/>
     <use xlink:href="#DejaVuSans-38" transform="translate(63.623047 0)"/>
     <use xlink:href="#DejaVuSans-30" transform="translate(127.246094 0)"/>
     <use xlink:href="#DejaVuSans-20" transform="translate(190.869141 0)"/>
     <use xlink:href="#DejaVuSans-65" transform="translate(222.65625 0)"/>
     <use xlink:href="#DejaVuSans-76" transform="translate(284.179688 0)"/>
     <use xlink:href="#DejaVuSans-61" transform="translate(343.359375 0)"/>
     <use xlink:href="#DejaVuSans-6c" transform="translate(404.638672 0)"/>
     <use xlink:href="#DejaVuSans-73" transform="translate(432.421875 0)"/>
    </g>
    <!-- 200 sims -->
    <g transform="translate(460.067072 48.528) scale(0.11 -0.11)">
     <use xlink:href="#DejaVuSans-32"/>
     <use xlink:href="#DejaVuSans-30" transform="translate(63.623047 0)"/>
     <use xlink:href="#DejaVuSans-30" transform="translate(127.246094 0)"/>
     <use xlink:href="#DejaVuSans-20" transform="translate(190.869141 0)"/>
     <use xlink:href="#DejaVuSans-73" transform="translate(222.65625 0)"/>
     <use xlink:href="#DejaVuSans-69" transform="translate(274.755859 0)"/>
     <use xlink:href="#DejaVuSans-6d" transform="translate(302.539062 0)"/>
     <use xlink:href="#DejaVuSans-73" transform="translate(399.951172 0)"/>
    </g>
   </g>
  </g>
  <g id="axes_6">
   <g id="patch_17">
    <path d="M 559.432045 103.54259 
L 559.432045 102.851262 
L 558.740717 102.851262 
L 558.740717 111.147197 
L 588.467816 111.147197 
L 588.467816 110.455869 
L 590.541799 110.455869 
L 590.541799 109.764541 
L 591.924455 109.764541 
L 591.924455 109.073213 
L 593.998439 109.073213 
L 593.998439 109.764541 
L 594.689767 109.764541 
L 594.689767 108.381885 
L 595.381094 108.381885 
L 595.381094 107.690557 
L 597.455078 107.690557 
L 597.455078 106.99923 
L 599.529062 106.99923 
L 599.529062 106.307902 
L 601.603045 106.307902 
L 601.603045 105.616574 
L 604.368357 105.616574 
L 604.368357 104.925246 
L 606.44234 104.925246 
L 606.44234 104.233918 
L 609.207652 104.233918 
L 609.207652 103.54259 
L 612.664291 103.54259 
L 612.664291 102.851262 
L 615.429603 102.851262 
L 615.429603 102.159934 
L 619.57757 102.159934 
L 619.57757 101.468607 
L 623.725537 101.468607 
L 623.725537 100.777279 
L 625.799521 100.777279 
L 625.799521 101.468607 
L 627.182176 101.468607 
L 627.182176 102.159934 
L 627.873504 102.159934 
L 627.873504 85.568066 
L 627.182176 85.568066 
L 627.182176 86.259393 
L 625.799521 86.259393 
L 625.799521 86.950721 
L 623.725537 86.950721 
L 623.725537 86.259393 
L 619.57757 86.259393 
L 619.57757 85.568066 
L 615.429603 85.568066 
L 615.429603 84.876738 
L 612.664291 84.876738 
L 612.664291 84.18541 
L 609.207652 84.18541 
L 609.207652 83.494082 
L 606.44234 83.494082 
L 606.44234 82.802754 
L 604.368357 82.802754 
L 604.368357 82.111426 
L 601.603045 82.111426 
L 601.603045 81.420098 
L 599.529062 81.420098 
L 599.529062 80.72877 
L 597.455078 80.72877 
L 597.455078 80.037443 
L 595.381094 80.037443 
L 595.381094 79.346115 
L 594.689767 79.346115 
L 594.689767 77.963459 
L 593.998439 77.963459 
L 593.998439 78.654787 
L 591.924455 78.654787 
L 591.924455 77.963459 
L 590.541799 77.963459 
L 590.541799 77.272131 
L 588.467816 77.272131 
L 588.467816 76.580803 
L 558.740717 76.580803 
L 558.740717 84.876738 
L 559.432045 84.876738 
L 559.432045 84.18541 
L 563.580012 84.18541 
L 563.580012 84.876738 
L 564.962668 84.876738 
L 564.962668 85.568066 
L 566.345324 85.568066 
L 566.345324 86.259393 
L 567.72798 86.259393 
L 567.72798 86.950721 
L 568.419307 86.950721 
L 568.419307 87.642049 
L 569.801963 87.642049 
L 569.801963 88.333377 
L 571.184619 88.333377 
L 571.184619 89.024705 
L 572.567275 89.024705 
L 572.567275 89.716033 
L 573.258603 89.716033 
L 573.258603 90.407361 
L 574.641258 90.407361 
L 574.641258 91.098689 
L 576.023914 91.098689 
L 576.023914 91.790016 
L 576.715242 91.790016 
L 576.715242 92.481344 
L 578.097898 92.481344 
L 578.097898 93.172672 
L 578.789225 93.172672 
L 578.789225 94.555328 
L 578.097898 94.555328 
L 578.097898 95.246656 
L 576.715242 95.246656 
L 576.715242 95.937984 
L 576.023914 95.937984 
L 576.023914 96.629311 
L 574.641258 96.629311 
L 574.641258 97.320639 
L 573.258603 97.320639 
L 573.258603 98.011967 
L 572.567275 98.011967 
L 572.567275 98.703295 
L 571.184619 98.703295 
L 571.184619 99.394623 
L 569.801963 99.394623 
L 569.801963 100.085951 
L 568.419307 100.085951 
L 568.419307 100.777279 
L 567.72798 100.777279 
L 567.72798 101.468607 
L 566.345324 101.468607 
L 566.345324 102.159934 
L 564.962668 102.159934 
L 564.962668 102.851262 
L 563.580012 102.851262 
L 563.580012 103.54259 
L 559.432045 103.54259 
M 586.393832 103.54259 
L 578.789225 103.54259 
L 578.789225 104.233918 
L 569.801963 104.233918 
L 569.801963 103.54259 
L 571.184619 103.54259 
L 571.184619 102.851262 
L 571.875947 102.851262 
L 571.875947 102.159934 
L 573.258603 102.159934 
L 573.258603 101.468607 
L 573.94993 101.468607 
L 573.94993 100.777279 
L 575.332586 100.777279 
L 575.332586 100.085951 
L 576.023914 100.085951 
L 576.023914 99.394623 
L 577.40657 99.394623 
L 577.40657 98.703295 
L 578.097898 98.703295 
L 578.097898 98.011967 
L 578.789225 98.011967 
L 578.789225 97.320639 
L 580.171881 97.320639 
L 580.171881 96.629311 
L 580.863209 96.629311 
L 580.863209 95.937984 
L 582.245865 95.937984 
L 582.245865 96.629311 
L 583.628521 96.629311 
L 583.628521 97.320639 
L 584.319848 97.320639 
L 584.319848 98.011967 
L 585.011176 98.011967 
L 585.011176 98.703295 
L 585.702504 98.703295 
L 585.702504 99.394623 
L 586.393832 99.394623 
L 586.393832 100.085951 
L 587.08516 100.085951 
L 587.08516 100.777279 
L 587.776488 100.777279 
L 587.776488 101.468607 
L 588.467816 101.468607 
L 588.467816 102.159934 
L 589.159144 102.159934 
L 589.159144 102.851262 
L 586.393832 102.851262 
L 586.393832 103.54259 
M 593.998439 101.468607 
L 593.998439 102.159934 
L 590.541799 102.159934 
L 590.541799 101.468607 
L 589.850471 101.468607 
L 589.850471 100.777279 
L 589.159144 100.777279 
L 589.159144 99.394623 
L 588.467816 99.394623 
L 588.467816 98.703295 
L 587.776488 98.703295 
L 587.776488 98.011967 
L 587.08516 98.011967 
L 587.08516 97.320639 
L 586.393832 97.320639 
L 586.393832 96.629311 
L 585.702504 96.629311 
L 585.702504 95.937984 
L 585.011176 95.937984 
L 585.011176 95.246656 
L 584.319848 95.246656 
L 584.319848 94.555328 
L 583.628521 94.555328 
L 583.628521 93.172672 
L 584.319848 93.172672 
L 584.319848 92.481344 
L 585.011176 92.481344 
L 585.011176 91.790016 
L 585.702504 91.790016 
L 585.702504 91.098689 
L 586.393832 91.098689 
L 586.393832 90.407361 
L 587.08516 90.407361 
L 587.08516 89.716033 
L 587.776488 89.716033 
L 587.776488 89.024705 
L 588.467816 89.024705 
L 588.467816 88.333377 
L 589.159144 88.333377 
L 589.159144 86.950721 
L 589.850471 86.950721 
L 589.850471 86.259393 
L 590.541799 86.259393 
L 590.541799 85.568066 
L 593.998439 85.568066 
L 593.998439 86.259393 
L 596.76375 86.259393 
L 596.76375 86.950721 
L 598.837734 86.950721 
L 598.837734 87.642049 
L 600.911717 87.642049 
L 600.911717 88.333377 
L 602.985701 88.333377 
L 602.985701 89.024705 
L 605.059685 89.024705 
L 605.059685 89.716033 
L 606.44234 89.716033 
L 606.44234 90.407361 
L 608.516324 90.407361 
L 608.516324 91.098689 
L 609.89898 91.098689 
L 609.89898 91.790016 
L 611.281635 91.790016 
L 611.281635 92.481344 
L 612.664291 92.481344 
L 612.664291 93.172672 
L 614.046947 93.172672 
L 614.046947 94.555328 
L 612.664291 94.555328 
L 612.664291 95.246656 
L 611.281635 95.246656 
L 611.281635 95.937984 
L 609.89898 95.937984 
L 609.89898 96.629311 
L 608.516324 96.629311 
L 608.516324 97.320639 
L 606.44234 97.320639 
L 606.44234 98.011967 
L 605.059685 98.011967 
L 605.059685 98.703295 
L 602.985701 98.703295 
L 602.985701 99.394623 
L 600.911717 99.394623 
L 600.911717 100.085951 
L 598.837734 100.085951 
L 598.837734 100.777279 
L 596.76375 100.777279 
L 596.76375 101.468607 
L 593.998439 101.468607 
M 582.245865 91.790016 
L 580.863209 91.790016 
L 580.863209 91.098689 
L 580.171881 91.098689 
L 580.171881 90.407361 
L 578.789225 90.407361 
L 578.789225 89.716033 
L 578.097898 89.716033 
L 578.097898 89.024705 
L 577.40657 89.024705 
L 577.40657 88.333377 
L 576.023914 88.333377 
L 576.023914 87.642049 
L 575.332586 87.642049 
L 575.332586 86.950721 
L 573.94993 86.950721 
L 573.94993 86.259393 
L 573.258603 86.259393 
L 573.258603 85.568066 
L 571.875947 85.568066 
L 571.875947 84.876738 
L 571.184619 84.876738 
L 571.184619 84.18541 
L 569.801963 84.18541 
L 569.801963 83.494082 
L 578.789225 83.494082 
L 578.789225 84.18541 
L 586.393832 84.18541 
L 586.393832 84.876738 
L 589.159144 84.876738 
L 589.159144 85.568066 
L 588.467816 85.568066 
L 588.467816 86.259393 
L 587.776488 86.259393 
L 587.776488 86.950721 
L 587.08516 86.950721 
L 587.08516 87.642049 
L 586.393832 87.642049 
L 586.393832 88.333377 
L 585.702504 88.333377 
L 585.702504 89.024705 
L 585.011176 89.024705 
L 585.011176 89.716033 
L 584.319848 89.716033 
L 584.319848 90.407361 
L 583.628521 90.407361 
L 583.628521 91.098689 
L 582.245865 91.098689 
L 582.245865 91.790016 
" clip-path="url(#p29a658a729)" style="fill: #1f77b4; fill-opacity: 0.3; stroke: #1f77b4; stroke-width: 2; stroke-linejoin: miter"/>
   </g>
   <g id="patch_18">
    <path d="M 548.370799 125.3328 
L 558.740717 125.3328 
L 558.740717 62.3952 
L 548.370799 62.3952 
z
" clip-path="url(#p29a658a729)" style="opacity: 0.1; stroke: #000000; stroke-linejoin: miter"/>
   </g>
   <g id="line2d_16">
    <path d="M 627.873504 111.147197 
L 627.873504 76.580803 
L 558.740717 76.580803 
L 558.740717 111.147197 
L 627.873504 111.147197 
" clip-path="url(#p29a658a729)" style="fill: none; stroke: #000000; stroke-width: 1.5; stroke-linecap: square"/>
   </g>
   <g id="line2d_17">
    <g clip-path="url(#p29a658a729)">
     <use xlink:href="#mc0760de979" x="634.786783" y="93.864" style="fill-opacity: 0; stroke: #000000; stroke-opacity: 0"/>
    </g>
   </g>
   <g id="line2d_18">
    <g clip-path="url(#p29a658a729)">
     <use xlink:href="#m696e5ae15a" x="627.873504" y="93.864" style="stroke: #000000"/>
    </g>
   </g>
   <g id="patch_19">
    <path d="M 638.243422 85.491608 
Q 638.243422 93.862959 638.243422 101.116277 
" style="fill: none; stroke: #000000; stroke-linecap: round"/>
    <path d="M 640.243422 97.116277 
L 638.243422 101.116277 
L 636.243422 97.116277 
z
" style="stroke: #000000; stroke-linecap: round"/>
   </g>
   <g id="text_6">
    <!-- $f_\text{obj} = $0.0754 -->
    <g transform="translate(557.588791 22.770469) scale(0.11 -0.11)">
     <defs>
      <path id="DejaVuSans-37" d="M 525 4666 
L 3525 4666 
L 3525 4397 
L 1831 0 
L 1172 0 
L 2766 4134 
L 525 4134 
L 525 4666 
z
" transform="scale(0.015625)"/>
     </defs>
     <use xlink:href="#DejaVuSans-Oblique-66" transform="translate(0 0.015625)"/>
     <use xlink:href="#DejaVuSans-6f" transform="translate(35.205078 -16.390625) scale(0.7)"/>
     <use xlink:href="#DejaVuSans-62" transform="translate(78.032227 -16.390625) scale(0.7)"/>
     <use xlink:href="#DejaVuSans-6a" transform="translate(122.46582 -16.390625) scale(0.7)"/>
     <use xlink:href="#DejaVuSans-3d" transform="translate(164.130859 0.015625)"/>
     <use xlink:href="#DejaVuSans-30" transform="translate(267.402344 0.015625)"/>
     <use xlink:href="#DejaVuSans-2e" transform="translate(331.025391 0.015625)"/>
     <use xlink:href="#DejaVuSans-30" transform="translate(362.8125 0.015625)"/>
     <use xlink:href="#DejaVuSans-37" transform="translate(426.435547 0.015625)"/>
     <use xlink:href="#DejaVuSans-35" transform="translate(490.058594 0.015625)"/>
     <use xlink:href="#DejaVuSans-34" transform="translate(553.681641 0.015625)"/>
    </g>
    <!-- 1014 evals -->
    <g transform="translate(561.430197 36.210406) scale(0.11 -0.11)">
     <use xlink:href="#DejaVuSans-31"/>
     <use xlink:href="#DejaVuSans-30" transform="translate(63.623047 0)"/>
     <use xlink:href="#DejaVuSans-31" transform="translate(127.246094 0)"/>
     <use xlink:href="#DejaVuSans-34" transform="translate(190.869141 0)"/>
     <use xlink:href="#DejaVuSans-20" transform="translate(254.492188 0)"/>
     <use xlink:href="#DejaVuSans-65" transform="translate(286.279297 0)"/>
     <use xlink:href="#DejaVuSans-76" transform="translate(347.802734 0)"/>
     <use xlink:href="#DejaVuSans-61" transform="translate(406.982422 0)"/>
     <use xlink:href="#DejaVuSans-6c" transform="translate(468.261719 0)"/>
     <use xlink:href="#DejaVuSans-73" transform="translate(496.044922 0)"/>
    </g>
    <!-- 500 sims -->
    <g transform="translate(566.717072 48.528) scale(0.11 -0.11)">
     <use xlink:href="#DejaVuSans-35"/>
     <use xlink:href="#DejaVuSans-30" transform="translate(63.623047 0)"/>
     <use xlink:href="#DejaVuSans-30" transform="translate(127.246094 0)"/>
     <use xlink:href="#DejaVuSans-20" transform="translate(190.869141 0)"/>
     <use xlink:href="#DejaVuSans-73" transform="translate(222.65625 0)"/>
     <use xlink:href="#DejaVuSans-69" transform="translate(274.755859 0)"/>
     <use xlink:href="#DejaVuSans-6d" transform="translate(302.539062 0)"/>
     <use xlink:href="#DejaVuSans-73" transform="translate(399.951172 0)"/>
    </g>
   </g>
  </g>
  <g id="axes_7">
   <g id="patch_20">
    <path d="M 666.082045 104.233918 
L 666.082045 104.925246 
L 665.390717 104.925246 
L 665.390717 111.147197 
L 697.191799 111.147197 
L 697.191799 110.455869 
L 699.265783 110.455869 
L 699.265783 109.764541 
L 700.648439 109.764541 
L 700.648439 109.073213 
L 702.722422 109.073213 
L 702.722422 108.381885 
L 704.796406 108.381885 
L 704.796406 107.690557 
L 706.870389 107.690557 
L 706.870389 106.99923 
L 708.253045 106.99923 
L 708.253045 106.307902 
L 710.327029 106.307902 
L 710.327029 105.616574 
L 713.09234 105.616574 
L 713.09234 104.925246 
L 715.166324 104.925246 
L 715.166324 104.233918 
L 717.240308 104.233918 
L 717.240308 103.54259 
L 720.005619 103.54259 
L 720.005619 102.851262 
L 722.770931 102.851262 
L 722.770931 102.159934 
L 725.536242 102.159934 
L 725.536242 101.468607 
L 728.301553 101.468607 
L 728.301553 100.777279 
L 731.758193 100.777279 
L 731.758193 100.085951 
L 733.832176 100.085951 
L 733.832176 100.777279 
L 734.523504 100.777279 
L 734.523504 86.950721 
L 733.832176 86.950721 
L 733.832176 87.642049 
L 731.758193 87.642049 
L 731.758193 86.950721 
L 728.301553 86.950721 
L 728.301553 86.259393 
L 725.536242 86.259393 
L 725.536242 85.568066 
L 722.770931 85.568066 
L 722.770931 84.876738 
L 720.005619 84.876738 
L 720.005619 84.18541 
L 717.240308 84.18541 
L 717.240308 83.494082 
L 715.166324 83.494082 
L 715.166324 82.802754 
L 713.09234 82.802754 
L 713.09234 82.111426 
L 710.327029 82.111426 
L 710.327029 81.420098 
L 708.253045 81.420098 
L 708.253045 80.72877 
L 706.870389 80.72877 
L 706.870389 80.037443 
L 704.796406 80.037443 
L 704.796406 79.346115 
L 702.722422 79.346115 
L 702.722422 78.654787 
L 700.648439 78.654787 
L 700.648439 77.963459 
L 699.265783 77.963459 
L 699.265783 77.272131 
L 697.191799 77.272131 
L 697.191799 76.580803 
L 665.390717 76.580803 
L 665.390717 82.802754 
L 666.082045 82.802754 
L 666.082045 83.494082 
L 667.464701 83.494082 
L 667.464701 84.18541 
L 668.847357 84.18541 
L 668.847357 84.876738 
L 670.230012 84.876738 
L 670.230012 85.568066 
L 671.612668 85.568066 
L 671.612668 86.259393 
L 672.995324 86.259393 
L 672.995324 86.950721 
L 674.37798 86.950721 
L 674.37798 87.642049 
L 675.760635 87.642049 
L 675.760635 88.333377 
L 676.451963 88.333377 
L 676.451963 89.024705 
L 677.834619 89.024705 
L 677.834619 89.716033 
L 679.217275 89.716033 
L 679.217275 90.407361 
L 679.908603 90.407361 
L 679.908603 91.098689 
L 681.291258 91.098689 
L 681.291258 91.790016 
L 681.982586 91.790016 
L 681.982586 92.481344 
L 682.673914 92.481344 
L 682.673914 93.172672 
L 684.05657 93.172672 
L 684.05657 94.555328 
L 682.673914 94.555328 
L 682.673914 95.246656 
L 681.982586 95.246656 
L 681.982586 95.937984 
L 681.291258 95.937984 
L 681.291258 96.629311 
L 679.908603 96.629311 
L 679.908603 97.320639 
L 679.217275 97.320639 
L 679.217275 98.011967 
L 677.834619 98.011967 
L 677.834619 98.703295 
L 676.451963 98.703295 
L 676.451963 99.394623 
L 675.760635 99.394623 
L 675.760635 100.085951 
L 674.37798 100.085951 
L 674.37798 100.777279 
L 672.995324 100.777279 
L 672.995324 101.468607 
L 671.612668 101.468607 
L 671.612668 102.159934 
L 670.230012 102.159934 
L 670.230012 102.851262 
L 668.847357 102.851262 
L 668.847357 103.54259 
L 667.464701 103.54259 
L 667.464701 104.233918 
L 666.082045 104.233918 
M 693.73516 104.233918 
L 688.204537 104.233918 
L 688.204537 104.925246 
L 677.143291 104.925246 
L 677.143291 104.233918 
L 677.834619 104.233918 
L 677.834619 103.54259 
L 678.525947 103.54259 
L 678.525947 102.851262 
L 679.908603 102.851262 
L 679.908603 102.159934 
L 680.59993 102.159934 
L 680.59993 101.468607 
L 681.291258 101.468607 
L 681.291258 100.777279 
L 682.673914 100.777279 
L 682.673914 100.085951 
L 683.365242 100.085951 
L 683.365242 99.394623 
L 684.05657 99.394623 
L 684.05657 98.703295 
L 684.747898 98.703295 
L 684.747898 98.011967 
L 686.130553 98.011967 
L 686.130553 97.320639 
L 686.821881 97.320639 
L 686.821881 96.629311 
L 687.513209 96.629311 
L 687.513209 97.320639 
L 688.204537 97.320639 
L 688.204537 98.011967 
L 688.895865 98.011967 
L 688.895865 98.703295 
L 689.587193 98.703295 
L 689.587193 99.394623 
L 690.278521 99.394623 
L 690.278521 100.085951 
L 690.969848 100.085951 
L 690.969848 100.777279 
L 691.661176 100.777279 
L 691.661176 101.468607 
L 692.352504 101.468607 
L 692.352504 102.851262 
L 693.043832 102.851262 
L 693.043832 103.54259 
L 693.73516 103.54259 
L 693.73516 104.233918 
M 700.648439 102.159934 
L 700.648439 102.851262 
L 696.500471 102.851262 
L 696.500471 101.468607 
L 695.809144 101.468607 
L 695.809144 100.777279 
L 695.117816 100.777279 
L 695.117816 99.394623 
L 694.426488 99.394623 
L 694.426488 98.703295 
L 693.73516 98.703295 
L 693.73516 98.011967 
L 693.043832 98.011967 
L 693.043832 97.320639 
L 692.352504 97.320639 
L 692.352504 96.629311 
L 691.661176 96.629311 
L 691.661176 95.246656 
L 690.969848 95.246656 
L 690.969848 94.555328 
L 690.278521 94.555328 
L 690.278521 93.172672 
L 690.969848 93.172672 
L 690.969848 92.481344 
L 691.661176 92.481344 
L 691.661176 91.098689 
L 692.352504 91.098689 
L 692.352504 90.407361 
L 693.043832 90.407361 
L 693.043832 89.716033 
L 693.73516 89.716033 
L 693.73516 89.024705 
L 694.426488 89.024705 
L 694.426488 88.333377 
L 695.117816 88.333377 
L 695.117816 86.950721 
L 695.809144 86.950721 
L 695.809144 86.259393 
L 696.500471 86.259393 
L 696.500471 84.876738 
L 700.648439 84.876738 
L 700.648439 85.568066 
L 703.41375 85.568066 
L 703.41375 86.259393 
L 705.487734 86.259393 
L 705.487734 86.950721 
L 708.253045 86.950721 
L 708.253045 87.642049 
L 710.327029 87.642049 
L 710.327029 88.333377 
L 711.709685 88.333377 
L 711.709685 89.024705 
L 713.783668 89.024705 
L 713.783668 89.716033 
L 715.166324 89.716033 
L 715.166324 90.407361 
L 717.240308 90.407361 
L 717.240308 91.098689 
L 718.622963 91.098689 
L 718.622963 91.790016 
L 720.005619 91.790016 
L 720.005619 92.481344 
L 721.388275 92.481344 
L 721.388275 93.172672 
L 722.770931 93.172672 
L 722.770931 94.555328 
L 721.388275 94.555328 
L 721.388275 95.246656 
L 720.005619 95.246656 
L 720.005619 95.937984 
L 718.622963 95.937984 
L 718.622963 96.629311 
L 717.240308 96.629311 
L 717.240308 97.320639 
L 715.166324 97.320639 
L 715.166324 98.011967 
L 713.783668 98.011967 
L 713.783668 98.703295 
L 711.709685 98.703295 
L 711.709685 99.394623 
L 710.327029 99.394623 
L 710.327029 100.085951 
L 708.253045 100.085951 
L 708.253045 100.777279 
L 705.487734 100.777279 
L 705.487734 101.468607 
L 703.41375 101.468607 
L 703.41375 102.159934 
L 700.648439 102.159934 
M 687.513209 91.098689 
L 686.821881 91.098689 
L 686.821881 90.407361 
L 686.130553 90.407361 
L 686.130553 89.716033 
L 684.747898 89.716033 
L 684.747898 89.024705 
L 684.05657 89.024705 
L 684.05657 88.333377 
L 683.365242 88.333377 
L 683.365242 87.642049 
L 682.673914 87.642049 
L 682.673914 86.950721 
L 681.291258 86.950721 
L 681.291258 86.259393 
L 680.59993 86.259393 
L 680.59993 85.568066 
L 679.908603 85.568066 
L 679.908603 84.876738 
L 678.525947 84.876738 
L 678.525947 84.18541 
L 677.834619 84.18541 
L 677.834619 83.494082 
L 677.143291 83.494082 
L 677.143291 82.802754 
L 688.204537 82.802754 
L 688.204537 83.494082 
L 693.73516 83.494082 
L 693.73516 84.18541 
L 693.043832 84.18541 
L 693.043832 84.876738 
L 692.352504 84.876738 
L 692.352504 86.259393 
L 691.661176 86.259393 
L 691.661176 86.950721 
L 690.969848 86.950721 
L 690.969848 87.642049 
L 690.278521 87.642049 
L 690.278521 88.333377 
L 689.587193 88.333377 
L 689.587193 89.024705 
L 688.895865 89.024705 
L 688.895865 89.716033 
L 688.204537 89.716033 
L 688.204537 90.407361 
L 687.513209 90.407361 
L 687.513209 91.098689 
" clip-path="url(#pf468b5497e)" style="fill: #1f77b4; fill-opacity: 0.3; stroke: #1f77b4; stroke-width: 2; stroke-linejoin: miter"/>
   </g>
   <g id="patch_21">
    <path d="M 655.020799 125.3328 
L 665.390717 125.3328 
L 665.390717 62.3952 
L 655.020799 62.3952 
z
" clip-path="url(#pf468b5497e)" style="opacity: 0.1; stroke: #000000; stroke-linejoin: miter"/>
   </g>
   <g id="line2d_19">
    <path d="M 734.523504 111.147197 
L 734.523504 76.580803 
L 665.390717 76.580803 
L 665.390717 111.147197 
L 734.523504 111.147197 
" clip-path="url(#pf468b5497e)" style="fill: none; stroke: #000000; stroke-width: 1.5; stroke-linecap: square"/>
   </g>
   <g id="line2d_20">
    <g clip-path="url(#pf468b5497e)">
     <use xlink:href="#mc0760de979" x="741.436783" y="93.864" style="fill-opacity: 0; stroke: #000000; stroke-opacity: 0"/>
    </g>
   </g>
   <g id="line2d_21">
    <g clip-path="url(#pf468b5497e)">
     <use xlink:href="#m696e5ae15a" x="734.523504" y="93.864" style="stroke: #000000"/>
    </g>
   </g>
   <g id="patch_22">
    <path d="M 744.893422 85.491608 
Q 744.893422 93.862959 744.893422 101.116277 
" style="fill: none; stroke: #000000; stroke-linecap: round"/>
    <path d="M 746.893422 97.116277 
L 744.893422 101.116277 
L 742.893422 97.116277 
z
" style="stroke: #000000; stroke-linecap: round"/>
   </g>
   <g id="text_7">
    <!-- $f_\text{obj} = $0.0726 -->
    <g transform="translate(664.238791 22.770469) scale(0.11 -0.11)">
     <use xlink:href="#DejaVuSans-Oblique-66" transform="translate(0 0.015625)"/>
     <use xlink:href="#DejaVuSans-6f" transform="translate(35.205078 -16.390625) scale(0.7)"/>
     <use xlink:href="#DejaVuSans-62" transform="translate(78.032227 -16.390625) scale(0.7)"/>
     <use xlink:href="#DejaVuSans-6a" transform="translate(122.46582 -16.390625) scale(0.7)"/>
     <use xlink:href="#DejaVuSans-3d" transform="translate(164.130859 0.015625)"/>
     <use xlink:href="#DejaVuSans-30" transform="translate(267.402344 0.015625)"/>
     <use xlink:href="#DejaVuSans-2e" transform="translate(331.025391 0.015625)"/>
     <use xlink:href="#DejaVuSans-30" transform="translate(362.8125 0.015625)"/>
     <use xlink:href="#DejaVuSans-37" transform="translate(426.435547 0.015625)"/>
     <use xlink:href="#DejaVuSans-32" transform="translate(490.058594 0.015625)"/>
     <use xlink:href="#DejaVuSans-36" transform="translate(553.681641 0.015625)"/>
    </g>
    <!-- 1698 evals -->
    <g transform="translate(668.080197 36.210406) scale(0.11 -0.11)">
     <use xlink:href="#DejaVuSans-31"/>
     <use xlink:href="#DejaVuSans-36" transform="translate(63.623047 0)"/>
     <use xlink:href="#DejaVuSans-39" transform="translate(127.246094 0)"/>
     <use xlink:href="#DejaVuSans-38" transform="translate(190.869141 0)"/>
     <use xlink:href="#DejaVuSans-20" transform="translate(254.492188 0)"/>
     <use xlink:href="#DejaVuSans-65" transform="translate(286.279297 0)"/>
     <use xlink:href="#DejaVuSans-76" transform="translate(347.802734 0)"/>
     <use xlink:href="#DejaVuSans-61" transform="translate(406.982422 0)"/>
     <use xlink:href="#DejaVuSans-6c" transform="translate(468.261719 0)"/>
     <use xlink:href="#DejaVuSans-73" transform="translate(496.044922 0)"/>
    </g>
    <!-- 1000 sims -->
    <g transform="translate(669.867697 48.528) scale(0.11 -0.11)">
     <use xlink:href="#DejaVuSans-31"/>
     <use xlink:href="#DejaVuSans-30" transform="translate(63.623047 0)"/>
     <use xlink:href="#DejaVuSans-30" transform="translate(127.246094 0)"/>
     <use xlink:href="#DejaVuSans-30" transform="translate(190.869141 0)"/>
     <use xlink:href="#DejaVuSans-20" transform="translate(254.492188 0)"/>
     <use xlink:href="#DejaVuSans-73" transform="translate(286.279297 0)"/>
     <use xlink:href="#DejaVuSans-69" transform="translate(338.378906 0)"/>
     <use xlink:href="#DejaVuSans-6d" transform="translate(366.162109 0)"/>
     <use xlink:href="#DejaVuSans-73" transform="translate(463.574219 0)"/>
    </g>
   </g>
  </g>
  <g id="axes_8">
   <g id="patch_23">
    <path d="M 775.497357 103.54259 
L 775.497357 104.233918 
L 772.040717 104.233918 
L 772.040717 111.147197 
L 809.372422 111.147197 
L 809.372422 110.455869 
L 810.755078 110.455869 
L 810.755078 109.764541 
L 812.137734 109.764541 
L 812.137734 109.073213 
L 813.520389 109.073213 
L 813.520389 108.381885 
L 815.594373 108.381885 
L 815.594373 107.690557 
L 816.977029 107.690557 
L 816.977029 106.99923 
L 819.051012 106.99923 
L 819.051012 106.307902 
L 820.433668 106.307902 
L 820.433668 105.616574 
L 822.507652 105.616574 
L 822.507652 104.925246 
L 823.890308 104.925246 
L 823.890308 104.233918 
L 825.964291 104.233918 
L 825.964291 103.54259 
L 827.346947 103.54259 
L 827.346947 102.851262 
L 829.420931 102.851262 
L 829.420931 102.159934 
L 831.494914 102.159934 
L 831.494914 101.468607 
L 832.87757 101.468607 
L 832.87757 100.777279 
L 834.951553 100.777279 
L 834.951553 100.085951 
L 837.025537 100.085951 
L 837.025537 99.394623 
L 840.482176 99.394623 
L 840.482176 100.085951 
L 841.173504 100.085951 
L 841.173504 87.642049 
L 840.482176 87.642049 
L 840.482176 88.333377 
L 837.025537 88.333377 
L 837.025537 87.642049 
L 834.951553 87.642049 
L 834.951553 86.950721 
L 832.87757 86.950721 
L 832.87757 86.259393 
L 831.494914 86.259393 
L 831.494914 85.568066 
L 829.420931 85.568066 
L 829.420931 84.876738 
L 827.346947 84.876738 
L 827.346947 84.18541 
L 825.964291 84.18541 
L 825.964291 83.494082 
L 823.890308 83.494082 
L 823.890308 82.802754 
L 822.507652 82.802754 
L 822.507652 82.111426 
L 820.433668 82.111426 
L 820.433668 81.420098 
L 819.051012 81.420098 
L 819.051012 80.72877 
L 816.977029 80.72877 
L 816.977029 80.037443 
L 815.594373 80.037443 
L 815.594373 79.346115 
L 813.520389 79.346115 
L 813.520389 78.654787 
L 812.137734 78.654787 
L 812.137734 77.963459 
L 810.755078 77.963459 
L 810.755078 77.272131 
L 809.372422 77.272131 
L 809.372422 76.580803 
L 772.040717 76.580803 
L 772.040717 83.494082 
L 775.497357 83.494082 
L 775.497357 84.18541 
L 776.188684 84.18541 
L 776.188684 84.876738 
L 777.57134 84.876738 
L 777.57134 85.568066 
L 778.953996 85.568066 
L 778.953996 86.259393 
L 780.336652 86.259393 
L 780.336652 86.950721 
L 781.719307 86.950721 
L 781.719307 87.642049 
L 783.101963 87.642049 
L 783.101963 88.333377 
L 784.484619 88.333377 
L 784.484619 89.024705 
L 785.867275 89.024705 
L 785.867275 89.716033 
L 787.24993 89.716033 
L 787.24993 90.407361 
L 788.632586 90.407361 
L 788.632586 91.098689 
L 790.015242 91.098689 
L 790.015242 91.790016 
L 791.397898 91.790016 
L 791.397898 92.481344 
L 792.089225 92.481344 
L 792.089225 93.172672 
L 793.471881 93.172672 
L 793.471881 94.555328 
L 792.089225 94.555328 
L 792.089225 95.246656 
L 791.397898 95.246656 
L 791.397898 95.937984 
L 790.015242 95.937984 
L 790.015242 96.629311 
L 788.632586 96.629311 
L 788.632586 97.320639 
L 787.24993 97.320639 
L 787.24993 98.011967 
L 785.867275 98.011967 
L 785.867275 98.703295 
L 784.484619 98.703295 
L 784.484619 99.394623 
L 783.101963 99.394623 
L 783.101963 100.085951 
L 781.719307 100.085951 
L 781.719307 100.777279 
L 780.336652 100.777279 
L 780.336652 101.468607 
L 778.953996 101.468607 
L 778.953996 102.159934 
L 777.57134 102.159934 
L 777.57134 102.851262 
L 776.188684 102.851262 
L 776.188684 103.54259 
L 775.497357 103.54259 
M 803.150471 104.233918 
L 799.693832 104.233918 
L 799.693832 104.925246 
L 784.484619 104.925246 
L 784.484619 104.233918 
L 785.867275 104.233918 
L 785.867275 103.54259 
L 786.558603 103.54259 
L 786.558603 102.851262 
L 787.941258 102.851262 
L 787.941258 102.159934 
L 789.323914 102.159934 
L 789.323914 101.468607 
L 790.015242 101.468607 
L 790.015242 100.777279 
L 791.397898 100.777279 
L 791.397898 100.085951 
L 792.089225 100.085951 
L 792.089225 99.394623 
L 793.471881 99.394623 
L 793.471881 98.703295 
L 794.163209 98.703295 
L 794.163209 98.011967 
L 795.545865 98.011967 
L 795.545865 97.320639 
L 796.237193 97.320639 
L 796.237193 96.629311 
L 797.619848 96.629311 
L 797.619848 97.320639 
L 798.311176 97.320639 
L 798.311176 98.011967 
L 799.002504 98.011967 
L 799.002504 98.703295 
L 799.693832 98.703295 
L 799.693832 99.394623 
L 800.38516 99.394623 
L 800.38516 100.085951 
L 801.076488 100.085951 
L 801.076488 100.777279 
L 801.767816 100.777279 
L 801.767816 102.159934 
L 802.459144 102.159934 
L 802.459144 103.54259 
L 803.150471 103.54259 
L 803.150471 104.233918 
M 807.989767 102.851262 
L 807.989767 103.54259 
L 806.607111 103.54259 
L 806.607111 102.851262 
L 805.915783 102.851262 
L 805.915783 101.468607 
L 805.224455 101.468607 
L 805.224455 100.085951 
L 804.533127 100.085951 
L 804.533127 99.394623 
L 803.841799 99.394623 
L 803.841799 98.011967 
L 803.150471 98.011967 
L 803.150471 97.320639 
L 802.459144 97.320639 
L 802.459144 96.629311 
L 801.767816 96.629311 
L 801.767816 95.246656 
L 801.076488 95.246656 
L 801.076488 94.555328 
L 800.38516 94.555328 
L 800.38516 93.172672 
L 801.076488 93.172672 
L 801.076488 92.481344 
L 801.767816 92.481344 
L 801.767816 91.098689 
L 802.459144 91.098689 
L 802.459144 90.407361 
L 803.150471 90.407361 
L 803.150471 89.716033 
L 803.841799 89.716033 
L 803.841799 88.333377 
L 804.533127 88.333377 
L 804.533127 87.642049 
L 805.224455 87.642049 
L 805.224455 86.259393 
L 805.915783 86.259393 
L 805.915783 84.876738 
L 806.607111 84.876738 
L 806.607111 84.18541 
L 807.989767 84.18541 
L 807.989767 84.876738 
L 810.755078 84.876738 
L 810.755078 85.568066 
L 813.520389 85.568066 
L 813.520389 86.259393 
L 815.594373 86.259393 
L 815.594373 86.950721 
L 817.668357 86.950721 
L 817.668357 87.642049 
L 819.051012 87.642049 
L 819.051012 88.333377 
L 821.124996 88.333377 
L 821.124996 89.024705 
L 822.507652 89.024705 
L 822.507652 89.716033 
L 823.890308 89.716033 
L 823.890308 90.407361 
L 825.964291 90.407361 
L 825.964291 91.098689 
L 827.346947 91.098689 
L 827.346947 91.790016 
L 828.038275 91.790016 
L 828.038275 92.481344 
L 829.420931 92.481344 
L 829.420931 93.172672 
L 830.803586 93.172672 
L 830.803586 94.555328 
L 829.420931 94.555328 
L 829.420931 95.246656 
L 828.038275 95.246656 
L 828.038275 95.937984 
L 827.346947 95.937984 
L 827.346947 96.629311 
L 825.964291 96.629311 
L 825.964291 97.320639 
L 823.890308 97.320639 
L 823.890308 98.011967 
L 822.507652 98.011967 
L 822.507652 98.703295 
L 821.124996 98.703295 
L 821.124996 99.394623 
L 819.051012 99.394623 
L 819.051012 100.085951 
L 817.668357 100.085951 
L 817.668357 100.777279 
L 815.594373 100.777279 
L 815.594373 101.468607 
L 813.520389 101.468607 
L 813.520389 102.159934 
L 810.755078 102.159934 
L 810.755078 102.851262 
L 807.989767 102.851262 
M 797.619848 91.098689 
L 796.237193 91.098689 
L 796.237193 90.407361 
L 795.545865 90.407361 
L 795.545865 89.716033 
L 794.163209 89.716033 
L 794.163209 89.024705 
L 793.471881 89.024705 
L 793.471881 88.333377 
L 792.089225 88.333377 
L 792.089225 87.642049 
L 791.397898 87.642049 
L 791.397898 86.950721 
L 790.015242 86.950721 
L 790.015242 86.259393 
L 789.323914 86.259393 
L 789.323914 85.568066 
L 787.941258 85.568066 
L 787.941258 84.876738 
L 786.558603 84.876738 
L 786.558603 84.18541 
L 785.867275 84.18541 
L 785.867275 83.494082 
L 784.484619 83.494082 
L 784.484619 82.802754 
L 799.693832 82.802754 
L 799.693832 83.494082 
L 803.150471 83.494082 
L 803.150471 84.18541 
L 802.459144 84.18541 
L 802.459144 85.568066 
L 801.767816 85.568066 
L 801.767816 86.950721 
L 801.076488 86.950721 
L 801.076488 87.642049 
L 800.38516 87.642049 
L 800.38516 88.333377 
L 799.693832 88.333377 
L 799.693832 89.024705 
L 799.002504 89.024705 
L 799.002504 89.716033 
L 798.311176 89.716033 
L 798.311176 90.407361 
L 797.619848 90.407361 
L 797.619848 91.098689 
" clip-path="url(#p38d89346b1)" style="fill: #1f77b4; fill-opacity: 0.3; stroke: #1f77b4; stroke-width: 2; stroke-linejoin: miter"/>
   </g>
   <g id="patch_24">
    <path d="M 761.670799 125.3328 
L 772.040717 125.3328 
L 772.040717 62.3952 
L 761.670799 62.3952 
z
" clip-path="url(#p38d89346b1)" style="opacity: 0.1; stroke: #000000; stroke-linejoin: miter"/>
   </g>
   <g id="line2d_22">
    <path d="M 841.173504 111.147197 
L 841.173504 76.580803 
L 772.040717 76.580803 
L 772.040717 111.147197 
L 841.173504 111.147197 
" clip-path="url(#p38d89346b1)" style="fill: none; stroke: #000000; stroke-width: 1.5; stroke-linecap: square"/>
   </g>
   <g id="line2d_23">
    <g clip-path="url(#p38d89346b1)">
     <use xlink:href="#mc0760de979" x="848.086783" y="93.864" style="fill-opacity: 0; stroke: #000000; stroke-opacity: 0"/>
    </g>
   </g>
   <g id="line2d_24">
    <g clip-path="url(#p38d89346b1)">
     <use xlink:href="#m696e5ae15a" x="841.173504" y="93.864" style="stroke: #000000"/>
    </g>
   </g>
   <g id="patch_25">
    <path d="M 851.543422 85.491608 
Q 851.543422 93.862959 851.543422 101.116277 
" style="fill: none; stroke: #000000; stroke-linecap: round"/>
    <path d="M 853.543422 97.116277 
L 851.543422 101.116277 
L 849.543422 97.116277 
z
" style="stroke: #000000; stroke-linecap: round"/>
   </g>
   <g id="text_8">
    <!-- $f_\text{obj} = $0.0702 -->
    <g transform="translate(770.888791 22.770469) scale(0.11 -0.11)">
     <use xlink:href="#DejaVuSans-Oblique-66" transform="translate(0 0.015625)"/>
     <use xlink:href="#DejaVuSans-6f" transform="translate(35.205078 -16.390625) scale(0.7)"/>
     <use xlink:href="#DejaVuSans-62" transform="translate(78.032227 -16.390625) scale(0.7)"/>
     <use xlink:href="#DejaVuSans-6a" transform="translate(122.46582 -16.390625) scale(0.7)"/>
     <use xlink:href="#DejaVuSans-3d" transform="translate(164.130859 0.015625)"/>
     <use xlink:href="#DejaVuSans-30" transform="translate(267.402344 0.015625)"/>
     <use xlink:href="#DejaVuSans-2e" transform="translate(331.025391 0.015625)"/>
     <use xlink:href="#DejaVuSans-30" transform="translate(362.8125 0.015625)"/>
     <use xlink:href="#DejaVuSans-37" transform="translate(426.435547 0.015625)"/>
     <use xlink:href="#DejaVuSans-30" transform="translate(490.058594 0.015625)"/>
     <use xlink:href="#DejaVuSans-32" transform="translate(553.681641 0.015625)"/>
    </g>
    <!-- 3095 evals -->
    <g transform="translate(774.730197 36.210406) scale(0.11 -0.11)">
     <use xlink:href="#DejaVuSans-33"/>
     <use xlink:href="#DejaVuSans-30" transform="translate(63.623047 0)"/>
     <use xlink:href="#DejaVuSans-39" transform="translate(127.246094 0)"/>
     <use xlink:href="#DejaVuSans-35" transform="translate(190.869141 0)"/>
     <use xlink:href="#DejaVuSans-20" transform="translate(254.492188 0)"/>
     <use xlink:href="#DejaVuSans-65" transform="translate(286.279297 0)"/>
     <use xlink:href="#DejaVuSans-76" transform="translate(347.802734 0)"/>
     <use xlink:href="#DejaVuSans-61" transform="translate(406.982422 0)"/>
     <use xlink:href="#DejaVuSans-6c" transform="translate(468.261719 0)"/>
     <use xlink:href="#DejaVuSans-73" transform="translate(496.044922 0)"/>
    </g>
    <!-- 2000 sims -->
    <g transform="translate(776.517697 48.528) scale(0.11 -0.11)">
     <use xlink:href="#DejaVuSans-32"/>
     <use xlink:href="#DejaVuSans-30" transform="translate(63.623047 0)"/>
     <use xlink:href="#DejaVuSans-30" transform="translate(127.246094 0)"/>
     <use xlink:href="#DejaVuSans-30" transform="translate(190.869141 0)"/>
     <use xlink:href="#DejaVuSans-20" transform="translate(254.492188 0)"/>
     <use xlink:href="#DejaVuSans-73" transform="translate(286.279297 0)"/>
     <use xlink:href="#DejaVuSans-69" transform="translate(338.378906 0)"/>
     <use xlink:href="#DejaVuSans-6d" transform="translate(366.162109 0)"/>
     <use xlink:href="#DejaVuSans-73" transform="translate(463.574219 0)"/>
    </g>
   </g>
  </g>
 </g>
 <defs>
  <clipPath id="pd17002f0a0">
   <rect x="10.8" y="54.528" width="95.057582" height="78.672"/>
  </clipPath>
  <clipPath id="p3f50bb5455">
   <rect x="117.45" y="54.528" width="95.057582" height="78.672"/>
  </clipPath>
  <clipPath id="p9fc07adf57">
   <rect x="224.1" y="54.528" width="95.057582" height="78.672"/>
  </clipPath>
  <clipPath id="peb0513afd5">
   <rect x="330.75" y="54.528" width="95.057582" height="78.672"/>
  </clipPath>
  <clipPath id="p88c968d454">
   <rect x="437.4" y="54.528" width="95.057582" height="78.672"/>
  </clipPath>
  <clipPath id="p29a658a729">
   <rect x="544.05" y="54.528" width="95.057582" height="78.672"/>
  </clipPath>
  <clipPath id="pf468b5497e">
   <rect x="650.7" y="54.528" width="95.057582" height="78.672"/>
  </clipPath>
  <clipPath id="p38d89346b1">
   <rect x="757.35" y="54.528" width="95.057582" height="78.672"/>
  </clipPath>
 </defs>
</svg>
