<svg width="1222" height="414" xmlns="http://www.w3.org/2000/svg" xmlns:xlink="http://www.w3.org/1999/xlink" xml:space="preserve" overflow="hidden"><g transform="translate(-1413 -943)"><g><g><g><path d="M0 312 936 312 936 0 0 0Z" fill="#FFFFFF" transform="matrix(1.00107 0 0 1 1489 1008)"/><path d="M90.2634 227.782 431.898 227.782 431.898 42.12 90.2634 42.12Z" fill="#FFFFFF" transform="matrix(1.00107 0 0 1 1489 1008)"/><g><path d="M121.732 84.1221 121.865 84.1584 121.998 84.1939 122.132 84.2285 122.266 84.2623 325.823 134.951 122.266 185.639 122.132 185.673 121.998 185.708 121.865 185.743 121.732 185.78 121.599 185.817 121.466 185.855 121.333 185.894 121.201 185.933 121.069 185.974 120.937 186.015 120.806 186.057 120.675 186.1 120.544 186.144 120.413 186.189 120.283 186.234 120.152 186.28 120.023 186.327 119.893 186.375 119.764 186.424 119.635 186.474 119.506 186.524 119.378 186.575 119.25 186.627 119.123 186.68 118.995 186.733 118.868 186.788 118.742 186.843 118.616 186.899 118.49 186.955 118.364 187.013 118.239 187.071 118.114 187.13 117.99 187.19 117.866 187.251 117.742 187.313 117.619 187.375 117.496 187.438 117.373 187.502 117.251 187.566 117.13 187.631 117.008 187.698 116.888 187.764 116.767 187.832 116.647 187.9 116.528 187.969 116.409 188.039 116.29 188.11 116.172 188.181 116.054 188.253 115.937 188.326 115.82 188.4 115.703 188.474 115.587 188.549 115.472 188.625 115.472 188.625 115.357 188.701 115.357 188.701 115.243 188.779 115.243 188.779 115.129 188.857 115.129 188.857 115.015 188.935 115.015 188.935 114.902 189.015 114.902 189.015 114.79 189.095 114.79 189.095 114.678 189.176 114.678 189.176 114.566 189.257 114.566 189.257 114.455 189.339 114.455 189.339 114.345 189.422 114.345 189.422 114.235 189.506 114.235 189.506 114.125 189.59 114.125 189.59 114.017 189.675 114.016 189.675 113.908 189.761 113.908 189.761 113.8 189.847 113.8 189.847 113.693 189.934 113.693 189.934 113.586 190.022 113.586 190.022 113.48 190.11 113.48 190.11 113.375 190.199 113.375 190.199 113.27 190.289 113.27 190.289 113.165 190.379 113.165 190.379 113.061 190.47 113.061 190.47 112.958 190.562 112.958 190.562 112.855 190.654 112.855 190.654 112.753 190.747 112.753 190.747 112.652 190.84 112.652 190.84 112.551 190.935 112.551 190.935 112.45 191.03 112.45 191.03 112.351 191.125 112.351 191.125 112.251 191.221 112.251 191.221 112.153 191.318 112.153 191.318 112.055 191.415 112.055 191.415 111.958 191.513 111.958 191.513 111.861 191.612 111.861 191.612 111.765 191.711 111.765 191.711 111.669 191.811 111.669 191.811 111.575 191.911 111.575 191.911 111.48 192.012 111.48 192.012 111.387 192.114 111.387 192.114 111.294 192.216 111.294 192.216 111.202 192.318 111.202 192.318 111.11 192.422 111.11 192.422 111.019 192.526 111.019 192.526 110.929 192.63 110.929 192.63 110.839 192.735 110.839 192.735 110.75 192.841 110.75 192.841 110.662 192.947 110.662 192.947 110.574 193.054 110.574 193.054 110.487 193.161 110.487 193.161 110.401 193.269 110.401 193.269 110.315 193.377 110.315 193.377 110.23 193.486 110.23 193.486 110.146 193.595 110.146 193.595 110.062 193.705 110.062 193.705 109.979 193.816 109.979 193.816 109.897 193.927 109.897 193.927 109.816 194.038 109.816 194.038 109.735 194.15 109.735 194.15 109.655 194.263 109.655 194.263 109.576 194.376 109.576 194.376 109.497 194.489 109.497 194.489 109.419 194.603 109.419 194.603 109.342 194.718 109.342 194.718 109.265 194.833 109.265 194.833 109.19 194.948 109.19 194.948 109.115 195.064 109.115 195.064 109.04 195.181 109.04 195.181 108.967 195.297 108.967 195.297 108.894 195.415 108.894 195.415 108.822 195.533 108.822 195.533 108.75 195.651 108.75 195.651 108.68 195.77 108.68 195.77 108.61 195.889 108.61 195.889 108.541 196.008 108.541 196.008 108.472 196.128 108.472 196.128 108.405 196.249 108.405 196.249 108.338 196.369 108.338 196.369 108.272 196.491 108.272 196.491 108.207 196.612 108.207 196.612 108.142 196.735 108.142 196.735 108.078 196.857 108.078 196.857 108.015 196.98 108.015 196.98 108.015 196.98 108.015 196.98 107.953 197.103 107.953 197.103 107.953 197.103 107.953 197.103 107.892 197.227 107.892 197.227 107.892 197.227 107.892 197.227 107.831 197.351 107.831 197.351 107.831 197.351 107.831 197.351 107.771 197.475 107.771 197.475 107.771 197.475 107.771 197.475 107.712 197.6 107.712 197.6 107.712 197.6 107.712 197.6 107.654 197.725 107.654 197.725 107.654 197.725 107.654 197.725 107.596 197.851 107.596 197.851 107.596 197.851 107.596 197.851 107.54 197.977 107.54 197.977 107.54 197.977 107.54 197.977 107.484 198.103 107.484 198.103 107.484 198.103 107.484 198.103 107.428 198.23 107.428 198.23 107.428 198.23 107.428 198.23 107.374 198.357 107.374 198.357 107.374 198.357 107.374 198.357 107.321 198.484 107.321 198.484 107.321 198.484 107.321 198.484 107.268 198.612 107.268 198.612 107.268 198.612 107.268 198.612 107.216 198.74 107.216 198.74 107.216 198.74 107.216 198.74 107.165 198.868 107.165 198.868 107.165 198.868 107.165 198.868 107.114 198.997 107.114 198.997 107.114 198.997 107.114 198.997 107.065 199.126 107.065 199.126 107.065 199.126 107.065 199.126 107.016 199.255 107.016 199.255 107.016 199.255 107.016 199.255 106.968 199.384 106.968 199.384 106.968 199.384 106.968 199.384 106.921 199.514 106.921 199.514 106.921 199.514 106.921 199.514 106.875 199.644 106.875 199.644 106.875 199.644 106.875 199.644 106.83 199.775 106.83 199.775 106.83 199.775 106.83 199.775 106.785 199.905 106.785 199.905 106.785 199.905 106.785 199.905 106.741 200.036 106.741 200.036 106.741 200.036 106.741 200.036 106.698 200.168 106.698 200.168 106.698 200.168 106.698 200.168 106.656 200.299 106.656 200.299 106.656 200.299 106.656 200.299 106.615 200.431 106.615 200.431 106.615 200.431 106.615 200.431 106.574 200.563 106.574 200.563 106.574 200.563 106.574 200.563 106.535 200.695 106.535 200.695 106.535 200.695 106.535 200.695 106.496 200.828 106.496 200.828 106.496 200.828 106.496 200.828 106.458 200.961 106.458 200.961 106.458 200.961 106.458 200.961 106.421 201.094 106.421 201.094 106.421 201.094 106.421 201.094 106.384 201.227 106.384 201.227 106.384 201.227 106.384 201.227 106.349 201.361 106.349 201.361 106.349 201.361 106.349 201.361 106.314 201.494 106.314 201.494 106.314 201.494 106.314 201.494 106.281 201.628 106.281 201.628 106.281 201.628 106.281 201.628 106.248 201.762 106.248 201.762 106.248 201.762 106.248 201.762 106.216 201.897 106.216 201.897 106.216 201.897 106.216 201.897 106.184 202.031 106.184 202.031 106.184 202.031 106.184 202.031 106.154 202.166 106.154 202.166 106.154 202.166 106.154 202.166 106.124 202.301 106.124 202.301 106.124 202.301 106.124 202.301 106.096 202.436 106.096 202.436 106.096 202.436 106.096 202.436 106.068 202.571 106.068 202.571 106.068 202.572 106.068 202.572 106.041 202.707 106.041 202.707 106.041 202.707 106.041 202.707 106.015 202.843 106.015 202.843 106.015 202.843 106.015 202.843 105.989 202.978 105.989 202.978 105.989 202.978 105.989 202.978 105.965 203.114 105.965 203.114 105.965 203.114 105.965 203.114 105.941 203.251 105.941 203.251 105.941 203.251 105.941 203.251 105.919 203.387 105.919 203.387 105.919 203.387 105.919 203.387 105.897 203.523 105.897 203.523 105.897 203.523 105.897 203.523 105.876 203.66 105.876 203.66 105.876 203.66 105.876 203.66 105.856 203.796 105.856 203.797 105.856 203.797 105.856 203.797 105.836 203.933 105.836 203.933 105.836 203.933 105.836 203.933 105.818 204.07 105.818 204.07 105.818 204.07 105.818 204.07 105.8 204.207 105.8 204.207 105.8 204.207 105.8 204.207 105.792 204.275 105.792 209.585 105.793 209.591 105.793 209.592 105.793 209.592 105.793 209.592 105.81 209.729 105.81 209.729 105.81 209.73 105.81 209.73 105.828 209.867 105.828 209.867 105.828 209.868 105.828 209.868 105.847 210.005 105.847 210.005 105.847 210.006 105.847 210.006 105.867 210.142 105.867 210.143 105.867 210.143 105.867 210.144 105.888 210.28 105.888 210.28 105.888 210.281 105.888 210.281 105.91 210.418 105.91 210.418 105.91 210.419 105.91 210.419 105.932 210.555 105.932 210.555 105.932 210.556 105.932 210.556 105.955 210.693 105.955 210.693 105.956 210.694 105.956 210.694 105.98 210.83 105.98 210.83 105.98 210.831 105.98 210.831 106.005 210.967 106.005 210.968 106.005 210.968 106.005 210.969 106.031 211.104 106.031 211.105 106.031 211.106 106.031 211.106 106.058 211.241 106.058 211.242 106.058 211.243 106.058 211.243 106.085 211.378 106.086 211.379 106.086 211.38 106.086 211.38 106.114 211.515 106.114 211.516 106.114 211.517 106.114 211.517 106.144 211.652 106.144 211.652 106.144 211.653 106.144 211.654 106.174 211.789 106.174 211.789 106.174 211.79 106.174 211.79 106.205 211.925 106.205 211.925 106.206 211.926 106.206 211.927 106.237 212.061 106.237 212.062 106.238 212.063 106.238 212.063 106.27 212.197 106.27 212.198 106.271 212.199 106.271 212.199 106.304 212.333 106.304 212.334 106.304 212.335 106.305 212.335 106.339 212.469 106.339 212.469 106.339 212.47 106.339 212.471 106.372 212.595 195.917 212.595 266.208 195.092 399.529 161.893 399.663 161.859 399.797 161.824 399.93 161.789 400.064 161.752 400.197 161.715 400.329 161.677 400.462 161.639 400.594 161.599 400.726 161.558 400.858 161.517 400.989 161.475 401.121 161.432 401.252 161.388 401.382 161.344 401.513 161.298 401.643 161.252 401.773 161.205 401.902 161.157 402.031 161.108 402.16 161.059 402.289 161.008 402.417 160.957 402.545 160.905 402.673 160.852 402.8 160.799 402.927 160.744 403.053 160.689 403.18 160.633 403.306 160.577 403.431 160.519 403.556 160.461 403.681 160.402 403.806 160.342 403.93 160.281 404.053 160.22 404.176 160.157 404.299 160.094 404.422 160.031 404.544 159.966 404.666 159.901 404.787 159.835 404.908 159.768 405.028 159.7 405.148 159.632 405.268 159.563 405.387 159.493 405.505 159.422 405.624 159.351 405.741 159.279 405.859 159.206 405.976 159.132 406.092 159.058 406.208 158.983 406.323 158.907 406.323 158.907 406.438 158.831 406.438 158.831 406.553 158.753 406.553 158.753 406.667 158.675 406.667 158.675 406.78 158.597 406.78 158.597 406.893 158.517 406.893 158.517 407.006 158.437 407.006 158.437 407.118 158.357 407.118 158.357 407.229 158.275 407.229 158.275 407.34 158.193 407.34 158.193 407.451 158.11 407.451 158.11 407.561 158.026 407.561 158.026 407.67 157.942 407.67 157.942 407.779 157.857 407.779 157.857 407.887 157.771 407.887 157.771 407.995 157.685 407.995 157.685 408.102 157.598 408.102 157.598 408.209 157.51 408.209 157.51 408.315 157.422 408.315 157.422 408.42 157.333 408.42 157.333 408.526 157.243 408.526 157.243 408.63 157.153 408.63 157.153 408.734 157.062 408.734 157.062 408.837 156.97 408.837 156.97 408.94 156.878 408.94 156.878 409.042 156.785 409.042 156.785 409.144 156.692 409.144 156.692 409.245 156.597 409.245 156.597 409.345 156.503 409.345 156.503 409.445 156.407 409.445 156.407 409.544 156.311 409.544 156.311 409.642 156.214 409.642 156.214 409.74 156.117 409.74 156.117 409.838 156.019 409.838 156.019 409.934 155.92 409.934 155.92 410.03 155.821 410.03 155.821 410.126 155.721 410.126 155.721 410.221 155.621 410.221 155.621 410.315 155.52 410.315 155.52 410.408 155.419 410.409 155.419 410.501 155.316 410.501 155.316 410.594 155.214 410.594 155.214 410.685 155.11 410.685 155.11 410.776 155.006 410.776 155.006 410.867 154.902 410.867 154.902 410.956 154.797 410.956 154.797 411.045 154.691 411.045 154.691 411.134 154.585 411.134 154.585 411.221 154.478 411.221 154.478 411.308 154.371 411.308 154.371 411.395 154.263 411.395 154.263 411.48 154.155 411.48 154.155 411.565 154.046 411.565 154.046 411.649 153.937 411.649 153.937 411.733 153.827 411.733 153.827 411.816 153.716 411.816 153.716 411.898 153.605 411.898 153.605 411.979 153.494 411.979 153.494 412.06 153.382 412.06 153.382 412.14 153.269 412.14 153.269 412.22 153.156 412.22 153.156 412.298 153.043 412.298 153.043 412.376 152.929 412.376 152.929 412.453 152.814 412.453 152.814 412.53 152.699 412.53 152.699 412.606 152.584 412.606 152.584 412.681 152.468 412.681 152.468 412.755 152.352 412.755 152.352 412.829 152.235 412.829 152.235 412.901 152.117 412.901 152.117 412.974 152 412.974 152 413.045 151.881 413.045 151.881 413.115 151.763 413.115 151.763 413.185 151.643 413.185 151.643 413.254 151.524 413.254 151.524 413.323 151.404 413.323 151.404 413.39 151.283 413.39 151.283 413.457 151.163 413.457 151.163 413.523 151.041 413.523 151.041 413.589 150.92 413.589 150.92 413.653 150.798 413.653 150.798 413.717 150.675 413.717 150.675 413.78 150.552 413.78 150.552 413.78 150.552 413.78 150.552 413.842 150.429 413.842 150.429 413.842 150.429 413.842 150.429 413.904 150.305 413.904 150.305 413.904 150.305 413.904 150.305 413.964 150.181 413.964 150.181 413.964 150.181 413.964 150.181 414.024 150.057 414.024 150.057 414.024 150.057 414.024 150.057 414.083 149.932 414.083 149.932 414.083 149.932 414.083 149.932 414.141 149.807 414.142 149.807 414.142 149.807 414.142 149.807 414.199 149.681 414.199 149.681 414.199 149.681 414.199 149.681 414.256 149.555 414.256 149.555 414.256 149.555 414.256 149.555 414.312 149.429 414.312 149.429 414.312 149.429 414.312 149.429 414.367 149.302 414.367 149.302 414.367 149.302 414.367 149.302 414.421 149.175 414.421 149.175 414.421 149.175 414.421 149.175 414.475 149.048 414.475 149.048 414.475 149.048 414.475 149.048 414.527 148.92 414.527 148.92 414.527 148.92 414.527 148.92 414.579 148.792 414.579 148.792 414.579 148.792 414.579 148.792 414.631 148.664 414.631 148.664 414.631 148.664 414.631 148.664 414.681 148.536 414.681 148.536 414.681 148.535 414.681 148.535 414.73 148.407 414.73 148.407 414.73 148.407 414.73 148.407 414.779 148.277 414.779 148.277 414.779 148.277 414.779 148.277 414.827 148.148 414.827 148.148 414.827 148.148 414.827 148.148 414.874 148.018 414.874 148.018 414.874 148.018 414.874 148.018 414.92 147.888 414.92 147.888 414.92 147.888 414.92 147.888 414.966 147.757 414.966 147.757 414.966 147.757 414.966 147.757 415.01 147.627 415.01 147.627 415.01 147.627 415.01 147.627 415.054 147.496 415.054 147.496 415.054 147.496 415.054 147.496 415.097 147.364 415.097 147.364 415.097 147.364 415.097 147.364 415.139 147.233 415.139 147.233 415.139 147.233 415.139 147.233 415.18 147.101 415.18 147.101 415.18 147.101 415.18 147.101 415.221 146.969 415.221 146.969 415.221 146.969 415.221 146.969 415.261 146.837 415.261 146.837 415.261 146.837 415.261 146.837 415.299 146.704 415.299 146.704 415.299 146.704 415.299 146.704 415.337 146.571 415.337 146.571 415.337 146.571 415.337 146.571 415.374 146.438 415.374 146.438 415.375 146.438 415.375 146.438 415.411 146.305 415.411 146.305 415.411 146.305 415.411 146.305 415.446 146.172 415.446 146.172 415.446 146.171 415.446 146.171 415.481 146.038 415.481 146.038 415.481 146.038 415.481 146.038 415.515 145.904 415.515 145.904 415.515 145.904 415.515 145.904 415.548 145.77 415.548 145.77 415.548 145.77 415.548 145.77 415.58 145.635 415.58 145.635 415.58 145.635 415.58 145.635 415.611 145.501 415.611 145.501 415.611 145.501 415.611 145.501 415.641 145.366 415.641 145.366 415.641 145.366 415.641 145.366 415.671 145.231 415.671 145.231 415.671 145.231 415.671 145.231 415.7 145.096 415.7 145.096 415.7 145.096 415.7 145.096 415.727 144.961 415.727 144.961 415.727 144.961 415.727 144.961 415.754 144.825 415.754 144.825 415.754 144.825 415.754 144.825 415.78 144.69 415.78 144.689 415.781 144.689 415.781 144.689 415.806 144.554 415.806 144.554 415.806 144.554 415.806 144.554 415.83 144.418 415.83 144.418 415.83 144.418 415.83 144.418 415.854 144.282 415.854 144.282 415.854 144.282 415.854 144.282 415.876 144.145 415.876 144.145 415.876 144.145 415.877 144.145 415.898 144.009 415.898 144.009 415.898 144.009 415.898 144.009 415.919 143.872 415.919 143.872 415.919 143.872 415.919 143.872 415.94 143.736 415.94 143.736 415.94 143.736 415.94 143.736 415.959 143.599 415.959 143.599 415.959 143.599 415.959 143.599 415.977 143.462 415.977 143.462 415.977 143.462 415.977 143.462 415.995 143.325 415.995 143.325 415.995 143.325 415.995 143.325 416.011 143.188 416.011 143.188 416.011 143.188 416.011 143.188 416.027 143.05 416.027 143.05 416.027 143.05 416.027 143.05 416.042 142.913 416.042 142.913 416.042 142.913 416.042 142.913 416.056 142.776 416.056 142.775 416.056 142.775 416.056 142.775 416.07 142.638 416.07 142.638 416.07 142.638 416.07 142.638 416.082 142.5 416.082 142.5 416.082 142.5 416.082 142.5 416.093 142.363 416.093 142.363 416.093 142.362 416.093 142.362 416.104 142.225 416.104 142.225 416.104 142.225 416.104 142.225 416.114 142.087 416.114 142.087 416.114 142.087 416.114 142.087 416.123 141.949 416.123 141.949 416.123 141.949 416.123 141.949 416.131 141.811 416.131 141.811 416.131 141.811 416.131 141.811 416.138 141.673 416.138 141.673 416.138 141.673 416.138 141.673 416.144 141.535 416.144 141.535 416.144 141.535 416.144 141.535 416.15 141.397 416.15 141.397 416.15 141.396 416.15 141.396 416.154 141.258 416.154 141.258 416.154 141.258 416.154 141.258 416.158 141.12 416.158 141.12 416.158 141.12 416.158 141.12 416.161 140.982 416.161 140.982 416.161 140.982 416.161 140.982 416.163 140.844 416.163 140.844 416.163 140.843 416.163 140.843 416.164 140.705 416.164 140.705 416.164 140.705 416.164 140.705 416.164 140.567 416.164 140.567 416.164 140.567 416.164 140.567 416.163 140.429 416.163 140.429 416.163 140.428 416.163 140.428 416.162 140.29 416.162 140.29 416.162 140.29 416.162 140.29 416.159 140.152 416.159 140.152 416.159 140.152 416.159 140.152 416.156 140.014 416.156 140.013 416.156 140.013 416.156 140.013 416.152 139.875 416.152 139.875 416.152 139.875 416.152 139.875 416.147 139.737 416.147 139.737 416.147 139.737 416.147 139.736 416.141 139.599 416.141 139.598 416.141 139.598 416.141 139.598 416.134 139.46 416.134 139.46 416.134 139.46 416.134 139.46 416.127 139.322 416.127 139.322 416.127 139.322 416.127 139.321 416.118 139.184 416.118 139.184 416.118 139.183 416.118 139.183 416.109 139.045 416.109 139.045 416.109 139.045 416.109 139.045 416.099 138.907 416.098 138.907 416.098 138.907 416.098 138.907 416.087 138.769 416.087 138.769 416.087 138.769 416.087 138.768 416.075 138.631 416.075 138.631 416.075 138.63 416.075 138.63 416.062 138.493 416.062 138.493 416.062 138.492 416.062 138.492 416.049 138.355 416.049 138.355 416.049 138.354 416.049 138.354 416.034 138.217 416.034 138.217 416.034 138.216 416.034 138.216 416.019 138.079 416.019 138.079 416.019 138.078 416.019 138.078 416.002 137.941 416.002 137.941 416.002 137.94 416.002 137.94 415.985 137.803 415.985 137.803 415.985 137.802 415.985 137.802 415.967 137.665 415.967 137.665 415.967 137.664 415.967 137.664 415.948 137.527 415.948 137.527 415.948 137.527 415.948 137.526 415.928 137.39 415.928 137.389 415.928 137.389 415.928 137.389 415.907 137.252 415.907 137.252 415.907 137.251 415.907 137.251 415.886 137.114 415.886 137.114 415.886 137.114 415.885 137.113 415.863 136.977 415.863 136.977 415.863 136.976 415.863 136.976 415.84 136.84 415.84 136.839 415.84 136.839 415.84 136.838 415.816 136.702 415.816 136.702 415.815 136.701 415.815 136.701 415.79 136.565 415.79 136.565 415.79 136.564 415.79 136.563 415.764 136.428 415.764 136.427 415.764 136.427 415.764 136.426 415.738 136.291 415.737 136.29 415.737 136.289 415.737 136.289 415.71 136.154 415.71 136.153 415.71 136.152 415.709 136.152 415.681 136.017 415.681 136.016 415.681 136.016 415.681 136.015 415.652 135.88 415.652 135.88 415.651 135.879 415.651 135.878 415.621 135.744 415.621 135.743 415.621 135.742 415.621 135.742 415.59 135.607 415.59 135.607 415.59 135.606 415.59 135.605 415.558 135.471 415.558 135.47 415.558 135.469 415.557 135.469 415.525 135.335 415.525 135.334 415.525 135.333 415.525 135.333 415.491 135.199 415.491 135.198 415.491 135.197 415.491 135.197 415.456 135.063 415.456 135.063 415.456 135.062 415.456 135.061 415.427 134.951 415.456 134.84 415.456 134.84 415.456 134.839 415.456 134.839 415.491 134.705 415.491 134.704 415.491 134.703 415.491 134.703 415.525 134.569 415.525 134.568 415.525 134.567 415.525 134.567 415.557 134.433 415.558 134.432 415.558 134.431 415.558 134.431 415.59 134.296 415.59 134.296 415.59 134.295 415.59 134.295 415.621 134.16 415.621 134.16 415.621 134.159 415.621 134.158 415.651 134.023 415.651 134.023 415.652 134.022 415.652 134.022 415.681 133.887 415.681 133.886 415.681 133.885 415.681 133.885 415.709 133.75 415.71 133.749 415.71 133.748 415.71 133.748 415.737 133.613 415.737 133.612 415.737 133.611 415.738 133.611 415.764 133.476 415.764 133.475 415.764 133.474 415.764 133.474 415.79 133.338 415.79 133.338 415.79 133.337 415.79 133.337 415.815 133.201 415.815 133.201 415.816 133.2 415.816 133.2 415.84 133.064 415.84 133.063 415.84 133.063 415.84 133.062 415.863 132.926 415.863 132.926 415.863 132.925 415.863 132.925 415.885 132.788 415.886 132.788 415.886 132.788 415.886 132.787 415.907 132.651 415.907 132.651 415.907 132.65 415.907 132.65 415.928 132.513 415.928 132.513 415.928 132.512 415.928 132.512 415.948 132.375 415.948 132.375 415.948 132.375 415.948 132.374 415.967 132.238 415.967 132.237 415.967 132.237 415.967 132.237 415.985 132.1 415.985 132.1 415.985 132.099 415.985 132.099 416.002 131.962 416.002 131.962 416.002 131.961 416.002 131.961 416.019 131.824 416.019 131.824 416.019 131.823 416.019 131.823 416.034 131.686 416.034 131.686 416.034 131.685 416.034 131.685 416.049 131.548 416.049 131.548 416.049 131.547 416.049 131.547 416.062 131.41 416.062 131.409 416.062 131.409 416.062 131.409 416.075 131.271 416.075 131.271 416.075 131.271 416.075 131.271 416.087 131.133 416.087 131.133 416.087 131.133 416.087 131.133 416.098 130.995 416.098 130.995 416.098 130.995 416.099 130.995 416.109 130.857 416.109 130.857 416.109 130.856 416.109 130.856 416.118 130.719 416.118 130.718 416.118 130.718 416.118 130.718 416.127 130.58 416.127 130.58 416.127 130.58 416.127 130.58 416.134 130.442 416.134 130.442 416.134 130.442 416.134 130.442 416.141 130.304 416.141 130.304 416.141 130.303 416.141 130.303 416.147 130.165 416.147 130.165 416.147 130.165 416.147 130.165 416.152 130.027 416.152 130.027 416.152 130.027 416.152 130.027 416.156 129.889 416.156 129.888 416.156 129.888 416.156 129.888 416.159 129.75 416.159 129.75 416.159 129.75 416.159 129.75 416.162 129.612 416.162 129.612 416.162 129.612 416.162 129.611 416.163 129.473 416.163 129.473 416.163 129.473 416.163 129.473 416.164 129.335 416.164 129.335 416.164 129.335 416.164 129.335 416.164 129.197 416.164 129.197 416.164 129.197 416.164 129.196 416.163 129.058 416.163 129.058 416.163 129.058 416.163 129.058 416.161 128.92 416.161 128.92 416.161 128.92 416.161 128.92 416.158 128.782 416.158 128.782 416.158 128.782 416.158 128.782 416.154 128.644 416.154 128.643 416.154 128.643 416.154 128.643 416.15 128.505 416.15 128.505 416.15 128.505 416.15 128.505 416.144 128.367 416.144 128.367 416.144 128.367 416.144 128.367 416.138 128.229 416.138 128.229 416.138 128.229 416.138 128.229 416.131 128.091 416.131 128.091 416.131 128.091 416.131 128.091 416.123 127.953 416.123 127.953 416.123 127.953 416.123 127.953 416.114 127.815 416.114 127.815 416.114 127.815 416.114 127.815 416.104 127.677 416.104 127.677 416.104 127.677 416.104 127.677 416.093 127.539 416.093 127.539 416.093 127.539 416.093 127.539 416.082 127.402 416.082 127.402 416.082 127.401 416.082 127.401 416.07 127.264 416.07 127.264 416.07 127.264 416.07 127.264 416.056 127.126 416.056 127.126 416.056 127.126 416.056 127.126 416.042 126.989 416.042 126.989 416.042 126.989 416.042 126.989 416.027 126.851 416.027 126.851 416.027 126.851 416.027 126.851 416.011 126.714 416.011 126.714 416.011 126.714 416.011 126.714 415.995 126.577 415.995 126.577 415.995 126.577 415.995 126.577 415.977 126.44 415.977 126.44 415.977 126.44 415.977 126.44 415.959 126.303 415.959 126.303 415.959 126.303 415.959 126.303 415.94 126.166 415.94 126.166 415.94 126.166 415.94 126.166 415.919 126.03 415.919 126.029 415.919 126.029 415.919 126.029 415.898 125.893 415.898 125.893 415.898 125.893 415.898 125.893 415.877 125.757 415.876 125.757 415.876 125.756 415.876 125.756 415.854 125.62 415.854 125.62 415.854 125.62 415.854 125.62 415.83 125.484 415.83 125.484 415.83 125.484 415.83 125.484 415.806 125.348 415.806 125.348 415.806 125.348 415.806 125.348 415.781 125.212 415.781 125.212 415.78 125.212 415.78 125.212 415.754 125.077 415.754 125.077 415.754 125.077 415.754 125.077 415.727 124.941 415.727 124.941 415.727 124.941 415.727 124.941 415.7 124.806 415.7 124.806 415.7 124.806 415.7 124.806 415.671 124.671 415.671 124.671 415.671 124.671 415.671 124.671 415.641 124.536 415.641 124.536 415.641 124.536 415.641 124.536 415.611 124.401 415.611 124.401 415.611 124.401 415.611 124.401 415.58 124.266 415.58 124.266 415.58 124.266 415.58 124.266 415.548 124.132 415.548 124.132 415.548 124.132 415.548 124.132 415.515 123.998 415.515 123.998 415.515 123.998 415.515 123.998 415.481 123.864 415.481 123.864 415.481 123.864 415.481 123.864 415.446 123.73 415.446 123.73 415.446 123.73 415.446 123.73 415.411 123.597 415.411 123.597 415.411 123.597 415.411 123.597 415.375 123.464 415.375 123.464 415.374 123.463 415.374 123.463 415.337 123.33 415.337 123.33 415.337 123.33 415.337 123.33 415.299 123.198 415.299 123.198 415.299 123.198 415.299 123.198 415.261 123.065 415.261 123.065 415.261 123.065 415.261 123.065 415.221 122.933 415.221 122.933 415.221 122.933 415.221 122.933 415.18 122.801 415.18 122.801 415.18 122.801 415.18 122.801 415.139 122.669 415.139 122.669 415.139 122.669 415.139 122.669 415.097 122.537 415.097 122.537 415.097 122.537 415.097 122.537 415.054 122.406 415.054 122.406 415.054 122.406 415.054 122.406 415.01 122.275 415.01 122.275 415.01 122.275 415.01 122.275 414.966 122.144 414.966 122.144 414.966 122.144 414.966 122.144 414.92 122.014 414.92 122.014 414.92 122.014 414.92 122.014 414.874 121.884 414.874 121.884 414.874 121.884 414.874 121.884 414.827 121.754 414.827 121.754 414.827 121.754 414.827 121.754 414.779 121.624 414.779 121.624 414.779 121.624 414.779 121.624 414.73 121.495 414.73 121.495 414.73 121.495 414.73 121.495 414.681 121.366 414.681 121.366 414.681 121.366 414.681 121.366 414.631 121.238 414.631 121.238 414.631 121.238 414.631 121.238 414.579 121.109 414.579 121.109 414.579 121.109 414.579 121.109 414.527 120.981 414.527 120.981 414.527 120.981 414.527 120.981 414.475 120.854 414.475 120.854 414.475 120.854 414.475 120.854 414.421 120.726 414.421 120.726 414.421 120.726 414.421 120.726 414.367 120.599 414.367 120.599 414.367 120.599 414.367 120.599 414.312 120.473 414.312 120.473 414.312 120.473 414.312 120.473 414.256 120.347 414.256 120.347 414.256 120.347 414.256 120.347 414.199 120.221 414.199 120.221 414.199 120.221 414.199 120.221 414.142 120.095 414.142 120.095 414.142 120.095 414.141 120.095 414.083 119.97 414.083 119.97 414.083 119.97 414.083 119.97 414.024 119.845 414.024 119.845 414.024 119.845 414.024 119.845 413.964 119.721 413.964 119.721 413.964 119.721 413.964 119.721 413.904 119.597 413.904 119.597 413.904 119.597 413.904 119.597 413.842 119.473 413.842 119.473 413.842 119.473 413.842 119.473 413.78 119.35 413.78 119.35 413.78 119.35 413.78 119.35 413.717 119.227 413.717 119.227 413.653 119.104 413.653 119.104 413.589 118.982 413.589 118.982 413.523 118.86 413.523 118.86 413.457 118.739 413.457 118.739 413.39 118.618 413.39 118.618 413.323 118.498 413.323 118.498 413.254 118.378 413.254 118.378 413.185 118.258 413.185 118.258 413.115 118.139 413.115 118.139 413.045 118.02 413.045 118.02 412.974 117.902 412.974 117.902 412.901 117.784 412.901 117.784 412.829 117.667 412.829 117.667 412.755 117.55 412.755 117.55 412.681 117.434 412.681 117.434 412.606 117.318 412.606 117.318 412.53 117.202 412.53 117.202 412.453 117.087 412.453 117.087 412.376 116.973 412.376 116.973 412.298 116.859 412.298 116.859 412.22 116.745 412.22 116.745 412.14 116.632 412.14 116.632 412.06 116.52 412.06 116.52 411.979 116.408 411.979 116.408 411.898 116.296 411.898 116.296 411.816 116.185 411.816 116.185 411.733 116.075 411.733 116.075 411.649 115.965 411.649 115.965 411.565 115.856 411.565 115.856 411.48 115.747 411.48 115.747 411.395 115.638 411.395 115.638 411.308 115.531 411.308 115.531 411.221 115.423 411.221 115.423 411.134 115.317 411.134 115.317 411.045 115.21 411.045 115.21 410.956 115.105 410.956 115.105 410.867 115 410.867 115 410.776 114.895 410.776 114.895 410.685 114.791 410.685 114.791 410.594 114.688 410.594 114.688 410.501 114.585 410.501 114.585 410.409 114.483 410.408 114.483 410.315 114.382 410.315 114.382 410.221 114.281 410.221 114.281 410.126 114.18 410.126 114.18 410.03 114.081 410.03 114.081 409.934 113.981 409.934 113.981 409.838 113.883 409.838 113.883 409.74 113.785 409.74 113.785 409.642 113.687 409.642 113.687 409.544 113.591 409.544 113.591 409.445 113.495 409.445 113.495 409.345 113.399 409.345 113.399 409.245 113.304 409.245 113.304 409.144 113.21 409.144 113.21 409.042 113.117 409.042 113.117 408.94 113.024 408.94 113.024 408.837 112.931 408.837 112.931 408.734 112.84 408.734 112.84 408.63 112.749 408.63 112.749 408.526 112.658 408.526 112.658 408.42 112.569 408.42 112.569 408.315 112.48 408.315 112.48 408.209 112.391 408.209 112.391 408.102 112.304 408.102 112.304 407.995 112.217 407.995 112.217 407.887 112.13 407.887 112.13 407.779 112.045 407.779 112.045 407.67 111.96 407.67 111.96 407.561 111.875 407.561 111.875 407.451 111.792 407.451 111.792 407.34 111.709 407.34 111.709 407.229 111.627 407.229 111.627 407.118 111.545 407.118 111.545 407.006 111.464 407.006 111.464 406.893 111.384 406.893 111.384 406.78 111.305 406.78 111.305 406.667 111.226 406.667 111.226 406.553 111.148 406.553 111.148 406.438 111.071 406.438 111.071 406.323 110.995 406.323 110.995 406.208 110.919 406.092 110.844 405.976 110.769 405.859 110.696 405.741 110.623 405.624 110.551 405.505 110.48 405.387 110.409 405.268 110.339 405.148 110.27 405.028 110.202 404.908 110.134 404.787 110.067 404.666 110.001 404.544 109.936 404.422 109.871 404.299 109.807 404.176 109.744 404.053 109.682 403.93 109.621 403.806 109.56 403.681 109.5 403.556 109.441 403.431 109.383 403.306 109.325 403.18 109.268 403.053 109.212 402.927 109.157 402.8 109.103 402.673 109.049 402.545 108.997 402.417 108.945 402.289 108.894 402.16 108.843 402.031 108.794 401.902 108.745 401.773 108.697 401.643 108.65 401.513 108.604 401.382 108.558 401.252 108.514 401.121 108.47 400.989 108.427 400.858 108.385 400.726 108.343 400.594 108.303 400.462 108.263 400.329 108.224 400.197 108.186 400.064 108.149 399.93 108.113 399.797 108.077 399.663 108.043 399.529 108.009 266.208 74.8102 195.917 57.3067 106.372 57.3067 106.339 57.431 106.339 57.4315 106.339 57.4324 106.339 57.4329 106.305 57.5666 106.304 57.5671 106.304 57.5681 106.304 57.5685 106.271 57.7025 106.271 57.703 106.27 57.7039 106.27 57.7044 106.238 57.8386 106.238 57.8391 106.237 57.84 106.237 57.8405 106.206 57.9749 106.206 57.9754 106.205 57.9763 106.205 57.9768 106.174 58.1114 106.174 58.1118 106.174 58.1127 106.174 58.1132 106.144 58.248 106.144 58.2484 106.144 58.2493 106.144 58.2498 106.114 58.3848 106.114 58.3852 106.114 58.3861 106.114 58.3865 106.086 58.5217 106.086 58.5221 106.086 58.523 106.085 58.5234 106.058 58.6587 106.058 58.6591 106.058 58.6599 106.058 58.6604 106.031 58.7959 106.031 58.7962 106.031 58.797 106.031 58.7974 106.005 58.9331 106.005 58.9335 106.005 58.9342 106.005 58.9346 105.98 59.0704 105.98 59.0708 105.98 59.0715 105.98 59.0719 105.956 59.2078 105.956 59.2082 105.955 59.2089 105.955 59.2092 105.932 59.3453 105.932 59.3457 105.932 59.3463 105.932 59.3466 105.91 59.4829 105.91 59.4832 105.91 59.4838 105.91 59.4841 105.888 59.6205 105.888 59.6208 105.888 59.6214 105.888 59.6217 105.867 59.7582 105.867 59.7585 105.867 59.7591 105.867 59.7593 105.847 59.896 105.847 59.8963 105.847 59.8968 105.847 59.897 105.828 60.0338 105.828 60.034 105.828 60.0345 105.828 60.0348 105.81 60.1717 105.81 60.1719 105.81 60.1724 105.81 60.1726 105.793 60.3096 105.793 60.3098 105.793 60.3102 105.793 60.3104 105.792 60.317 105.792 65.6264 105.8 65.6944 105.8 65.6944 105.8 65.6945 105.8 65.6945 105.818 65.8314 105.818 65.8315 105.818 65.8315 105.818 65.8315 105.836 65.9684 105.836 65.9684 105.836 65.9685 105.836 65.9685 105.856 66.1052 105.856 66.1052 105.856 66.1053 105.856 66.1053 105.876 66.2419 105.876 66.2419 105.876 66.242 105.876 66.242 105.897 66.3785 105.897 66.3785 105.897 66.3785 105.897 66.3785 105.919 66.5149 105.919 66.5149 105.919 66.5149 105.919 66.515 105.941 66.6512 105.941 66.6512 105.941 66.6512 105.941 66.6512 105.965 66.7873 105.965 66.7873 105.965 66.7874 105.965 66.7874 105.989 66.9233 105.989 66.9233 105.989 66.9233 105.989 66.9233 106.015 67.0591 106.015 67.0591 106.015 67.0592 106.015 67.0592 106.041 67.1948 106.041 67.1948 106.041 67.1948 106.041 67.1948 106.068 67.3302 106.068 67.3303 106.068 67.3303 106.068 67.3303 106.096 67.4656 106.096 67.4656 106.096 67.4656 106.096 67.4656 106.124 67.6007 106.124 67.6007 106.124 67.6007 106.124 67.6007 106.154 67.7356 106.154 67.7356 106.154 67.7357 106.154 67.7357 106.184 67.8704 106.184 67.8704 106.184 67.8704 106.184 67.8704 106.216 68.0049 106.216 68.005 106.216 68.005 106.216 68.005 106.248 68.1393 106.248 68.1393 106.248 68.1393 106.248 68.1394 106.281 68.2735 106.281 68.2735 106.281 68.2735 106.281 68.2735 106.314 68.4074 106.314 68.4074 106.314 68.4074 106.314 68.4074 106.349 68.5411 106.349 68.5411 106.349 68.5411 106.349 68.5412 106.384 68.6746 106.384 68.6746 106.384 68.6747 106.384 68.6747 106.421 68.8079 106.421 68.8079 106.421 68.8079 106.421 68.8079 106.458 68.9409 106.458 68.9409 106.458 68.941 106.458 68.941 106.496 69.0737 106.496 69.0737 106.496 69.0738 106.496 69.0738 106.535 69.2063 106.535 69.2063 106.535 69.2063 106.535 69.2063 106.574 69.3386 106.574 69.3386 106.574 69.3386 106.574 69.3386 106.615 69.4707 106.615 69.4707 106.615 69.4707 106.615 69.4707 106.656 69.6025 106.656 69.6025 106.656 69.6025 106.656 69.6025 106.698 69.734 106.698 69.734 106.698 69.734 106.698 69.734 106.741 69.8653 106.741 69.8653 106.741 69.8653 106.741 69.8653 106.785 69.9963 106.785 69.9963 106.785 69.9963 106.785 69.9963 106.83 70.127 106.83 70.127 106.83 70.127 106.83 70.127 106.875 70.2574 106.875 70.2574 106.875 70.2574 106.875 70.2574 106.921 70.3876 106.921 70.3876 106.921 70.3876 106.921 70.3876 106.968 70.5174 106.968 70.5174 106.968 70.5174 106.968 70.5174 107.016 70.6469 107.016 70.647 107.016 70.647 107.016 70.647 107.065 70.7762 107.065 70.7762 107.065 70.7762 107.065 70.7762 107.114 70.9051 107.114 70.9051 107.114 70.9052 107.114 70.9052 107.165 71.0338 107.165 71.0338 107.165 71.0338 107.165 71.0338 107.216 71.162 107.216 71.1621 107.216 71.1621 107.216 71.1621 107.268 71.29 107.268 71.29 107.268 71.29 107.268 71.29 107.321 71.4177 107.321 71.4177 107.321 71.4177 107.321 71.4177 107.374 71.545 107.374 71.545 107.374 71.545 107.374 71.545 107.428 71.6719 107.428 71.672 107.428 71.672 107.428 71.672 107.484 71.7986 107.484 71.7986 107.484 71.7986 107.484 71.7986 107.54 71.9248 107.54 71.9248 107.54 71.9249 107.54 71.9249 107.596 72.0508 107.596 72.0508 107.596 72.0508 107.596 72.0508 107.654 72.1763 107.654 72.1763 107.654 72.1763 107.654 72.1763 107.712 72.3015 107.712 72.3015 107.712 72.3015 107.712 72.3015 107.771 72.4263 107.771 72.4263 107.771 72.4263 107.771 72.4263 107.831 72.5508 107.831 72.5508 107.831 72.5508 107.831 72.5508 107.892 72.6748 107.892 72.6749 107.892 72.6749 107.892 72.6749 107.953 72.7985 107.953 72.7985 107.953 72.7985 107.953 72.7985 108.015 72.9218 108.015 72.9218 108.015 72.9218 108.015 72.9218 108.078 73.0447 108.078 73.0447 108.142 73.1672 108.142 73.1672 108.207 73.2893 108.207 73.2893 108.272 73.411 108.272 73.411 108.338 73.5323 108.338 73.5323 108.405 73.6531 108.405 73.6531 108.472 73.7736 108.472 73.7736 108.541 73.8936 108.541 73.8936 108.61 74.0131 108.61 74.0131 108.68 74.1323 108.68 74.1323 108.75 74.2509 108.75 74.251 108.822 74.3692 108.822 74.3692 108.894 74.487 108.894 74.487 108.967 74.6043 108.967 74.6043 109.04 74.7212 109.04 74.7212 109.115 74.8376 109.115 74.8376 109.19 74.9535 109.19 74.9535 109.265 75.069 109.265 75.069 109.342 75.184 109.342 75.184 109.419 75.2985 109.419 75.2985 109.497 75.4125 109.497 75.4125 109.576 75.526 109.576 75.526 109.655 75.639 109.655 75.639 109.735 75.7515 109.735 75.7515 109.816 75.8635 109.816 75.8635 109.897 75.975 109.897 75.975 109.979 76.086 109.979 76.086 110.062 76.1965 110.062 76.1965 110.146 76.3064 110.146 76.3064 110.23 76.4158 110.23 76.4158 110.315 76.5247 110.315 76.5247 110.401 76.633 110.401 76.6331 110.487 76.7409 110.487 76.7409 110.574 76.8481 110.574 76.8481 110.662 76.9548 110.662 76.9548 110.75 77.061 110.75 77.061 110.839 77.1666 110.839 77.1666 110.929 77.2716 110.929 77.2716 111.019 77.376 111.019 77.3761 111.11 77.4799 111.11 77.4799 111.202 77.5833 111.202 77.5833 111.294 77.686 111.294 77.686 111.387 77.7882 111.387 77.7882 111.48 77.8897 111.48 77.8897 111.575 77.9907 111.575 77.9907 111.669 78.0911 111.669 78.0911 111.765 78.1909 111.765 78.1909 111.861 78.29 111.861 78.2901 111.958 78.3886 111.958 78.3886 112.055 78.4866 112.055 78.4866 112.153 78.5839 112.153 78.5839 112.251 78.6807 112.251 78.6807 112.351 78.7768 112.351 78.7768 112.45 78.8722 112.45 78.8723 112.551 78.9671 112.551 78.9671 112.652 79.0613 112.652 79.0613 112.753 79.1549 112.753 79.1549 112.855 79.2478 112.855 79.2478 112.958 79.3401 112.958 79.3401 113.061 79.4318 113.061 79.4318 113.165 79.5228 113.165 79.5228 113.27 79.6131 113.27 79.6131 113.375 79.7028 113.375 79.7028 113.48 79.7918 113.48 79.7918 113.586 79.8801 113.586 79.8801 113.693 79.9678 113.693 79.9678 113.8 80.0548 113.8 80.0548 113.908 80.1411 113.908 80.1411 114.016 80.2268 114.017 80.2268 114.125 80.3118 114.125 80.3118 114.235 80.396 114.235 80.396 114.345 80.4796 114.345 80.4796 114.455 80.5625 114.455 80.5625 114.566 80.6447 114.566 80.6447 114.678 80.7262 114.678 80.7262 114.79 80.807 114.79 80.807 114.902 80.8871 114.902 80.8871 115.015 80.9664 115.015 80.9664 115.129 81.0451 115.129 81.0451 115.243 81.123 115.243 81.1231 115.357 81.2003 115.357 81.2003 115.472 81.2768 115.472 81.2768 115.587 81.3526 115.703 81.4276 115.82 81.5019 115.937 81.5755 116.054 81.6484 116.172 81.7205 116.29 81.7918 116.409 81.8624 116.528 81.9323 116.647 82.0014 116.767 82.0698 116.888 82.1374 117.008 82.2043 117.13 82.2703 117.251 82.3357 117.373 82.4002 117.496 82.464 117.619 82.527 117.742 82.5893 117.866 82.6507 117.99 82.7114 118.114 82.7713 118.239 82.8304 118.364 82.8887 118.49 82.9463 118.616 83.003 118.742 83.059 118.868 83.1141 118.995 83.1685 119.123 83.222 119.25 83.2748 119.378 83.3267 119.506 83.3779 119.635 83.4282 119.764 83.4778 119.893 83.5265 120.023 83.5744 120.152 83.6215 120.283 83.6677 120.413 83.7132 120.544 83.7578 120.675 83.8016 120.806 83.8446 120.937 83.8867 121.069 83.928 121.201 83.9685 121.333 84.0082 121.466 84.047 121.599 84.085 121.732 84.1221" stroke="#1F77B4" stroke-width="4.33333" fill="#1F77B4" fill-opacity="0.3" transform="matrix(1.00107 0 0 1 1489 1008)"/></g><path d="M0 0 0-7.58334" stroke="#000000" stroke-width="1.73333" stroke-linejoin="round" fill="none" transform="matrix(1.00107 0 0 1 1594.91 1235.78)"/><path d="M9.75-0.859219C6.565-0.859219 4.39766 0.450938 3.24797 3.07125 2.09828 5.69563 1.52344 8.81766 1.52344 12.4373 1.52344 14.6961 1.72859 16.8208 2.13891 18.8114 2.55328 20.8061 3.37188 22.4981 4.59469 23.8875 5.82156 25.2809 7.54 25.9777 9.75 25.9777 11.4644 25.9777 12.8659 25.5572 13.9547 24.7163 15.0475 23.8794 15.8803 22.7967 16.4531 21.4683 17.0259 20.1439 17.4159 18.722 17.6231 17.2027 17.8344 15.6874 17.94 14.0989 17.94 12.4373 17.94 10.203 17.7328 8.11078 17.3184 6.16078 16.9081 4.21078 16.0997 2.55328 14.8931 1.18828 13.6866-0.176719 11.9722-0.859219 9.75-0.859219ZM9.75 0.152344C11.1963 0.152344 12.2748 0.89375 12.9858 2.37656 13.6967 3.86344 14.1355 5.50875 14.302 7.3125 14.4686 9.11625 14.5519 11.0338 14.5519 13.065 14.5519 15.0191 14.4686 16.8208 14.302 18.4702 14.1355 20.1236 13.6988 21.6186 12.9919 22.9552 12.2891 24.2958 11.2084 24.9661 9.75 24.9661 8.27938 24.9661 7.1886 24.2917 6.47766 22.943 5.76672 21.5983 5.32797 20.1033 5.16141 18.458 4.99485 16.8167 4.91156 15.0191 4.91156 13.065 4.91156 11.6188 4.9461 10.2538 5.01516 8.97 5.08828 7.68625 5.27719 6.36188 5.58188 4.99688 5.88657 3.63188 6.37813 2.48219 7.05657 1.54781 7.735 0.6175 8.63282 0.152344 9.75 0.152344Z" transform="matrix(1.00107 0 0 -1 1585.14 1270.28)"/><path d="M0 0 0-7.58334" stroke="#000000" stroke-width="1.73333" stroke-linejoin="round" fill="none" transform="matrix(1.00107 0 0 1 1905.81 1235.78)"/><path d="M3.61969 0 3.61969 1.37109C6.86969 1.37109 8.49469 1.78344 8.49469 2.60813L8.49469 23.0831C7.15 22.4331 5.44781 22.1081 3.38813 22.1081L3.38813 23.4792C6.57719 23.4792 8.98422 24.312 10.6092 25.9777L11.1577 25.9777C11.247 25.9777 11.3323 25.9411 11.4136 25.868 11.4989 25.7989 11.5416 25.7197 11.5416 25.6303L11.5416 2.60813C11.5416 1.78344 13.1666 1.37109 16.4166 1.37109L16.4166 0 3.61969 0Z" transform="matrix(1.00107 0 0 -1 1876.53 1270.28)"/><path d="M9.75-0.859219C6.565-0.859219 4.39766 0.450938 3.24797 3.07125 2.09828 5.69563 1.52344 8.81766 1.52344 12.4373 1.52344 14.6961 1.72859 16.8208 2.13891 18.8114 2.55328 20.8061 3.37188 22.4981 4.59469 23.8875 5.82156 25.2809 7.54 25.9777 9.75 25.9777 11.4644 25.9777 12.8659 25.5572 13.9547 24.7163 15.0475 23.8794 15.8803 22.7967 16.4531 21.4683 17.0259 20.1439 17.4159 18.722 17.6231 17.2027 17.8344 15.6874 17.94 14.0989 17.94 12.4373 17.94 10.203 17.7328 8.11078 17.3184 6.16078 16.9081 4.21078 16.0997 2.55328 14.8931 1.18828 13.6866-0.176719 11.9722-0.859219 9.75-0.859219ZM9.75 0.152344C11.1963 0.152344 12.2748 0.89375 12.9858 2.37656 13.6967 3.86344 14.1355 5.50875 14.302 7.3125 14.4686 9.11625 14.5519 11.0338 14.5519 13.065 14.5519 15.0191 14.4686 16.8208 14.302 18.4702 14.1355 20.1236 13.6988 21.6186 12.9919 22.9552 12.2891 24.2958 11.2084 24.9661 9.75 24.9661 8.27938 24.9661 7.1886 24.2917 6.47766 22.943 5.76672 21.5983 5.32797 20.1033 5.16141 18.458 4.99485 16.8167 4.91156 15.0191 4.91156 13.065 4.91156 11.6188 4.9461 10.2538 5.01516 8.97 5.08828 7.68625 5.27719 6.36188 5.58188 4.99688 5.88657 3.63188 6.37813 2.48219 7.05657 1.54781 7.735 0.6175 8.63282 0.152344 9.75 0.152344Z" transform="matrix(1.00107 0 0 -1 1896.05 1270.28)"/><path d="M9.75-0.859219C6.565-0.859219 4.39766 0.450938 3.24797 3.07125 2.09828 5.69563 1.52344 8.81766 1.52344 12.4373 1.52344 14.6961 1.72859 16.8208 2.13891 18.8114 2.55328 20.8061 3.37188 22.4981 4.59469 23.8875 5.82156 25.2809 7.54 25.9777 9.75 25.9777 11.4644 25.9777 12.8659 25.5572 13.9547 24.7163 15.0475 23.8794 15.8803 22.7967 16.4531 21.4683 17.0259 20.1439 17.4159 18.722 17.6231 17.2027 17.8344 15.6874 17.94 14.0989 17.94 12.4373 17.94 10.203 17.7328 8.11078 17.3184 6.16078 16.9081 4.21078 16.0997 2.55328 14.8931 1.18828 13.6866-0.176719 11.9722-0.859219 9.75-0.859219ZM9.75 0.152344C11.1963 0.152344 12.2748 0.89375 12.9858 2.37656 13.6967 3.86344 14.1355 5.50875 14.302 7.3125 14.4686 9.11625 14.5519 11.0338 14.5519 13.065 14.5519 15.0191 14.4686 16.8208 14.302 18.4702 14.1355 20.1236 13.6988 21.6186 12.9919 22.9552 12.2891 24.2958 11.2084 24.9661 9.75 24.9661 8.27938 24.9661 7.1886 24.2917 6.47766 22.943 5.76672 21.5983 5.32797 20.1033 5.16141 18.458 4.99485 16.8167 4.91156 15.0191 4.91156 13.065 4.91156 11.6188 4.9461 10.2538 5.01516 8.97 5.08828 7.68625 5.27719 6.36188 5.58188 4.99688 5.88657 3.63188 6.37813 2.48219 7.05657 1.54781 7.735 0.6175 8.63282 0.152344 9.75 0.152344Z" transform="matrix(1.00107 0 0 -1 1915.57 1270.28)"/><path d="M0 0 7.58334 0" stroke="#000000" stroke-width="1.73333" stroke-linejoin="round" fill="none" transform="matrix(1.00107 0 0 1 1579.36 1220.59)"/><path d="M9.75-0.859219C6.565-0.859219 4.39766 0.450938 3.24797 3.07125 2.09828 5.69563 1.52344 8.81766 1.52344 12.4373 1.52344 14.6961 1.72859 16.8208 2.13891 18.8114 2.55328 20.8061 3.37188 22.4981 4.59469 23.8875 5.82156 25.2809 7.54 25.9777 9.75 25.9777 11.4644 25.9777 12.8659 25.5572 13.9547 24.7163 15.0475 23.8794 15.8803 22.7967 16.4531 21.4683 17.0259 20.1439 17.4159 18.722 17.6231 17.2027 17.8344 15.6874 17.94 14.0989 17.94 12.4373 17.94 10.203 17.7328 8.11078 17.3184 6.16078 16.9081 4.21078 16.0997 2.55328 14.8931 1.18828 13.6866-0.176719 11.9722-0.859219 9.75-0.859219ZM9.75 0.152344C11.1963 0.152344 12.2748 0.89375 12.9858 2.37656 13.6967 3.86344 14.1355 5.50875 14.302 7.3125 14.4686 9.11625 14.5519 11.0338 14.5519 13.065 14.5519 15.0191 14.4686 16.8208 14.302 18.4702 14.1355 20.1236 13.6988 21.6186 12.9919 22.9552 12.2891 24.2958 11.2084 24.9661 9.75 24.9661 8.27938 24.9661 7.1886 24.2917 6.47766 22.943 5.76672 21.5983 5.32797 20.1033 5.16141 18.458 4.99485 16.8167 4.91156 15.0191 4.91156 13.065 4.91156 11.6188 4.9461 10.2538 5.01516 8.97 5.08828 7.68625 5.27719 6.36188 5.58188 4.99688 5.88657 3.63188 6.37813 2.48219 7.05657 1.54781 7.735 0.6175 8.63282 0.152344 9.75 0.152344Z" transform="matrix(1.00107 0 0 -1 1552.25 1233.97)"/><path d="M0 0 7.58334 0" stroke="#000000" stroke-width="1.73333" stroke-linejoin="round" fill="none" transform="matrix(1.00107 0 0 1 1579.36 1065.31)"/><path d="M3.38813 4.43625C3.65625 3.67656 4.06656 2.98391 4.61906 2.35828 5.17156 1.73672 5.82563 1.25125 6.58125 0.901875 7.33688 0.556563 8.12094 0.383906 8.93344 0.383906 10.8103 0.383906 12.1042 1.11313 12.8152 2.57156 13.5261 4.03 13.8816 5.80125 13.8816 7.88532 13.8816 8.78719 13.8653 9.54485 13.8328 10.1583 13.8044 10.7758 13.7191 11.3689 13.5769 11.9377 13.3372 12.8517 12.9147 13.652 12.3094 14.3386 11.7081 15.0252 10.9688 15.3684 10.0913 15.3684 9.21782 15.3684 8.46625 15.2344 7.83657 14.9663 7.20688 14.7022 6.695 14.3914 6.30094 14.0339 5.91094 13.6805 5.5636 13.3067 5.25891 12.9127 4.95422 12.5186 4.76328 12.3094 4.6861 12.285L4.24735 12.285C4.18235 12.285 4.1011 12.3256 4.0036 12.4069 3.91016 12.4881 3.86344 12.5673 3.86344 12.6445L3.86344 25.673C3.86344 25.7339 3.90406 25.7989 3.98531 25.868 4.07063 25.9411 4.15797 25.9777 4.24735 25.9777L4.36313 25.9777C6.11407 25.1367 7.97266 24.7163 9.93891 24.7163 11.8686 24.7163 13.7292 25.1367 15.5208 25.9777L15.6366 25.9777C15.7259 25.9777 15.8072 25.9452 15.8803 25.8802 15.9575 25.8152 15.9961 25.7461 15.9961 25.673L15.9961 25.3074C15.9961 25.1814 15.9717 25.1184 15.923 25.1184 15.0333 23.9363 13.9181 23.0141 12.5775 22.3519 11.2369 21.6938 9.84954 21.3647 8.41547 21.3647 7.37547 21.3647 6.30907 21.5109 5.21625 21.8034L5.21625 14.4361C6.08156 15.1349 6.85344 15.6325 7.53188 15.9291 8.21032 16.2297 9.07766 16.38 10.1339 16.38 11.568 16.38 12.8517 15.9656 13.9852 15.1369 15.1227 14.3122 15.9961 13.2356 16.6055 11.9072 17.2149 10.5828 17.5195 9.23 17.5195 7.84875 17.5195 6.28469 17.1356 4.83641 16.3678 3.50391 15.6 2.17141 14.5559 1.11109 13.2356 0.322969 11.9153-0.465156 10.4813-0.859219 8.93344-0.859219 7.64969-0.859219 6.47157-0.530156 5.39906 0.127969 4.32656 0.790157 3.48156 1.67984 2.86406 2.79703 2.25063 3.91422 1.94391 5.1025 1.94391 6.36188 1.94391 6.94688 2.13281 7.42219 2.51063 7.78782 2.8925 8.1575 3.36985 8.34235 3.94266 8.34235 4.51547 8.34235 4.99485 8.15344 5.38078 7.77563 5.76672 7.40188 5.95969 6.93063 5.95969 6.36188 5.95969 5.80125 5.76672 5.32797 5.38078 4.94203 4.99485 4.5561 4.51547 4.36313 3.94266 4.36313 3.85328 4.36313 3.75172 4.37125 3.63797 4.3875 3.52422 4.40781 3.44094 4.42406 3.38813 4.43625Z" transform="matrix(1.00107 0 0 -1 1532.73 1078.69)"/><path d="M9.75-0.859219C6.565-0.859219 4.39766 0.450938 3.24797 3.07125 2.09828 5.69563 1.52344 8.81766 1.52344 12.4373 1.52344 14.6961 1.72859 16.8208 2.13891 18.8114 2.55328 20.8061 3.37188 22.4981 4.59469 23.8875 5.82156 25.2809 7.54 25.9777 9.75 25.9777 11.4644 25.9777 12.8659 25.5572 13.9547 24.7163 15.0475 23.8794 15.8803 22.7967 16.4531 21.4683 17.0259 20.1439 17.4159 18.722 17.6231 17.2027 17.8344 15.6874 17.94 14.0989 17.94 12.4373 17.94 10.203 17.7328 8.11078 17.3184 6.16078 16.9081 4.21078 16.0997 2.55328 14.8931 1.18828 13.6866-0.176719 11.9722-0.859219 9.75-0.859219ZM9.75 0.152344C11.1963 0.152344 12.2748 0.89375 12.9858 2.37656 13.6967 3.86344 14.1355 5.50875 14.302 7.3125 14.4686 9.11625 14.5519 11.0338 14.5519 13.065 14.5519 15.0191 14.4686 16.8208 14.302 18.4702 14.1355 20.1236 13.6988 21.6186 12.9919 22.9552 12.2891 24.2958 11.2084 24.9661 9.75 24.9661 8.27938 24.9661 7.1886 24.2917 6.47766 22.943 5.76672 21.5983 5.32797 20.1033 5.16141 18.458 4.99485 16.8167 4.91156 15.0191 4.91156 13.065 4.91156 11.6188 4.9461 10.2538 5.01516 8.97 5.08828 7.68625 5.27719 6.36188 5.58188 4.99688 5.88657 3.63188 6.37813 2.48219 7.05657 1.54781 7.735 0.6175 8.63282 0.152344 9.75 0.152344Z" transform="matrix(1.00107 0 0 -1 1552.25 1078.69)"/><g><path d="M416.369 212.595 416.369 57.3067 105.792 57.3067 105.792 212.595 416.369 212.595" stroke="#000000" stroke-width="3.25" stroke-linecap="square" stroke-linejoin="round" fill="none" transform="matrix(1.00107 0 0 1 1489 1008)"/></g><path d="M90.2634 227.782 90.2634 42.12" stroke="#000000" stroke-width="1.73333" stroke-linecap="square" fill="none" transform="matrix(1.00107 0 0 1 1489 1008)"/><path d="M90.2634 227.782 431.898 227.782" stroke="#000000" stroke-width="1.73333" stroke-linecap="square" fill="none" transform="matrix(1.00107 0 0 1 1489 1008)"/><path d="M537.204 227.782 878.838 227.782 878.838 42.12 537.204 42.12Z" fill="#FFFFFF" transform="matrix(1.00107 0 0 1 1489 1008)"/><g><path d="M552.732 212.595 649.011 212.595 649.011 209.489 661.434 209.489 661.434 206.384 673.857 206.384 673.857 203.278 686.28 203.278 686.28 200.172 698.703 200.172 698.703 197.066 711.126 197.066 711.126 193.96 723.55 193.96 723.55 190.855 735.973 190.855 735.973 187.749 748.396 187.749 748.396 184.643 760.819 184.643 760.819 181.537 773.242 181.537 773.242 178.432 785.665 178.432 785.665 175.326 798.088 175.326 798.088 172.22 810.511 172.22 810.511 169.114 822.934 169.114 822.934 166.009 835.357 166.009 835.357 162.903 847.78 162.903 847.78 159.797 853.992 159.797 853.992 156.691 857.098 156.691 857.098 153.585 860.203 153.585 860.203 147.374 863.309 147.374 863.309 122.528 860.203 122.528 860.203 116.316 857.098 116.316 857.098 113.211 853.992 113.211 853.992 110.105 847.78 110.105 847.78 106.999 835.357 106.999 835.357 103.893 822.934 103.893 822.934 100.787 810.511 100.787 810.511 97.6817 798.088 97.6817 798.088 94.5759 785.665 94.5759 785.665 91.4701 773.242 91.4701 773.242 88.3644 760.819 88.3644 760.819 85.2586 748.396 85.2586 748.396 82.1528 735.973 82.1528 735.973 79.0471 723.55 79.0471 723.55 75.9413 711.126 75.9413 711.126 72.8355 698.703 72.8355 698.703 69.7298 686.28 69.7298 686.28 66.624 673.857 66.624 673.857 63.5182 661.434 63.5182 661.434 60.4125 649.011 60.4125 649.011 57.3067 552.732 57.3067 552.732 72.8355 555.838 72.8355 555.838 75.9413 558.944 75.9413 558.944 79.0471 562.05 79.0471 562.05 82.1528 568.261 82.1528 568.261 85.2586 580.684 85.2586 580.684 88.3644 593.107 88.3644 593.107 91.4701 605.53 91.4701 605.53 94.5759 617.953 94.5759 617.953 97.6817 630.377 97.6817 630.377 100.787 642.8 100.787 642.8 103.893 655.223 103.893 655.223 106.999 667.646 106.999 667.646 110.105 680.069 110.105 680.069 113.211 692.492 113.211 692.492 116.316 704.915 116.316 704.915 119.422 717.338 119.422 717.338 122.528 729.761 122.528 729.761 125.634 742.184 125.634 742.184 128.739 754.607 128.739 754.607 131.845 767.03 131.845 767.03 138.057 754.607 138.057 754.607 141.162 742.184 141.162 742.184 144.268 729.761 144.268 729.761 147.374 717.338 147.374 717.338 150.48 704.915 150.48 704.915 153.585 692.492 153.585 692.492 156.691 680.069 156.691 680.069 159.797 667.646 159.797 667.646 162.903 655.223 162.903 655.223 166.009 642.8 166.009 642.8 169.114 630.377 169.114 630.377 172.22 617.953 172.22 617.953 175.326 605.53 175.326 605.53 178.432 593.107 178.432 593.107 181.537 580.684 181.537 580.684 184.643 568.261 184.643 568.261 187.749 562.05 187.749 562.05 190.855 558.944 190.855 558.944 193.96 555.838 193.96 555.838 197.066 552.732 197.066 552.732 212.595" stroke="#1F77B4" stroke-width="4.33333" fill="#1F77B4" fill-opacity="0.3" transform="matrix(1.00107 0 0 1 1489 1008)"/></g><path d="M0 0 0-7.58334" stroke="#000000" stroke-width="1.73333" stroke-linejoin="round" fill="none" transform="matrix(1.00107 0 0 1 2042.32 1235.78)"/><path d="M9.75-0.859219C6.565-0.859219 4.39766 0.450938 3.24797 3.07125 2.09828 5.69563 1.52344 8.81766 1.52344 12.4373 1.52344 14.6961 1.72859 16.8208 2.13891 18.8114 2.55328 20.8061 3.37188 22.4981 4.59469 23.8875 5.82156 25.2809 7.54 25.9777 9.75 25.9777 11.4644 25.9777 12.8659 25.5572 13.9547 24.7163 15.0475 23.8794 15.8803 22.7967 16.4531 21.4683 17.0259 20.1439 17.4159 18.722 17.6231 17.2027 17.8344 15.6874 17.94 14.0989 17.94 12.4373 17.94 10.203 17.7328 8.11078 17.3184 6.16078 16.9081 4.21078 16.0997 2.55328 14.8931 1.18828 13.6866-0.176719 11.9722-0.859219 9.75-0.859219ZM9.75 0.152344C11.1963 0.152344 12.2748 0.89375 12.9858 2.37656 13.6967 3.86344 14.1355 5.50875 14.302 7.3125 14.4686 9.11625 14.5519 11.0338 14.5519 13.065 14.5519 15.0191 14.4686 16.8208 14.302 18.4702 14.1355 20.1236 13.6988 21.6186 12.9919 22.9552 12.2891 24.2958 11.2084 24.9661 9.75 24.9661 8.27938 24.9661 7.1886 24.2917 6.47766 22.943 5.76672 21.5983 5.32797 20.1033 5.16141 18.458 4.99485 16.8167 4.91156 15.0191 4.91156 13.065 4.91156 11.6188 4.9461 10.2538 5.01516 8.97 5.08828 7.68625 5.27719 6.36188 5.58188 4.99688 5.88657 3.63188 6.37813 2.48219 7.05657 1.54781 7.735 0.6175 8.63282 0.152344 9.75 0.152344Z" transform="matrix(1.00107 0 0 -1 2032.56 1270.28)"/><path d="M0 0 0-7.58334" stroke="#000000" stroke-width="1.73333" stroke-linejoin="round" fill="none" transform="matrix(1.00107 0 0 1 2353.23 1235.78)"/><path d="M3.61969 0 3.61969 1.37109C6.86969 1.37109 8.49469 1.78344 8.49469 2.60813L8.49469 23.0831C7.15 22.4331 5.44781 22.1081 3.38813 22.1081L3.38813 23.4792C6.57719 23.4792 8.98422 24.312 10.6092 25.9777L11.1577 25.9777C11.247 25.9777 11.3323 25.9411 11.4136 25.868 11.4989 25.7989 11.5416 25.7197 11.5416 25.6303L11.5416 2.60813C11.5416 1.78344 13.1666 1.37109 16.4166 1.37109L16.4166 0 3.61969 0Z" transform="matrix(1.00107 0 0 -1 2323.95 1270.28)"/><path d="M9.75-0.859219C6.565-0.859219 4.39766 0.450938 3.24797 3.07125 2.09828 5.69563 1.52344 8.81766 1.52344 12.4373 1.52344 14.6961 1.72859 16.8208 2.13891 18.8114 2.55328 20.8061 3.37188 22.4981 4.59469 23.8875 5.82156 25.2809 7.54 25.9777 9.75 25.9777 11.4644 25.9777 12.8659 25.5572 13.9547 24.7163 15.0475 23.8794 15.8803 22.7967 16.4531 21.4683 17.0259 20.1439 17.4159 18.722 17.6231 17.2027 17.8344 15.6874 17.94 14.0989 17.94 12.4373 17.94 10.203 17.7328 8.11078 17.3184 6.16078 16.9081 4.21078 16.0997 2.55328 14.8931 1.18828 13.6866-0.176719 11.9722-0.859219 9.75-0.859219ZM9.75 0.152344C11.1963 0.152344 12.2748 0.89375 12.9858 2.37656 13.6967 3.86344 14.1355 5.50875 14.302 7.3125 14.4686 9.11625 14.5519 11.0338 14.5519 13.065 14.5519 15.0191 14.4686 16.8208 14.302 18.4702 14.1355 20.1236 13.6988 21.6186 12.9919 22.9552 12.2891 24.2958 11.2084 24.9661 9.75 24.9661 8.27938 24.9661 7.1886 24.2917 6.47766 22.943 5.76672 21.5983 5.32797 20.1033 5.16141 18.458 4.99485 16.8167 4.91156 15.0191 4.91156 13.065 4.91156 11.6188 4.9461 10.2538 5.01516 8.97 5.08828 7.68625 5.27719 6.36188 5.58188 4.99688 5.88657 3.63188 6.37813 2.48219 7.05657 1.54781 7.735 0.6175 8.63282 0.152344 9.75 0.152344Z" transform="matrix(1.00107 0 0 -1 2343.47 1270.28)"/><path d="M9.75-0.859219C6.565-0.859219 4.39766 0.450938 3.24797 3.07125 2.09828 5.69563 1.52344 8.81766 1.52344 12.4373 1.52344 14.6961 1.72859 16.8208 2.13891 18.8114 2.55328 20.8061 3.37188 22.4981 4.59469 23.8875 5.82156 25.2809 7.54 25.9777 9.75 25.9777 11.4644 25.9777 12.8659 25.5572 13.9547 24.7163 15.0475 23.8794 15.8803 22.7967 16.4531 21.4683 17.0259 20.1439 17.4159 18.722 17.6231 17.2027 17.8344 15.6874 17.94 14.0989 17.94 12.4373 17.94 10.203 17.7328 8.11078 17.3184 6.16078 16.9081 4.21078 16.0997 2.55328 14.8931 1.18828 13.6866-0.176719 11.9722-0.859219 9.75-0.859219ZM9.75 0.152344C11.1963 0.152344 12.2748 0.89375 12.9858 2.37656 13.6967 3.86344 14.1355 5.50875 14.302 7.3125 14.4686 9.11625 14.5519 11.0338 14.5519 13.065 14.5519 15.0191 14.4686 16.8208 14.302 18.4702 14.1355 20.1236 13.6988 21.6186 12.9919 22.9552 12.2891 24.2958 11.2084 24.9661 9.75 24.9661 8.27938 24.9661 7.1886 24.2917 6.47766 22.943 5.76672 21.5983 5.32797 20.1033 5.16141 18.458 4.99485 16.8167 4.91156 15.0191 4.91156 13.065 4.91156 11.6188 4.9461 10.2538 5.01516 8.97 5.08828 7.68625 5.27719 6.36188 5.58188 4.99688 5.88657 3.63188 6.37813 2.48219 7.05657 1.54781 7.735 0.6175 8.63282 0.152344 9.75 0.152344Z" transform="matrix(1.00107 0 0 -1 2362.99 1270.28)"/><path d="M0 0 7.58334 0" stroke="#000000" stroke-width="1.73333" stroke-linejoin="round" fill="none" transform="matrix(1.00107 0 0 1 2026.78 1220.59)"/><path d="M9.75-0.859219C6.565-0.859219 4.39766 0.450938 3.24797 3.07125 2.09828 5.69563 1.52344 8.81766 1.52344 12.4373 1.52344 14.6961 1.72859 16.8208 2.13891 18.8114 2.55328 20.8061 3.37188 22.4981 4.59469 23.8875 5.82156 25.2809 7.54 25.9777 9.75 25.9777 11.4644 25.9777 12.8659 25.5572 13.9547 24.7163 15.0475 23.8794 15.8803 22.7967 16.4531 21.4683 17.0259 20.1439 17.4159 18.722 17.6231 17.2027 17.8344 15.6874 17.94 14.0989 17.94 12.4373 17.94 10.203 17.7328 8.11078 17.3184 6.16078 16.9081 4.21078 16.0997 2.55328 14.8931 1.18828 13.6866-0.176719 11.9722-0.859219 9.75-0.859219ZM9.75 0.152344C11.1963 0.152344 12.2748 0.89375 12.9858 2.37656 13.6967 3.86344 14.1355 5.50875 14.302 7.3125 14.4686 9.11625 14.5519 11.0338 14.5519 13.065 14.5519 15.0191 14.4686 16.8208 14.302 18.4702 14.1355 20.1236 13.6988 21.6186 12.9919 22.9552 12.2891 24.2958 11.2084 24.9661 9.75 24.9661 8.27938 24.9661 7.1886 24.2917 6.47766 22.943 5.76672 21.5983 5.32797 20.1033 5.16141 18.458 4.99485 16.8167 4.91156 15.0191 4.91156 13.065 4.91156 11.6188 4.9461 10.2538 5.01516 8.97 5.08828 7.68625 5.27719 6.36188 5.58188 4.99688 5.88657 3.63188 6.37813 2.48219 7.05657 1.54781 7.735 0.6175 8.63282 0.152344 9.75 0.152344Z" transform="matrix(1.00107 0 0 -1 1999.66 1233.97)"/><path d="M0 0 7.58334 0" stroke="#000000" stroke-width="1.73333" stroke-linejoin="round" fill="none" transform="matrix(1.00107 0 0 1 2026.78 1065.31)"/><path d="M3.38813 4.43625C3.65625 3.67656 4.06656 2.98391 4.61906 2.35828 5.17156 1.73672 5.82563 1.25125 6.58125 0.901875 7.33688 0.556563 8.12094 0.383906 8.93344 0.383906 10.8103 0.383906 12.1042 1.11313 12.8152 2.57156 13.5261 4.03 13.8816 5.80125 13.8816 7.88532 13.8816 8.78719 13.8653 9.54485 13.8328 10.1583 13.8044 10.7758 13.7191 11.3689 13.5769 11.9377 13.3372 12.8517 12.9147 13.652 12.3094 14.3386 11.7081 15.0252 10.9688 15.3684 10.0913 15.3684 9.21782 15.3684 8.46625 15.2344 7.83657 14.9663 7.20688 14.7022 6.695 14.3914 6.30094 14.0339 5.91094 13.6805 5.5636 13.3067 5.25891 12.9127 4.95422 12.5186 4.76328 12.3094 4.6861 12.285L4.24735 12.285C4.18235 12.285 4.1011 12.3256 4.0036 12.4069 3.91016 12.4881 3.86344 12.5673 3.86344 12.6445L3.86344 25.673C3.86344 25.7339 3.90406 25.7989 3.98531 25.868 4.07063 25.9411 4.15797 25.9777 4.24735 25.9777L4.36313 25.9777C6.11407 25.1367 7.97266 24.7163 9.93891 24.7163 11.8686 24.7163 13.7292 25.1367 15.5208 25.9777L15.6366 25.9777C15.7259 25.9777 15.8072 25.9452 15.8803 25.8802 15.9575 25.8152 15.9961 25.7461 15.9961 25.673L15.9961 25.3074C15.9961 25.1814 15.9717 25.1184 15.923 25.1184 15.0333 23.9363 13.9181 23.0141 12.5775 22.3519 11.2369 21.6938 9.84954 21.3647 8.41547 21.3647 7.37547 21.3647 6.30907 21.5109 5.21625 21.8034L5.21625 14.4361C6.08156 15.1349 6.85344 15.6325 7.53188 15.9291 8.21032 16.2297 9.07766 16.38 10.1339 16.38 11.568 16.38 12.8517 15.9656 13.9852 15.1369 15.1227 14.3122 15.9961 13.2356 16.6055 11.9072 17.2149 10.5828 17.5195 9.23 17.5195 7.84875 17.5195 6.28469 17.1356 4.83641 16.3678 3.50391 15.6 2.17141 14.5559 1.11109 13.2356 0.322969 11.9153-0.465156 10.4813-0.859219 8.93344-0.859219 7.64969-0.859219 6.47157-0.530156 5.39906 0.127969 4.32656 0.790157 3.48156 1.67984 2.86406 2.79703 2.25063 3.91422 1.94391 5.1025 1.94391 6.36188 1.94391 6.94688 2.13281 7.42219 2.51063 7.78782 2.8925 8.1575 3.36985 8.34235 3.94266 8.34235 4.51547 8.34235 4.99485 8.15344 5.38078 7.77563 5.76672 7.40188 5.95969 6.93063 5.95969 6.36188 5.95969 5.80125 5.76672 5.32797 5.38078 4.94203 4.99485 4.5561 4.51547 4.36313 3.94266 4.36313 3.85328 4.36313 3.75172 4.37125 3.63797 4.3875 3.52422 4.40781 3.44094 4.42406 3.38813 4.43625Z" transform="matrix(1.00107 0 0 -1 1980.14 1078.69)"/><path d="M9.75-0.859219C6.565-0.859219 4.39766 0.450938 3.24797 3.07125 2.09828 5.69563 1.52344 8.81766 1.52344 12.4373 1.52344 14.6961 1.72859 16.8208 2.13891 18.8114 2.55328 20.8061 3.37188 22.4981 4.59469 23.8875 5.82156 25.2809 7.54 25.9777 9.75 25.9777 11.4644 25.9777 12.8659 25.5572 13.9547 24.7163 15.0475 23.8794 15.8803 22.7967 16.4531 21.4683 17.0259 20.1439 17.4159 18.722 17.6231 17.2027 17.8344 15.6874 17.94 14.0989 17.94 12.4373 17.94 10.203 17.7328 8.11078 17.3184 6.16078 16.9081 4.21078 16.0997 2.55328 14.8931 1.18828 13.6866-0.176719 11.9722-0.859219 9.75-0.859219ZM9.75 0.152344C11.1963 0.152344 12.2748 0.89375 12.9858 2.37656 13.6967 3.86344 14.1355 5.50875 14.302 7.3125 14.4686 9.11625 14.5519 11.0338 14.5519 13.065 14.5519 15.0191 14.4686 16.8208 14.302 18.4702 14.1355 20.1236 13.6988 21.6186 12.9919 22.9552 12.2891 24.2958 11.2084 24.9661 9.75 24.9661 8.27938 24.9661 7.1886 24.2917 6.47766 22.943 5.76672 21.5983 5.32797 20.1033 5.16141 18.458 4.99485 16.8167 4.91156 15.0191 4.91156 13.065 4.91156 11.6188 4.9461 10.2538 5.01516 8.97 5.08828 7.68625 5.27719 6.36188 5.58188 4.99688 5.88657 3.63188 6.37813 2.48219 7.05657 1.54781 7.735 0.6175 8.63282 0.152344 9.75 0.152344Z" transform="matrix(1.00107 0 0 -1 1999.66 1078.69)"/><g><path d="M863.309 212.595 863.309 57.3067 552.732 57.3067 552.732 212.595 863.309 212.595" stroke="#000000" stroke-width="3.25" stroke-linecap="square" stroke-linejoin="round" fill="none" transform="matrix(1.00107 0 0 1 1489 1008)"/></g><path d="M537.204 227.782 537.204 42.12" stroke="#000000" stroke-width="1.73333" stroke-linecap="square" fill="none" transform="matrix(1.00107 0 0 1 1489 1008)"/><path d="M537.204 227.782 878.838 227.782" stroke="#000000" stroke-width="1.73333" stroke-linecap="square" fill="none" transform="matrix(1.00107 0 0 1 1489 1008)"/></g></g></g><path d="M1429.77 1148.18 1435.8 1140.86C1436.47 1140.07 1436.78 1139.67 1441.06 1139.67L1441.06 1137.03C1439.25 1137.14 1436.57 1137.2 1436.32 1137.2 1435.03 1137.2 1432.45 1137.08 1431.01 1137.03L1431.01 1139.67C1431.73 1139.67 1432.35 1139.79 1432.97 1140.18 1432.76 1140.52 1432.76 1140.63 1432.56 1140.86L1428.23 1146.15 1423.18 1139.67 1425.24 1139.67 1425.24 1137.03C1423.9 1137.08 1420.66 1137.2 1419.01 1137.2 1417.36 1137.2 1415.04 1137.08 1413.34 1137.03L1413.34 1139.67 1417 1139.67 1425.04 1150.03 1418.29 1158.31C1417.41 1159.38 1415.56 1159.38 1413.09 1159.38L1413.09 1162.03C1414.89 1161.91 1417.57 1161.86 1417.82 1161.86 1419.11 1161.86 1422.1 1161.97 1423.13 1162.03L1423.13 1159.38C1422.2 1159.38 1421.22 1159.1 1421.22 1158.76 1421.22 1158.7 1421.22 1158.65 1421.58 1158.2L1426.58 1152.06 1432.25 1159.38 1430.24 1159.38 1430.24 1162.03C1431.58 1161.97 1434.72 1161.86 1436.42 1161.86 1438.07 1161.86 1440.39 1161.97 1442.09 1162.03L1442.09 1159.38 1438.43 1159.38 1429.77 1148.18Z" fill-rule="evenodd"/><path d="M1917.53 1099.15C1917.08 1101.09 1916.98 1101.48 1913.37 1101.48 1912.59 1101.48 1912.08 1101.48 1912.08 1102.43 1912.08 1103.03 1912.49 1103.03 1913.37 1103.03L1928.53 1103.03C1938.06 1103.03 1947.08 1092.52 1947.08 1081.62 1947.08 1074.6 1943.19 1069.03 1936.32 1069.03L1920.92 1069.03C1920.05 1069.03 1919.55 1069.03 1919.55 1069.97 1919.55 1070.57 1919.96 1070.57 1920.88 1070.57 1921.47 1070.57 1922.3 1070.62 1922.85 1070.67 1923.58 1070.77 1923.86 1070.92 1923.86 1071.47 1923.86 1071.67 1923.81 1071.82 1923.67 1072.41L1917.53 1099.15ZM1927.43 1072.46C1927.84 1070.72 1927.93 1070.57 1929.9 1070.57L1934.81 1070.57C1939.29 1070.57 1943.1 1073.21 1943.1 1079.78 1943.1 1082.22 1942.18 1090.38 1938.29 1095.86 1936.96 1097.7 1933.34 1101.48 1927.7 1101.48L1922.53 1101.48C1921.89 1101.48 1921.79 1101.48 1921.52 1101.43 1921.06 1101.39 1920.92 1101.34 1920.92 1100.94 1920.92 1100.79 1920.92 1100.69 1921.15 1099.79L1927.43 1072.46Z" fill-rule="evenodd"/><path d="M2366.53 1100.26C2366.08 1102.14 2365.98 1102.53 2362.36 1102.53 2361.59 1102.53 2361.08 1102.53 2361.08 1103.45 2361.08 1104.03 2361.49 1104.03 2362.36 1104.03L2377.53 1104.03C2387.06 1104.03 2396.08 1093.83 2396.08 1083.25 2396.08 1076.44 2392.19 1071.03 2385.32 1071.03L2369.92 1071.03C2369.05 1071.03 2368.55 1071.03 2368.55 1071.95 2368.55 1072.52 2368.96 1072.52 2369.88 1072.52 2370.47 1072.52 2371.3 1072.57 2371.85 1072.62 2372.58 1072.72 2372.86 1072.86 2372.86 1073.39 2372.86 1073.59 2372.81 1073.73 2372.67 1074.31L2366.53 1100.26ZM2376.43 1074.36C2376.84 1072.67 2376.93 1072.52 2378.9 1072.52L2383.8 1072.52C2388.29 1072.52 2392.1 1075.09 2392.1 1081.46 2392.1 1083.83 2391.18 1091.75 2387.29 1097.07 2385.96 1098.86 2382.34 1102.53 2376.7 1102.53L2371.53 1102.53C2370.89 1102.53 2370.79 1102.53 2370.52 1102.48 2370.06 1102.43 2369.92 1102.38 2369.92 1102 2369.92 1101.85 2369.92 1101.76 2370.15 1100.89L2376.43 1074.36Z" fill-rule="evenodd"/><path d="M1672.08 1334.27 1669.69 1334.27C1669.59 1334.95 1669.18 1337 1668.82 1337.88 1668.57 1338.51 1668.37 1339 1665.32 1339L1661.66 1339C1662.73 1336.81 1664.15 1335.1 1665.72 1333.2 1668.57 1329.69 1671.42 1326.17 1671.42 1321.73 1671.42 1316.47 1666.84 1310.03 1653.58 1310.03 1640.31 1310.03 1635.74 1316.47 1635.74 1321.73 1635.74 1326.22 1638.63 1329.73 1641.43 1333.1 1643.21 1335.3 1644.48 1336.95 1645.5 1339L1641.84 1339C1638.84 1339 1638.63 1338.51 1638.38 1338.03 1638.02 1337.15 1637.57 1334.76 1637.47 1334.27L1635.08 1334.27 1636.96 1344.03 1646.66 1344.03C1647.78 1344.03 1648.29 1344.03 1648.29 1342.71 1648.29 1339.3 1646.77 1334.81 1646 1332.66 1644.68 1328.81 1643.51 1325.3 1643.51 1321.73 1643.51 1319.83 1643.77 1316.37 1646.26 1314.17 1648.75 1312.03 1652.05 1311.78 1653.58 1311.78 1656.22 1311.78 1659.12 1312.51 1660.95 1314.27 1662.47 1315.69 1663.64 1317.83 1663.64 1321.73 1663.64 1325.15 1662.57 1328.47 1661.3 1332.08 1660.34 1335 1658.86 1339.3 1658.86 1342.71 1658.86 1344.03 1659.37 1344.03 1660.49 1344.03L1670.2 1344.03 1672.08 1334.27Z" fill-rule="evenodd"/><path d="M1691.08 1355.54C1691.08 1355.39 1691.08 1355.29 1690.2 1354.46 1683.74 1348.28 1682.08 1339.02 1682.08 1331.53 1682.08 1323 1684.05 1314.47 1690.41 1308.35 1691.08 1307.76 1691.08 1307.66 1691.08 1307.52 1691.08 1307.17 1690.87 1307.03 1690.56 1307.03 1690.05 1307.03 1685.39 1310.36 1682.34 1316.58 1679.7 1321.97 1679.08 1327.41 1679.08 1331.53 1679.08 1335.35 1679.65 1341.28 1682.5 1346.81 1685.6 1352.84 1690.05 1356.03 1690.56 1356.03 1690.87 1356.03 1691.08 1355.88 1691.08 1355.54Z" fill-rule="evenodd"/><path d="M1711.19 1331.84 1717.01 1325.4C1717.66 1324.7 1717.96 1324.36 1722.08 1324.36L1722.08 1322.03C1720.34 1322.13 1717.76 1322.18 1717.51 1322.18 1716.27 1322.18 1713.78 1322.08 1712.39 1322.03L1712.39 1324.36C1713.08 1324.36 1713.68 1324.46 1714.28 1324.8 1714.08 1325.1 1714.08 1325.2 1713.88 1325.4L1709.7 1330.05 1704.83 1324.36 1706.82 1324.36 1706.82 1322.03C1705.52 1322.08 1702.39 1322.18 1700.8 1322.18 1699.21 1322.18 1696.97 1322.08 1695.33 1322.03L1695.33 1324.36 1698.86 1324.36 1706.62 1333.47 1700.1 1340.76C1699.26 1341.7 1697.47 1341.7 1695.08 1341.7L1695.08 1344.03C1696.82 1343.93 1699.41 1343.88 1699.66 1343.88 1700.9 1343.88 1703.78 1343.98 1704.78 1344.03L1704.78 1341.7C1703.88 1341.7 1702.94 1341.45 1702.94 1341.15 1702.94 1341.1 1702.94 1341.05 1703.29 1340.66L1708.11 1335.26 1713.58 1341.7 1711.64 1341.7 1711.64 1344.03C1712.93 1343.98 1715.97 1343.88 1717.61 1343.88 1719.2 1343.88 1721.44 1343.98 1723.08 1344.03L1723.08 1341.7 1719.55 1341.7 1711.19 1331.84Z" fill-rule="evenodd"/><path d="M1739.09 1331.53C1739.09 1327.71 1738.52 1321.78 1735.67 1316.24 1732.57 1310.21 1728.12 1307.03 1727.6 1307.03 1727.29 1307.03 1727.08 1307.22 1727.08 1307.52 1727.08 1307.66 1727.08 1307.76 1728.07 1308.64 1733.14 1313.49 1736.08 1321.29 1736.08 1331.53 1736.08 1339.91 1734.17 1348.53 1727.76 1354.7 1727.08 1355.29 1727.08 1355.39 1727.08 1355.54 1727.08 1355.83 1727.29 1356.03 1727.6 1356.03 1728.12 1356.03 1732.77 1352.69 1735.83 1346.47 1738.46 1341.08 1739.09 1335.64 1739.09 1331.53Z" fill-rule="evenodd"/><path d="M1791.31 1314.99C1792.17 1314.99 1793.09 1314.99 1793.09 1314.01 1793.09 1313.03 1792.17 1313.03 1791.31 1313.03L1777.66 1313.03C1768.94 1313.03 1762.09 1319.47 1762.09 1327.23 1762.09 1335.15 1769.09 1341.49 1777.66 1341.49L1791.31 1341.49C1792.17 1341.49 1793.09 1341.49 1793.09 1340.51 1793.09 1339.52 1792.17 1339.52 1791.31 1339.52L1777.76 1339.52C1769.75 1339.52 1764.12 1333.77 1764.12 1327.28 1764.12 1320.6 1769.9 1314.99 1777.76 1314.99L1791.31 1314.99ZM1764.88 1349.06C1764.01 1349.06 1763.1 1349.06 1763.1 1350.04 1763.1 1351.03 1764.01 1351.03 1764.88 1351.03L1791.31 1351.03C1792.17 1351.03 1793.09 1351.03 1793.09 1350.04 1793.09 1349.06 1792.17 1349.06 1791.31 1349.06L1764.88 1349.06Z" fill-rule="evenodd"/><path d="M1820.01 1340.14C1819.51 1342.09 1819.41 1342.48 1815.48 1342.48 1814.64 1342.48 1814.09 1342.48 1814.09 1343.43 1814.09 1344.03 1814.54 1344.03 1815.48 1344.03L1831.94 1344.03C1842.29 1344.03 1852.09 1333.52 1852.09 1322.62 1852.09 1315.6 1847.86 1310.03 1840.4 1310.03L1823.69 1310.03C1822.74 1310.03 1822.2 1310.03 1822.2 1310.97 1822.2 1311.57 1822.64 1311.57 1823.64 1311.57 1824.28 1311.57 1825.18 1311.62 1825.78 1311.67 1826.57 1311.77 1826.87 1311.92 1826.87 1312.47 1826.87 1312.67 1826.82 1312.82 1826.67 1313.41L1820.01 1340.14ZM1830.75 1313.46C1831.2 1311.72 1831.3 1311.57 1833.44 1311.57L1838.76 1311.57C1843.63 1311.57 1847.76 1314.21 1847.76 1320.78 1847.76 1323.22 1846.77 1331.38 1842.54 1336.86 1841.1 1338.7 1837.17 1342.48 1831.05 1342.48L1825.43 1342.48C1824.73 1342.48 1824.63 1342.48 1824.33 1342.43 1823.84 1342.38 1823.69 1342.33 1823.69 1341.94 1823.69 1341.79 1823.69 1341.69 1823.94 1340.79L1830.75 1313.46Z" fill-rule="evenodd"/><path d="M2106.08 1334.27 2103.75 1334.27C2103.65 1334.95 2103.26 1337 2102.91 1337.88 2102.66 1338.51 2102.47 1339 2099.5 1339L2095.94 1339C2096.98 1336.81 2098.36 1335.1 2099.89 1333.2 2102.66 1329.69 2105.43 1326.17 2105.43 1321.73 2105.43 1316.47 2100.98 1310.03 2088.07 1310.03 2075.17 1310.03 2070.72 1316.47 2070.72 1321.73 2070.72 1326.22 2073.54 1329.73 2076.26 1333.1 2077.99 1335.3 2079.22 1336.95 2080.21 1339L2076.65 1339C2073.73 1339 2073.54 1338.51 2073.29 1338.03 2072.94 1337.15 2072.5 1334.76 2072.4 1334.27L2070.07 1334.27 2071.9 1344.03 2081.35 1344.03C2082.44 1344.03 2082.93 1344.03 2082.93 1342.71 2082.93 1339.3 2081.45 1334.81 2080.71 1332.66 2079.42 1328.81 2078.28 1325.3 2078.28 1321.73 2078.28 1319.83 2078.53 1316.37 2080.95 1314.17 2083.38 1312.03 2086.59 1311.78 2088.07 1311.78 2090.65 1311.78 2093.47 1312.51 2095.25 1314.27 2096.73 1315.69 2097.87 1317.83 2097.87 1321.73 2097.87 1325.15 2096.83 1328.47 2095.59 1332.08 2094.65 1335 2093.22 1339.3 2093.22 1342.71 2093.22 1344.03 2093.71 1344.03 2094.8 1344.03L2104.25 1344.03 2106.08 1334.27Z" fill-rule="evenodd"/><path d="M2119.38 1328.05C2119.41 1327.98 2119.51 1327.54 2119.51 1327.5 2119.51 1327.33 2119.38 1327.03 2118.96 1327.03 2118.26 1327.03 2115.37 1327.3 2114.49 1327.37 2114.22 1327.4 2113.73 1327.44 2113.73 1328.15 2113.73 1328.63 2114.22 1328.63 2114.63 1328.63 2116.31 1328.63 2116.31 1328.87 2116.31 1329.14 2116.31 1329.38 2116.24 1329.58 2116.17 1329.89L2111.25 1349.19C2111.08 1349.8 2111.08 1349.87 2111.08 1349.94 2111.08 1350.45 2111.5 1351.03 2112.26 1351.03 2112.65 1351.03 2113.31 1350.86 2113.69 1350.14 2113.8 1349.94 2114.11 1348.71 2114.29 1347.99L2115.09 1344.96C2115.19 1344.45 2115.54 1343.15 2115.65 1342.64 2115.99 1341.35 2115.99 1341.31 2116.69 1340.22 2117.81 1338.55 2119.55 1336.61 2122.27 1336.61 2124.22 1336.61 2124.33 1338.18 2124.33 1338.99 2124.33 1341.04 2122.83 1344.82 2122.27 1346.25 2121.89 1347.21 2121.75 1347.52 2121.75 1348.1 2121.75 1349.9 2123.28 1351.03 2125.06 1351.03 2128.54 1351.03 2130.08 1346.32 2130.08 1345.81 2130.08 1345.37 2129.62 1345.37 2129.52 1345.37 2129.03 1345.37 2129 1345.57 2128.86 1345.95 2128.06 1348.68 2126.52 1350.07 2125.16 1350.07 2124.43 1350.07 2124.29 1349.6 2124.29 1348.88 2124.29 1348.1 2124.47 1347.65 2125.09 1346.12 2125.51 1345.06 2126.94 1341.45 2126.94 1339.54 2126.94 1338.99 2126.94 1337.56 2125.65 1336.57 2125.06 1336.13 2124.05 1335.65 2122.41 1335.65 2119.86 1335.65 2118.02 1337.02 2116.73 1338.48L2119.38 1328.05Z" fill-rule="evenodd"/><path d="M2151.08 1355.54C2151.08 1355.39 2151.08 1355.29 2150.27 1354.46 2144.34 1348.28 2142.83 1339.02 2142.83 1331.53 2142.83 1323 2144.63 1314.47 2150.46 1308.35 2151.08 1307.76 2151.08 1307.66 2151.08 1307.52 2151.08 1307.17 2150.89 1307.03 2150.6 1307.03 2150.13 1307.03 2145.86 1310.36 2143.06 1316.58 2140.64 1321.97 2140.08 1327.41 2140.08 1331.53 2140.08 1335.35 2140.6 1341.28 2143.21 1346.81 2146.05 1352.84 2150.13 1356.03 2150.6 1356.03 2150.89 1356.03 2151.08 1355.88 2151.08 1355.54Z" fill-rule="evenodd"/><path d="M2171.2 1331.84 2177.01 1325.4C2177.66 1324.7 2177.96 1324.36 2182.09 1324.36L2182.09 1322.03C2180.35 1322.13 2177.76 1322.18 2177.51 1322.18 2176.27 1322.18 2173.78 1322.08 2172.39 1322.03L2172.39 1324.36C2173.09 1324.36 2173.68 1324.46 2174.28 1324.8 2174.08 1325.1 2174.08 1325.2 2173.88 1325.4L2169.7 1330.05 2164.83 1324.36 2166.82 1324.36 2166.82 1322.03C2165.53 1322.08 2162.39 1322.18 2160.8 1322.18 2159.21 1322.18 2156.97 1322.08 2155.33 1322.03L2155.33 1324.36 2158.86 1324.36 2166.62 1333.47 2160.1 1340.76C2159.26 1341.7 2157.47 1341.7 2155.08 1341.7L2155.08 1344.03C2156.82 1343.93 2159.41 1343.88 2159.66 1343.88 2160.9 1343.88 2163.78 1343.98 2164.78 1344.03L2164.78 1341.7C2163.88 1341.7 2162.94 1341.45 2162.94 1341.15 2162.94 1341.1 2162.94 1341.05 2163.29 1340.66L2168.11 1335.26 2173.58 1341.7 2171.64 1341.7 2171.64 1344.03C2172.94 1343.98 2175.97 1343.88 2177.61 1343.88 2179.2 1343.88 2181.44 1343.98 2183.08 1344.03L2183.08 1341.7 2179.55 1341.7 2171.2 1331.84Z" fill-rule="evenodd"/><path d="M2199.09 1331.53C2199.09 1327.71 2198.52 1321.78 2195.67 1316.24 2192.57 1310.21 2188.12 1307.03 2187.6 1307.03 2187.29 1307.03 2187.09 1307.22 2187.09 1307.52 2187.09 1307.66 2187.09 1307.76 2188.07 1308.64 2193.14 1313.49 2196.09 1321.29 2196.09 1331.53 2196.09 1339.91 2194.17 1348.53 2187.76 1354.7 2187.09 1355.29 2187.09 1355.39 2187.09 1355.54 2187.09 1355.83 2187.29 1356.03 2187.6 1356.03 2188.12 1356.03 2192.78 1352.69 2195.83 1346.47 2198.47 1341.08 2199.09 1335.64 2199.09 1331.53Z" fill-rule="evenodd"/><path d="M2250.37 1314.99C2251.2 1314.99 2252.08 1314.99 2252.08 1314.01 2252.08 1313.03 2251.2 1313.03 2250.37 1313.03L2237.16 1313.03C2228.71 1313.03 2222.08 1319.47 2222.08 1327.23 2222.08 1335.15 2228.86 1341.49 2237.16 1341.49L2250.37 1341.49C2251.2 1341.49 2252.08 1341.49 2252.08 1340.51 2252.08 1339.52 2251.2 1339.52 2250.37 1339.52L2237.26 1339.52C2229.5 1339.52 2224.05 1333.77 2224.05 1327.28 2224.05 1320.6 2229.65 1314.99 2237.26 1314.99L2250.37 1314.99ZM2224.79 1349.06C2223.95 1349.06 2223.07 1349.06 2223.07 1350.04 2223.07 1351.03 2223.95 1351.03 2224.79 1351.03L2250.37 1351.03C2251.2 1351.03 2252.08 1351.03 2252.08 1350.04 2252.08 1349.06 2251.2 1349.06 2250.37 1349.06L2224.79 1349.06Z" fill-rule="evenodd"/><path d="M2279.01 1340.14C2278.51 1342.09 2278.41 1342.48 2274.48 1342.48 2273.64 1342.48 2273.09 1342.48 2273.09 1343.43 2273.09 1344.03 2273.54 1344.03 2274.48 1344.03L2290.95 1344.03C2301.29 1344.03 2311.09 1333.52 2311.09 1322.62 2311.09 1315.6 2306.86 1310.03 2299.4 1310.03L2282.69 1310.03C2281.74 1310.03 2281.2 1310.03 2281.2 1310.97 2281.2 1311.57 2281.64 1311.57 2282.64 1311.57 2283.29 1311.57 2284.18 1311.62 2284.78 1311.67 2285.57 1311.77 2285.87 1311.92 2285.87 1312.47 2285.87 1312.67 2285.82 1312.82 2285.67 1313.41L2279.01 1340.14ZM2289.75 1313.46C2290.2 1311.72 2290.3 1311.57 2292.44 1311.57L2297.76 1311.57C2302.63 1311.57 2306.76 1314.21 2306.76 1320.78 2306.76 1323.22 2305.77 1331.38 2301.54 1336.86 2300.1 1338.7 2296.17 1342.48 2290.05 1342.48L2284.43 1342.48C2283.73 1342.48 2283.63 1342.48 2283.34 1342.43 2282.84 1342.38 2282.69 1342.33 2282.69 1341.94 2282.69 1341.79 2282.69 1341.69 2282.94 1340.79L2289.75 1313.46Z" fill-rule="evenodd"/><text font-family="CMU Sans Serif,CMU Sans Serif_MSFontService,sans-serif" font-weight="700" font-size="46" transform="matrix(1 0 0 1 1567.77 998)">Parameterization</text><text font-family="CMU Sans Serif,CMU Sans Serif_MSFontService,sans-serif" font-weight="700" font-size="46" transform="matrix(1 0 0 1 2058.63 996)">Rasterization</text><path d="M1458.5 1144.06 1534.29 1144.06 1534.29 1150.94 1458.5 1150.94ZM1529.71 1133.75 1557.21 1147.5 1529.71 1161.25Z" fill="#1F77B4"/><path d="M1928.5 1145.06 1987.16 1145.06 1987.16 1151.94 1928.5 1151.94ZM1982.58 1134.75 2010.08 1148.5 1982.58 1162.25Z" fill="#1F77B4"/><path d="M2377.5 1144.06 2453.29 1144.06 2453.29 1150.94 2377.5 1150.94ZM2448.71 1133.75 2476.21 1147.5 2448.71 1161.25Z" fill="#1F77B4"/><path d="M2541.08 1151.27 2538.69 1151.27C2538.59 1151.95 2538.18 1154 2537.83 1154.88 2537.57 1155.51 2537.37 1156 2534.32 1156L2530.66 1156C2531.73 1153.81 2533.15 1152.1 2534.73 1150.2 2537.57 1146.69 2540.42 1143.17 2540.42 1138.73 2540.42 1133.47 2535.85 1127.03 2522.58 1127.03 2509.31 1127.03 2504.74 1133.47 2504.74 1138.73 2504.74 1143.22 2507.64 1146.73 2510.43 1150.1 2512.21 1152.3 2513.48 1153.95 2514.5 1156L2510.84 1156C2507.84 1156 2507.64 1155.51 2507.38 1155.03 2507.03 1154.15 2506.57 1151.76 2506.47 1151.27L2504.08 1151.27 2505.96 1161.03 2515.67 1161.03C2516.79 1161.03 2517.29 1161.03 2517.29 1159.71 2517.29 1156.3 2515.77 1151.81 2515.01 1149.66 2513.69 1145.81 2512.52 1142.3 2512.52 1138.73 2512.52 1136.83 2512.77 1133.37 2515.26 1131.17 2517.75 1129.03 2521.06 1128.78 2522.58 1128.78 2525.22 1128.78 2528.12 1129.51 2529.95 1131.27 2531.47 1132.69 2532.64 1134.83 2532.64 1138.73 2532.64 1142.15 2531.58 1145.47 2530.31 1149.08 2529.34 1152 2527.87 1156.3 2527.87 1159.71 2527.87 1161.03 2528.37 1161.03 2529.49 1161.03L2539.2 1161.03 2541.08 1151.27Z" fill-rule="evenodd"/><path d="M2554.38 1146.05C2554.41 1145.98 2554.52 1145.54 2554.52 1145.5 2554.52 1145.33 2554.38 1145.03 2553.96 1145.03 2553.26 1145.03 2550.37 1145.3 2549.5 1145.37 2549.22 1145.4 2548.73 1145.44 2548.73 1146.15 2548.73 1146.63 2549.22 1146.63 2549.64 1146.63 2551.31 1146.63 2551.31 1146.87 2551.31 1147.14 2551.31 1147.38 2551.24 1147.58 2551.17 1147.89L2546.26 1167.19C2546.08 1167.8 2546.08 1167.87 2546.08 1167.94 2546.08 1168.45 2546.5 1169.03 2547.27 1169.03 2547.65 1169.03 2548.31 1168.86 2548.7 1168.14 2548.8 1167.94 2549.11 1166.71 2549.29 1165.99L2550.09 1162.96C2550.2 1162.45 2550.54 1161.15 2550.65 1160.64 2551 1159.35 2551 1159.31 2551.69 1158.22 2552.81 1156.55 2554.55 1154.61 2557.27 1154.61 2559.22 1154.61 2559.33 1156.18 2559.33 1156.99 2559.33 1159.04 2557.83 1162.82 2557.27 1164.25 2556.89 1165.21 2556.75 1165.52 2556.75 1166.1 2556.75 1167.9 2558.28 1169.03 2560.06 1169.03 2563.55 1169.03 2565.08 1164.32 2565.08 1163.81 2565.08 1163.37 2564.63 1163.37 2564.52 1163.37 2564.04 1163.37 2564 1163.57 2563.86 1163.95 2563.06 1166.68 2561.53 1168.07 2560.17 1168.07 2559.43 1168.07 2559.29 1167.6 2559.29 1166.88 2559.29 1166.1 2559.47 1165.65 2560.1 1164.12 2560.51 1163.06 2561.94 1159.45 2561.94 1157.54 2561.94 1156.99 2561.94 1155.56 2560.65 1154.57 2560.06 1154.13 2559.05 1153.65 2557.41 1153.65 2554.87 1153.65 2553.02 1155.02 2551.73 1156.48L2554.38 1146.05Z" fill-rule="evenodd"/><path d="M2586.09 1173.54C2586.09 1173.39 2586.09 1173.29 2585.21 1172.46 2578.74 1166.28 2577.09 1157.02 2577.09 1149.53 2577.09 1141 2579.05 1132.48 2585.41 1126.35 2586.09 1125.76 2586.09 1125.66 2586.09 1125.52 2586.09 1125.17 2585.88 1125.03 2585.57 1125.03 2585.05 1125.03 2580.4 1128.36 2577.35 1134.58 2574.71 1139.97 2574.09 1145.41 2574.09 1149.53 2574.09 1153.35 2574.66 1159.28 2577.5 1164.81 2580.6 1170.84 2585.05 1174.03 2585.57 1174.03 2585.88 1174.03 2586.09 1173.88 2586.09 1173.54Z" fill-rule="evenodd"/><path d="M2606.2 1149.39 2612.02 1143.24C2612.66 1142.58 2612.96 1142.25 2617.09 1142.25L2617.09 1140.03C2615.35 1140.12 2612.76 1140.17 2612.51 1140.17 2611.27 1140.17 2608.78 1140.07 2607.39 1140.03L2607.39 1142.25C2608.09 1142.25 2608.69 1142.34 2609.28 1142.67 2609.08 1142.96 2609.08 1143.05 2608.88 1143.24L2604.71 1147.69 2599.83 1142.25 2601.82 1142.25 2601.82 1140.03C2600.53 1140.07 2597.4 1140.17 2595.8 1140.17 2594.21 1140.17 2591.97 1140.07 2590.33 1140.03L2590.33 1142.25 2593.86 1142.25 2601.62 1150.95 2595.11 1157.9C2594.26 1158.8 2592.47 1158.8 2590.08 1158.8L2590.08 1161.03C2591.83 1160.93 2594.41 1160.88 2594.66 1160.88 2595.9 1160.88 2598.79 1160.98 2599.78 1161.03L2599.78 1158.8C2598.89 1158.8 2597.94 1158.57 2597.94 1158.28 2597.94 1158.24 2597.94 1158.19 2598.29 1157.81L2603.12 1152.65 2608.59 1158.8 2606.65 1158.8 2606.65 1161.03C2607.94 1160.98 2610.97 1160.88 2612.61 1160.88 2614.21 1160.88 2616.44 1160.98 2618.09 1161.03L2618.09 1158.8 2614.55 1158.8 2606.2 1149.39Z" fill-rule="evenodd"/><path d="M2634.09 1149.53C2634.09 1145.71 2633.52 1139.78 2630.68 1134.24 2627.57 1128.21 2623.13 1125.03 2622.61 1125.03 2622.3 1125.03 2622.09 1125.22 2622.09 1125.52 2622.09 1125.66 2622.09 1125.76 2623.07 1126.64 2628.14 1131.5 2631.09 1139.29 2631.09 1149.53 2631.09 1157.91 2629.18 1166.53 2622.76 1172.7 2622.09 1173.29 2622.09 1173.39 2622.09 1173.54 2622.09 1173.83 2622.3 1174.03 2622.61 1174.03 2623.13 1174.03 2627.78 1170.69 2630.83 1164.47 2633.47 1159.08 2634.09 1153.64 2634.09 1149.53Z" fill-rule="evenodd"/></g></svg>